<?xml version="1.0" encoding="utf-8"?>
<!-- Generator: Adobe Illustrator 24.1.2, SVG Export Plug-In . SVG Version: 6.00 Build 0)  -->
<svg version="1.1" id="Слой_1" xmlns="http://www.w3.org/2000/svg" xmlns:xlink="http://www.w3.org/1999/xlink" x="0px" y="0px"
	 viewBox="0 0 350 78" style="enable-background:new 0 0 350 78;" xml:space="preserve">
<style type="text/css">
	.st0{fill:#fff;}
</style>
<g>
	<path class="st0" d="M212.7,77.1c0.3-0.4,0.3-1,0.5-1.5c-0.1-0.1-0.3-0.1-0.4-0.2c-0.1,0.2-0.3,0.4-0.4,0.7
		c-0.2,0.8-0.8,1.1-1.5,0.8c-0.7-0.2-1.2-0.6-0.7-1.5c0.5-1,1-1.9,1.4-2.9c0.1-0.3,0.1-0.7,0.1-1.1c0-0.1-0.4-0.2-0.5-0.2
		c-0.2,0.3-0.5,0.5-0.6,0.9c-0.4,1-0.6,2-1,2.9c-0.2,0.6-0.7,0.8-1.2,0.4c-0.4-0.3-0.7-0.6-1.1-0.9c-0.1,0.1-0.1,0.1-0.2,0.2
		c0.2,0.3,0.4,0.7,0.7,0.9c1.1,0.6,0.7,1.5,0.3,2.2c-0.1,0.1-0.1,0.2-0.2,0.3h0.8c0.1-0.1,0.1-0.2,0.2-0.3c0.2-0.2,0.5-0.4,0.8-0.5
		c0.2,0.4,0.9,0.4,1,0.9h2.1C212.4,77.8,212.4,77.6,212.7,77.1z"/>
	<path class="st0" d="M206.2,76.4c-0.2,0.1-0.5,0.1-0.6,0.2c-0.4,0.5-0.7,1-1,1.5h0.9c0.2-0.4,0.4-0.7,0.6-1.1
		C206.2,76.8,206.2,76.6,206.2,76.4z"/>
	<path class="st0" d="M203.1,77.8c0.1-0.3,0.4-0.6,0.7-0.9c0.6-0.6,0.5-1.2,0.2-2c-0.8,1.6-1.7,2.2-3.4,2c-0.5-0.1-1-0.5-1.3-0.9
		c-0.1-0.1,0.2-0.7,0.3-1c0.2-0.5,0.6-1,0.7-1.6c0.1-0.2-0.2-0.4-0.4-0.7c-0.2,0.1-0.5,0.2-0.6,0.4c-1.1,1.9-1.1,1.9-3,1.1
		c0.2,0.3,0.4,0.7,0.7,0.9c0.5,0.4,0.5,0.7,0.2,1.3c-0.5,1-0.7,1.3-1.3,1.6h2c0.7-0.3,1.4-0.4,2.2-0.3c0.2,0,0.4,0.1,0.5,0.3h2.3
		C203.1,78,203.1,77.9,203.1,77.8z"/>
	<path class="st0" d="M85.8,33.8C85.8,33.8,85.8,33.8,85.8,33.8C85.8,33.8,85.8,33.8,85.8,33.8C85.8,33.8,85.8,33.8,85.8,33.8z"/>
	<path class="st0" d="M332.9,76.2c-0.2-0.1-0.5-0.4-0.5-0.6c0.1-0.8-0.3-1-1-1.1c-0.2,0-0.4-0.1-0.5-0.2c-0.4-1-1.3-1.1-2.2-1.3
		c-0.2,0-0.5-0.5-0.5-0.7c0.2-0.7,0-1-0.7-1.2c-0.3-0.1-0.7-0.5-0.6-0.6c0.2-0.8-0.3-0.9-0.9-1.1c-0.4-0.1-0.9-0.1-1.1-0.4
		c-0.9-1.1-2.3-1.3-3.5-1.9c-0.2-0.1-0.5-0.3-0.5-0.4c0-0.9-0.7-1.1-1.4-1.5c-0.3-0.2-0.5-0.6-0.8-0.9c-0.6-0.7-1.2-1.6-1.9-2
		c-1.2-0.8-1.5-1.8-1.6-3.1c1.6-0.1,1.6-0.1,1.3-1.6c0.5-0.1,1-0.1,1.5-0.2c0.2-0.1,0.6-0.4,0.6-0.6c0-0.2-0.3-0.5-0.6-0.6
		c-0.3-0.1-0.7-0.1-1.1-0.1c0.1-0.9,0.8-1.1,1.4-1.1c0.8-0.1,1.6-0.2,2.4-0.3c0.5-0.1,0.7-0.5,0.2-0.9c-0.1-0.1-0.2-0.2-0.6-0.6
		c1.4-0.2,2.6-0.3,3.7-0.5c0.3-0.1,0.5-0.4,0.8-0.6c-0.3-0.2-0.6-0.6-0.9-0.7c-0.4-0.1-0.8,0-1.3,0c0-0.1,0-0.2,0-0.2
		c0.5-0.1,0.9-0.1,1.4-0.2c0.8-0.2,1.7-0.3,2.5-0.5c0.2,0,0.3-0.4,0.4-0.5c-0.2-0.1-0.4-0.3-0.6-0.4c-0.2-0.1-0.5,0-0.7,0
		c-1.1,0.1-2.3,0.2-3.4,0.4c1.2-0.5,2.4-0.9,3.7-1.1c1.1-0.2,2.3-0.4,3.4-0.6c0.2-0.1,0.4-0.4,0.6-0.6c-0.3-0.2-0.6-0.4-0.9-0.5
		c-0.4-0.1-0.8,0-1.2,0.1c1.2-0.4,2.5-0.5,3.7-0.8c1.2-0.3,2.4-0.7,3.6-1c-0.4-0.9-0.8-1.1-1.5-0.9c-1.9,0.5-3.8,1.2-5.7,1.3
		c-2.7,0.1-4.9,1.6-7.4,2.1c-2.5,0.5-4.9,1.3-7.3,2c-0.4,0.1-0.7,0.5-1,0.7c2.9-0.8,5.8-1.5,8.8-2.3c0.5-0.1,1-0.3,1.5-0.3
		c-5.9,2.7-12.1,4.4-18.5,5.4c0-0.1-0.1-0.2-0.1-0.3c0.6-0.2,1.2-0.3,1.8-0.5c1.9-0.5,3.8-1,5.6-1.5c0.3-0.1,0.6-0.4,0.9-0.6
		c-0.8,0.1-1.6,0.1-2.4,0.3c-1,0.2-1.9,0.6-2.9,0.7c-0.9,0.2-1.8,0.2-2.7,0.3c-1.1,0.1-2.3,0.3-3.4,0.5c0-0.1-0.1-0.3-0.1-0.4
		c0.8-0.4,1.7-0.8,2.5-1.1c0.2-0.1,0.5,0.3,0.8,0.4c0.1,0.1,0.3,0.1,0.5,0.1c1.3-0.4,2.7-0.8,4-1.2c2.2-0.7,4.5-1.4,6.7-2
		c0.6-0.2,1.3-0.2,1.9-0.4c1.8-0.5,3.6-1.2,5.4-1.7c1.8-0.5,3.7-0.8,5.5-1.2c2.1-0.4,4.1-0.8,6.2-1.2c0.7-0.1,1.4-0.2,2.1-0.3
		c0.2-0.1,0.4-0.3,0.6-0.5c-0.2-0.2-0.4-0.5-0.6-0.7c-0.2-0.1-0.4-0.1-0.7,0c-0.9,0.2-1.9,0.3-2.8,0.5c-0.3,0-0.6,0-0.9,0
		c0.1-0.3,0.3-0.4,0.4-0.4c1.6-0.2,3.2-0.5,4.8-0.7c1.1-0.1,1.4-0.5,1-1.6c0.3-0.1,0.6-0.1,0.9-0.2c0.2-0.1,0.4-0.3,0.6-0.5
		c-0.2-0.2-0.4-0.6-0.6-0.6c-1.2,0-2.3,0-3.5,0.1c-0.7,0-1.4,0.2-2.1,0.3c-0.2,0-0.4-0.2-0.5-0.3c0.1-0.2,0.3-0.5,0.4-0.5
		c1.4-0.3,2.7-0.7,4.1-0.8c1.8-0.3,3.7-0.4,5.5-0.6c0.3,0,0.5-0.4,0.8-0.6c-0.2-0.2-0.5-0.5-0.7-0.7c-0.1-0.1-0.2-0.1-0.3-0.1
		c0-0.1,0-0.1,0-0.2c1.2-0.2,2.4-0.3,3.6-0.5c0-0.1,0-0.2,0.1-0.3c-0.5-0.1-1-0.4-1.5-0.4c-1.6,0-3.1,0.2-4.7,0.2
		c-3.2,0-6.2,0.9-9.2,1.6c-2,0.5-4,1.3-6,1.9c-4.3,1.3-8.5,2.7-12.8,4c-3.7,1.2-7.3,2.4-11,3.5c-0.7,0.2-1.4,0.4-2.2,0.6
		c-2.2,0.5-4.3,1.1-6.5,1.6c0,0-0.1,0-0.1,0c-2.7,1.2-5.5,1.3-8.4,1.2c-2.5,0-4.9-0.5-7.4-0.9c-2.9-0.5-5.8-1.1-8.7-1.6
		c-3.2-0.5-6.4-1-9.6-1.5c-3.3-0.5-6.5-1.1-9.8-1.7c-2.5-0.5-4.9-1.2-7.4-1.8c-2.7-0.7-5.4-1.3-8.1-2c-2.1-0.5-4.3-1.2-6.4-1.7
		c-3.1-0.7-6.2-1.3-9.4-1.9c-3.2-0.6-6.3-1-9.5-1.5c-3.3-0.5-6.7-1.1-10-1.7c-1.8-0.3-3.5-0.7-5.3-1c-3.1-0.5-6.2-0.9-9.4-1.3
		c-2.1-0.3-4.1-0.5-6.2-0.7c-2.1-0.2-4.2-0.4-6.3-0.6c-0.9-0.1-1.7-0.2-2.6-0.3c0.7-0.8,1.4-1.5,2.1-2.2c0.6-0.5,1.2-1,1.8-1.4
		c0.8-0.5,1-1.5,0.3-2c-0.4-0.3-0.9-0.5-1.4-0.7c-1-0.4-2-0.8-3.1-1.1c-1-0.4-1.9-1.3-3.1-0.8c0.1-0.5,0.2-0.9,0.4-1.3
		c-0.4-0.1-0.9-0.2-1.2-0.3c-0.1-0.4-0.1-1-0.3-1c-0.4-0.1-0.8,0.1-1.2,0.2c-0.4,0.2-0.7,0.5-1.2,0.8c0.5-0.6,0.8-1,1.2-1.4
		c-0.4-0.3-0.7-0.5-1.1-0.9c0.4-0.8-0.7-0.8-0.9-1.4c-0.5-0.9-1.1-0.7-1.7-0.1c-0.3,0.3-0.7,0.4-1,0.6c0.3-0.5,0.7-0.7,1-1.1
		c0.2-0.2,0.2-0.7,0.1-1c-0.6-0.9-1.3-1.7-2-2.5c-0.3-0.3-0.7-0.7-1.1-0.8c-0.8-0.2-1.3-0.4-0.8-1.4c-0.4-0.2-0.8-0.3-1.2-0.4
		c0.1-0.1,0.2-0.1,0.2-0.2c-0.4-0.5-0.8-1-1.2-1.5c-0.3-0.3-0.7-0.7-0.8-1.1c-0.6-1.7-1.6-2.1-3-1.1c-1.4,1-2.9,1.9-4.2,2.9
		c-2.4,1.9-4.8,3.8-7.1,5.8c-2.2,2-4.1,4.2-6.3,6.2c-1.2,1.2-2.6,2.2-4,3.2c-1.6,1.2-2.9,2.9-4.9,3.8c-1.9,0.9-3.9,1.1-5.9,1.2
		c-2.4,0.2-4.7-0.1-7.1-0.2c-1.9,0-3.8-0.1-5.8-0.1c-3,0-6,0.1-8.9,0.2c-1.8,0-3.6,0-5.4,0c-1.9,0-3.7,0.1-5.6,0.1
		c-3.6,0.1-7.3,0.1-10.9,0.2c-2,0.1-4,0.3-6,0.6c-2.1,0.3-4.3,0.6-6.4,0.9c-0.1,0-0.1,0-0.2,0c-2.5,0.7-4.9,1.6-7.5,1.6
		c-1.3,0-2.7,0.2-4,0.5c-3,0.7-6,1.5-9,2.1c-3.1,0.6-6.2,1.1-9.2,1.7c-2,0.4-3.9,1-5.8,1.7c-1.9,0.7-3.7,1.5-5.6,2.2
		c-2,0.8-4.1,1.5-6.1,2.4c-2.5,1.1-4.8,2.4-7.2,3.7c-1,0.5-1.9,1.2-1.7,2.4c0.2,1.1,0.7,2.3,1.4,3c1.4,1.4,3.1,2.7,5.1,3.3
		c0.2,0.1,0.5,0.3,0.7,0.4c1.4,0.8,2.8,1.7,4.1,2.5c0.2,0.1,0.3,0.2,0.5,0.3c-1,0.2-1.9,0.1-2.9,0.2c-0.4,0-1,0.1-1.1,0.4
		c-0.2,0.4-0.2,1,0,1.4c0.4,0.6,0.9,1.2,1.5,1.7c2.4,1.6,5.3,2.2,8.1,2.7c1.5,0.3,3.2,0.3,4.6,0.8c2.9,1.2,5.7,2.8,8.6,4.1
		c1.2,0.6,2.5,1,3.9,1.3c1,0.3,2,0.3,3.1,0.4c0.3,0,0.5,0.1,0.8,0.1c1.7,0.1,3.4,0.2,5.1,0.3c0.6,0,1.2,0.1,1.8,0.1
		c0.8,0.1,1.7,0,2.4,0.3c2.6,1,5.2,2.2,7.8,3.3c1.6,0.6,3.3,1.1,4.9,1.6c1.2,0.4,2.5,0.6,3.7,0.9c1.4,0.4,2.7,0.9,4.1,1.3h9.5
		c0,0,0,0,0,0c0.6-0.3,1.2-0.7,1.8-1c0.5-0.3,1.1-0.6,1.6-0.9c-0.1-0.1-0.1-0.3-0.2-0.4c-1.6,0.6-3.1,1.2-4.7,1.8
		c0-0.1-0.1-0.2-0.1-0.3c1.3-0.6,2.6-1.3,3.9-1.9c0-0.1-0.1-0.2-0.1-0.3c-0.9-0.2-1.6,0.3-2.3,0.6c-0.8,0.4-1.7,0.5-2.5,0.8
		c-0.8,0.3-1.6,0.7-2.4,0.9c1.2-1.5,2.9-2.1,4.5-2.7c-0.1-0.1-0.1-0.3-0.2-0.4c-0.8,0.2-1.5,0.5-2.3,0.7c-1.6,0.6-3.1,1.3-4.7,1.9
		c-0.2,0.1-0.5-0.2-1.1-0.3c1.2-0.6,2.1-1.2,3-1.7c0.4-0.2,1-0.4,1.3-0.7c0.8-0.9,1.7-0.5,2.6-0.5c0.6,0,1.2,0,1.9,0
		c0.7,0.1,1.4,0.2,2.1,0.3c0.8,0.1,1.3,0.5,1.5,1.3c0.1,0.2,0.2,0.4,0.4,0.6c0.6,1.1,0.6,1.1-0.6,1.5c-0.6,0.2-1.3,0.5-1.9,0.8h2.4
		c0.3-0.1,0.5-0.2,0.8-0.3c0.1-0.1,0.4,0.1,0.5,0.2c0,0,0,0,0,0.1h3.2c0.4-0.2,0.7-0.3,1.1-0.5c0-0.1-0.1-0.2-0.1-0.4
		c-1.1,0.2-2.3,0.4-3.4,0.6c-0.1-0.1-0.1-0.2-0.2-0.3c0.2-0.3,0.5-0.7,0.9-1.2c-1.3,0.6-1.6-0.1-2-0.9c-0.2-0.5-0.5-0.9-0.9-1.6
		c0.6,0,1,0,1.4,0c0.3,0,0.6,0.2,0.9,0.3c0.2,0,0.5-0.1,0.5-0.2c0-0.2-0.1-0.5-0.2-0.6c-0.4-0.2-0.9-0.5-1.2-0.4
		c-1.3,0.3-1.9-0.8-2.9-0.9c0-0.1,0.1-0.2,0.1-0.3c0.4,0.2,0.8,0.4,1.2,0.5c2.2,0.6,4.3,1.2,6.5,1.7c1.2,0.3,0.3-0.7,0.6-1.2
		c0.5,0,1.1,0,1.6,0.2c0.9,0.3,1.3,0.1,0.8-1.2c0.9,0.3,1.5,0.5,2.1,0.7c0.3,0.1,0.7-0.1,1.1-0.2c-0.3-0.3-0.5-0.7-0.8-0.8
		c-2-0.6-4.1-1-6.1-1.5c-1.4-0.4-2.8-0.9-4.2-1.1c-1.7-0.3-3.5-0.4-5.2-0.7c-1.7-0.2-3.4-0.6-5.1-0.9c-1-0.2-1.9-0.3-2.9-0.5
		c-0.3-0.1-0.6-0.2-0.9-0.3c0-0.1,0-0.2,0-0.3c0.5,0.1,1.1,0.1,1.6,0.2c2.1,0.3,4.3,0.5,6.4,0.8c2.5,0.4,5,1,7.5,1.3
		c3.2,0.4,6.2,1.7,9.4,2.5c0.7,0.2,1.4,0.1,2.1,0.2c0.1,0,0.1,0,0.2-0.1c0.5-0.3,1-0.7,1.7-1.1c0-0.9-1.2-0.4-1.6-1
		c1.1-0.4,2.1,0.9,3.2,0.2c0-0.1,0.1-0.3,0.1-0.4c-2-0.5-4-1.1-6-1.6c0-0.1,0-0.1,0-0.2c1.1,0.2,2.2,0.4,3.3,0.6
		c1,0.2,2,0.3,3.1,0.5c0.9,0.2,1.2-0.1,0.9-1c-0.1-0.3-0.1-0.6-0.2-0.9c0.3,0,0.5-0.1,0.8-0.2c-0.1-0.1-0.1-0.3-0.2-0.4
		c-0.9-0.5-1.8-1.1-2.8-1.5c-2.8-1-5.5-1.9-8.4-2.7c-2-0.6-4-1-6-1.6c-3.2-0.9-6.5-1.8-9.7-2.6c-3.2-0.8-6,0.2-8.7,1.9
		c-1.5,1-4.3,1.8-6,0.1c-0.2-0.2-0.6-0.5-0.9-0.5c-0.3,0-0.8,0.5-0.8,0.6c0.4,1.3-0.7,1.8-1.3,2.5c-0.4,0.4-0.8,0.8-1.2,1.2
		c0.1,0.1,0.2,0.2,0.3,0.3c1.1-0.9,2.2-1.7,3.2-2.6c0.1,0.1,0.2,0.2,0.3,0.4c-1.2,1.2-2.5,2.3-3.7,3.5c0.1,0.1,0.2,0.2,0.3,0.3
		c1.2-0.8,2.4-1.6,3.7-2.4c0.1,0.1,0.1,0.1,0.2,0.2c-1,1.5-2.8,2.1-3.8,3.6c2-0.6,3.3-2.1,5.2-3c-0.2,0.3-0.2,0.7-0.5,0.8
		c-1.8,1.4-3.5,2.8-5.4,4c-1,0.7-2.2,1.1-3.3,1.6c-0.2-0.3-0.4-0.7-0.6-1.1c0.8-0.3,1.4-0.6,2.1-0.8c1-0.4,1.2-0.9,0.6-1.8
		c-0.9-1.3-1.4-1.6-2.6-0.8c-1.3,0.8-2.6,0.7-3.9,0.6c-2.1-0.1-4.2-0.3-6.2-0.4c-0.1,0-0.3,0-0.4,0c-3.5-1.3-7.2-2.2-10.5-4.2
		c-1.4-0.9-2.9-1.6-4.4-2.4c-0.4-0.2-0.9-0.3-1.4-0.4c-0.1,0.1-0.2,0.2-0.2,0.3c0.3,0.4,0.4,0.8,0.8,1c1.6,1,3.3,2.1,5,3
		c2.4,1.2,4.8,2.6,7.5,3.1c1.7,0.3,3.3,0.9,4.9,1.3c0.6,0.1,1.2,0.1,1.8,0.2c0.4,1.4,1.2,1.7,2.5,1c1.3-0.6,2.7-1.2,4.1-1.6
		c-0.8,0.5-1.6,1-2.4,1.4c-0.2,0.1-0.4,0.1-0.6,0.2c-2.6,1.3-5.3,1-8,0.6c-1.3-0.2-2.6-0.3-3.9-0.7c-0.4-0.1-0.8-0.6-1.2-1
		c-0.3-0.3-0.4-0.8-0.6-1.1c-0.3,0.3-0.6,0.7-1,1.1c-1.1-0.7-0.1-1.7-0.2-2.6c-1,0.1-1.2,0.3-1.3,2.1c-0.3-0.3-0.6-0.4-0.7-0.6
		c-0.1-0.4,0-0.8-0.1-1.1c0-0.4,0-0.8-0.1-1.2c0,0-0.4-0.1-0.4,0c-0.2,0.4-0.5,0.8-0.6,1.2c-0.1,0.3,0,0.6-0.2,0.9
		c-0.6-0.7-0.8-1.4-0.6-2.2c0.1-0.3,0-0.6-0.1-0.9c-0.3,0.2-0.6,0.4-0.9,0.6c-0.2,0.2-0.1,0.5-0.2,0.7c-0.1,0.2-0.2,0.4-0.4,0.6
		c-0.2-0.2-0.5-0.4-0.5-0.6c0-0.5,0.1-1,0.1-1.5c0-0.3-0.1-0.6-0.2-0.9c-0.2,0.2-0.5,0.4-0.7,0.6c-0.1,0.2-0.1,0.6-0.2,0.8
		c-0.1,0.2-0.4,0.3-0.5,0.5c-0.2-0.2-0.5-0.5-0.5-0.7c0-0.4,0.2-0.9,0.3-1.3c0-0.2,0-0.5-0.1-0.7c-0.3,0.1-0.6,0.1-0.8,0.3
		c-0.2,0.3-0.4,0.7-0.5,1c-0.1,0.3-0.2,0.6-0.3,1.1c-1.1-1.2-0.3-2.3-0.2-3.4c-1-0.1-1.3,0.5-1.3,1.2c0,0.3,0.1,0.6,0,0.8
		c-0.1,0.2-0.4,0.4-0.6,0.6c-0.1-0.2-0.4-0.5-0.4-0.7c0-0.6,0.1-1.1,0.1-1.7c0.1-0.6,0-0.9-0.8-0.9c-1.1,0-1.6,0.6-1.8,1.5
		c-0.1,0.4-0.2,0.7-0.4,1.1c-0.1,0-0.3,0-0.4-0.1c0-0.5,0.1-0.9,0.1-1.4c0-0.3-0.1-0.6-0.1-0.9c-0.3,0.2-0.7,0.3-0.9,0.5
		c-0.2,0.2-0.1,0.6-0.3,0.8c-0.1,0.2-0.3,0.3-0.4,0.5c-0.1-0.2-0.4-0.4-0.4-0.6c0-0.4,0.2-0.7,0.3-1.1c-0.9-0.1-1.1,0-1.8,1.2
		c0-0.5,0-1,0.2-1.4c0.1-0.2,0.6-0.3,1-0.4c0.4-0.1,0.9-0.2,1.3-0.2c1.6-0.1,3.1-0.1,4.7-0.1c0.3,0,0.7-0.2,1-0.3
		c-0.2-0.3-0.4-0.7-0.7-0.9c-0.3-0.2-0.7-0.2-1.1-0.2c-1.5-0.2-3.1-0.4-4.6-0.8c-1-0.2-1.2-0.8-0.8-1.9c1.7,0.3,3.4,0.6,5.1,0.7
		c0.9,0.1,1.9-0.2,2.8-0.5c0.2,0,0.3-0.4,0.5-0.6c-0.2-0.1-0.5-0.4-0.7-0.4c-2.4,0.5-4.8-0.2-7.1-0.6c-0.5-0.1-0.9-0.3-1.4-0.4
		c-0.8-0.3-1.3-0.7-0.9-1.7c0.1-0.2-0.1-0.4-0.2-0.6c-0.2,0.1-0.5,0.2-0.7,0.4c-0.3,0.3-0.2,1.3-1,0.9c-0.3-0.1-0.2-1-0.2-1.5
		c0-0.6,0.6-1.3-0.2-2c-0.3,0.6-0.5,1.1-0.7,1.6c-0.2,0.5,0,1.2-1.1,1.3c0.1-0.6,0.2-1.1,0.2-1.7c0.1-0.6,0.3-1.3,0.3-1.9
		c0-0.2-0.2-0.4-0.3-0.6c-0.2,0.2-0.4,0.3-0.5,0.5c-0.2,0.8-0.4,1.7-0.5,2.5c-0.1,0.6-0.3,0.9-0.9,0.6c-0.1-0.1-0.5-0.1-0.5,0
		c-0.1,0.2-0.1,0.4,0,0.6c0,0.4,0.1,0.8,0.1,1.2c-0.2,0-0.6,0.1-0.6,0c-0.3-0.4-0.6-0.8-0.6-1.2c-0.1-0.5,0.1-1.1,0.1-1.7
		c0-0.2-0.2-0.5-0.3-0.7C10,49,9.8,49.1,9.7,49.3c-0.2,0.4-0.3,0.8-0.6,1.1c-0.4-1.3-0.2-2.5,0.6-3.8c-0.5,0-0.8,0-1.1,0
		c0.2-1.2,0.5-2.3,2.3-2.3c-0.2,1.1-0.4,2.1-0.6,3.2c1.5-1.2,1.2-3.3,3.1-4.3c-0.2,0.8-0.4,1.7-0.6,2.5c0.1,0,0.2,0.1,0.3,0.1
		c1.2-1,0.9-3.4,3.1-3.9c-0.2,0.5-0.3,0.9-0.3,1.2c-0.1,0.5-0.2,1-0.2,1.4c0,0.2,0.3,0.4,0.5,0.6c0.1-0.2,0.4-0.4,0.4-0.6
		c0.2-0.7,0.4-1.5,0.7-2.3c0.2-0.4,0.5-0.8,1-1c0.1,0.6,0.1,1.2,0.2,1.9c0,0.2,0.3,0.3,0.5,0.5c0.1-0.2,0.1-0.4,0.2-0.6
		c0.1-0.3,0.1-0.6,0.3-0.9c0.1,1.3-0.2,2.7,0.6,3.8c0.1,0,0.2,0,0.3,0c0-0.4,0.1-0.8,0.1-1.2c-0.1-1.7,0.4-3.3,1.2-4.8
		c0.2-0.3,0.6-0.5,0.8-0.7c0.1,0.1,0.2,0.1,0.3,0.2c-0.1,0.3-0.2,0.5-0.2,0.8c-0.1,0.5-0.4,1.1-0.2,1.5c0.2,0.7,0,1.2-0.4,1.8
		c-1.2,1.9-0.7,3.9,1,5.3c0.9,0.6,1.7,1.3,2.4,2.2c1.7,2,5.4,1,6.7-0.7c1.2-1.7,1.9-3.5,1.7-5.6c-0.2-1.4-0.3-3-1.7-3.9
		c-1-0.7-0.4-1.7-0.2-2.4c0.2-0.8,0.9-1.5,1.3-2.2c0.1,0,0.2,0.1,0.3,0.1c-0.2,0.7-0.3,1.4-0.5,2c-0.3,0.9-0.4,1.6,0.9,1.5
		c0.2,0,0.4,0.2,0.5,0.4c0.8,1.1,1.2,2.4,0.9,3.8c-0.2,1-0.4,2.1-0.5,3.1c0,0.2,0.1,0.4,0.2,0.7c0.2-0.1,0.4-0.2,0.5-0.4
		c0.9-2,1-4,0.5-6.1c-0.1-0.4-0.3-0.8-0.4-1.2c-0.2-0.6-0.1-0.9,0.7-1.2c0,0.1,0.1,0.2,0.1,0.3c0.1,1.7,0.2,3.4,0.4,5
		c0,0.5,0,0.9,0,1.4c0,0.2,0.3,0.3,0.4,0.5c0.1-0.2,0.3-0.3,0.4-0.5c0.1-1.3,0.2-2.6,0.3-3.9c0-0.3,0.1-0.6,0.1-0.8
		c0.1,0,0.2,0,0.3,0c0.1,0.9,0.2,1.7,0.3,2.6c0,0.5-0.2,1-0.2,1.5c0,0.2,0.3,0.4,0.4,0.7c0.1-0.2,0.3-0.3,0.4-0.6
		c0.1-0.3,0.1-0.7,0.2-0.9c0.2-0.2,0.6-0.3,1.1-0.4c0.1-0.2,0.1-0.6,0.3-1c0.1-0.2,0.3-0.5,0.4-0.5c1,0.1,0.9-0.5,0.8-1.1
		c-0.1-1.2-0.3-2.4-0.3-3.6c0-0.7,0.4-1.4,0.8-1.9c0.2-0.2,0.8-0.1,1.2-0.1c-0.1,0.9-0.2,1.6-0.2,2.4c0.2,0,0.3,0.1,0.5,0.1
		c0.5-0.9,1-1.8,1.5-2.7c0.1,0,0.2,0.1,0.3,0.1c0.1,0.5,0.1,0.9,0.2,1.6c0.3-0.3,0.5-0.4,0.6-0.6c0.3-0.5,0.5-1.1,0.8-1.6
		c0.1-0.2,0.5-0.3,0.8-0.5c0,0.3,0.1,0.6,0,0.9c0,0.2-0.3,0.5-0.3,0.7c0,0.3,0.1,0.5,0.1,0.8c0.2-0.1,0.5-0.2,0.7-0.4
		c0.4-0.6,0.6-1.2,1-1.8c0.1-0.2,0.5-0.3,0.8-0.4c0.1,0.2,0.2,0.5,0.2,0.7c0,0.1,0,0.2,0,0.3c0.1,0.3,0.2,0.7,0.3,1
		c0.2-0.3,0.5-0.6,0.7-0.9c0.2-0.4,0.4-0.8,0.6-1.2c0.3-0.5,0.7-0.9,1.2-1.5c0.1,0.3,0.2,0.5,0.1,0.7c-0.2,0.6-0.4,1.2-0.5,1.9
		c-0.1,0.4,0.1,0.9,0.1,1.3c0.1,0,0.2,0,0.3,0c0.5-1,0.9-2,1.4-3c0.1,0,0.1,0,0.2,0.1c0,0.2-0.1,0.4-0.1,0.5c0,0.3,0.1,0.6,0.2,0.9
		c0.3-0.2,0.6-0.3,0.8-0.5c0.4-0.6,0.7-1.3,1.1-1.8c0.2-0.3,0.5-0.4,0.9-0.8c0,1.4-1.3,2.4-0.3,3.7c0.5-1.1,0.8-2.1,1.3-3
		c1-1.7,1.4-1.7,2.6-0.6c0.4,0.3,0.7,0.6,1.1,0.9c-0.7,0.6-1.2,0.4-1.8-0.5c-0.2-0.2-0.4-0.4-0.6-0.6c-0.2,0.3-0.5,0.5-0.6,0.8
		c-0.1,0.2-0.2,0.5-0.2,0.7c-0.2,0.8-0.3,1.4,0.8,1.7c0.2,0,0.3,0.3,0.5,0.7c-0.7,0.1-1.3,0.2-2,0.3c-0.3,0.1-0.6,0.2-0.9,0.2
		c0.1,0.2,0.3,0.5,0.4,0.7c0.7,1,1.4,2.1,2.1,3.1l0,0c0.4,0.6,1.1,1.1,1.3,1.7c0.8,2.3,2.3,4.3,2.3,6.9c0,0.2,0.2,0.4,0.3,0.7
		c1.2-1.5-1-7.5-4.4-12.6c0.6-0.4,1.2-0.9,1.9-0.3c0.2,0.2,0.2,0.8,0.2,1.2c-0.1,0-0.2,0-0.3,0c0,0.1,0.1,0.2,0.1,0.2
		c2.3-0.1,2,1.9,2.6,3.1c0.2,0.4,0.3,0.8,0.4,1.1c0.1,0,0.2,0,0.3,0c0-0.6-0.1-1.2-0.1-2c0.3,0.6,0.5,1,0.7,1.5c0.1,0,0.2,0,0.3,0
		c0-0.3,0-0.6,0.1-0.8c0.1-0.3,0.2-0.6,0.3-0.9c0.3,0.2,0.7,0.3,1,0.5c0.2,0.1,0.3,0.3,0.6,0.6c-0.2-1.5,0.1-1.7,1.2-1.2
		c0.1,0.1,0.4,0.1,0.4,0.1c1.1-0.9,2.4-0.6,3.8-0.8c-0.2-0.6-0.3-1.2-0.4-1.7c0-0.2,0.1-0.5,0.1-0.7c0.2,0.1,0.5,0.2,0.6,0.4
		c0.2,0.3,0.3,0.7,0.6,1c0.1-0.7,0.4-1.4-0.1-2c-0.2-0.2-0.3-0.6-0.2-0.9c0-0.2,0.4-0.3,0.7-0.4c0.9-0.2,1.3,0,1.5,1.1
		c0.2,1.1,0.8,2.1,1.2,3.2c0.1,0,0.3-0.1,0.4-0.1c-0.1-0.9-0.3-1.7-0.4-2.6c0.1,0,0.3-0.1,0.4-0.1c0.5,1.1,1,2.1,1.5,3.2
		c0.1,0,0.3-0.1,0.4-0.1c-0.2-1-0.4-2.1-0.5-3.1c0.1,0,0.1,0,0.2-0.1c-0.1-0.1-0.1-0.1-0.2-0.2c-0.2-0.3-0.5-0.6-0.7-0.9
		c0.3-0.2,0.7-0.5,1-0.5c0.3,0,0.8,0.3,0.9,0.6c0.5,0.9,0.8,1.9,1.2,2.8c0.1,0,0.2,0,0.3,0c0-0.3,0-0.6,0-0.8
		c-0.1-0.6-0.4-1.2-0.5-1.8c0-0.3,0.2-0.6,0.3-0.9c0.3,0.2,0.7,0.4,0.8,0.7c0.2,0.6,0.3,1.3,0.4,1.9c0.1,0.3,0.3,0.6,0.4,0.9
		c0.1,0,0.3-0.1,0.4-0.1c-0.1-0.7-0.2-1.5-0.3-2.2c0-0.4,0-1.1,0.3-1.2c0.7-0.3,0.9,0.2,1.1,0.9c0.2,0.8,0.5,1.6,0.9,2.3
		c0.1,0.2,0.5,0.3,0.8,0.5c0.1-0.1,0.2-0.1,0.3-0.2c0.5,1.3,1,2.6,1.3,3.9c0.3,1.1-0.7,1.6-1.2,2.3c-0.2,0.4-0.6,0.7-1,0.9
		c-0.3,0.2-0.7,0.1-1.1,0.2c-0.3,0.1-0.7,0.2-0.7,0.4c-0.2,1.4-0.2,1.4-1.5,2.7c-0.1-0.7-0.2-1.3-0.4-1.9c-0.1-0.3-0.3-0.5-0.5-0.8
		c-0.1,0.3-0.5,0.7-0.4,0.9c0.4,1.4,0.5,2.7,0,4.1c-0.2,0.5,0.1,1.2,0.1,1.7c0.1,0,0.2,0.1,0.3,0.1c0.1-0.4,0.3-0.7,0.4-1.1
		c0.1-1.3,0.6-2.4,1.9-3.1c0,0.8-0.1,1.5-0.1,2.3c0,0.3,0.1,0.6,0.2,0.9c0.2-0.2,0.5-0.4,0.5-0.7c0.2-1.1,0.3-2.2,0.5-3.4
		c0.1-0.4,0.3-0.8,0.5-1.3c0.1,0,0.3,0,0.4,0c0.1,0.4,0.4,0.8,0.4,1.2c0,1.1-0.1,2.3-0.1,3.4c0,0.2,0.2,0.4,0.3,0.6
		c0.2-0.2,0.4-0.3,0.5-0.5c0.1-1.5,0.1-3,0.1-4.4c0-0.1,0-0.2,0-0.3c-0.2-0.6-0.7-1.2,0.2-1.7c0.5-0.3,1-0.7,1.6-1.2
		c0.2-0.4,0.4-0.9,0.8-1.6c-1.5,0-1.6-1.2-2-2.2c-0.6-1.5-0.8-3.1-2-4.3c-0.5-0.5,0-0.8,0.5-1c0,0,0,0,0,0c-0.7-0.1-1.1-0.6-1.2-1.3
		c0-0.3,0.1-0.7,0.2-0.8c0.3-0.1,0.8,0,0.9,0.2c0.6,0.6,0.8,1.3,0.1,1.9c0,0,0,0,0,0c0,0,0,0,0,0c0,0,0,0,0,0c1-0.1,0.9,0.7,1,1.2
		c0.2,0.7,0.4,1.4,0.6,2c0.2,0,0.3-0.1,0.5-0.1c-0.1-0.7-0.2-1.3-0.3-2c-0.1-0.5-0.4-1,0.3-1.2c0.7-0.2,1,0.3,1.2,0.8
		c0.2,0.7,0.3,1.4,0.4,2.1c0.1,0.5,0.2,1,0.5,1.4c0.6-1.4,0.2-2.8-0.1-4.2c0.6-0.4,1-0.3,1.2,0.3c0.3,0.8,0.5,1.7,0.7,2.6
		c0.1,0.4,0.2,0.9,0.4,1.3c0.2,0,0.3-0.1,0.5-0.1c-0.2-0.9-0.3-1.8-0.5-2.7c0-0.2-0.2-0.4-0.2-0.5c0.1-0.9-0.2-1.8-0.5-2.6
		c-0.1-0.3,0.2-0.7,0.3-1.1c0.4,0.2,1,0.3,1.1,0.6c0.5,1.4,0.9,2.9,1.3,4.3c0.2,0.7,0.7,1.3,1,2c0.6,1.7,1.2,3.4,1.8,5.1
		c0.2,0.6-0.9,1.8-1.6,2.1c-1.1,0.4-1.1,0.4-1.7,1.6c-0.2-0.5-0.3-1-0.5-1.3c-0.1-0.2-0.4-0.4-0.6-0.6c-0.1,0.3-0.2,0.5-0.2,0.8
		c0.1,1.1,0.2,2.3,0.3,3.7c0.3-0.4,0.5-0.7,0.8-1c0.3-0.3,0.6-0.6,0.8-0.8c0.2,0.3,0.3,0.6,0.5,0.9c0.1,0.2,0.2,0.4,0.3,0.6
		c0.2-0.2,0.4-0.3,0.5-0.5c0.1-0.5,0-1.1,0.1-1.6c0-0.3,0.1-0.6,0.3-0.9c0.7,0.7-0.2,2,1.2,2.5c0.2-0.6,0.4-1.2,0.5-1.8
		c0.1,0,0.1,0,0.2,0c0.4,1.6,0.8,3.2,1.2,4.9c0.1,0,0.2,0,0.3,0c-0.1-0.7-0.2-1.5-0.2-2.2c0-0.5,0-0.9,0.1-1.4
		c0.2-0.9,0.6-1.8-0.6-2.5c-0.6-0.4-0.6-1.2-0.2-1.8c0.7-0.9,1.5-1.7,2.3-2.6c0.2-0.2,0.5-0.3,0.6-0.5c0.1-0.2,0.1-0.5,0.1-0.8
		c-0.3,0-0.7,0-0.8,0.1c-0.7,0.8-1.4,1.7-2,2.5c-0.2,0.2-0.4,0.3-0.7,0.6c-0.5-1.4-0.9-2.7-1.3-4c-0.3-0.7-0.7-1.3-0.9-2
		c-0.3-1-0.6-2-0.9-3c-0.1-0.2,0.1-0.6-0.1-0.7c-0.6-0.6-1-1.2-0.8-2.1c0-0.2-0.4-0.4-0.5-0.6c-0.1-0.3-0.1-0.7-0.2-1
		c0.4,0.1,0.9,0,1,0.2c0.5,0.9,0.9,1.8,1.3,2.7c0.2,0.5,0.5,1,0.7,1.6c0.3,0.9,0.5,1.8,0.7,2.7c0.1,0.4,0.2,0.7,0.3,1.1
		c0.1,0,0.2,0,0.3,0c0.1-0.3,0.2-0.6,0.1-0.9c-0.3-1.4-0.7-2.9-1.1-4.3c0-0.2-0.2-0.4-0.2-0.6c0.1-0.7-0.2-1.3-0.7-1.8
		c-0.2-0.2-0.1-0.7-0.1-1c0.3,0.1,0.8,0.2,0.9,0.5c0.4,1.2,1.4,2.1,1.3,3.6c-0.1,1.2,0.6,2.5,0.9,3.8c0,0.1,0.3,0.3,0.3,0.3
		c0.2-0.1,0.3-0.2,0.4-0.4c0.1-0.2,0-0.5,0-0.7c-0.6-2.1-1.2-4.1-1.7-6.2c-0.1-0.3,0-0.6,0-0.9c0.2,0.1,0.6,0.1,0.7,0.3
		c0.6,1.1,1.2,2.2,1.6,3.4c0.4,1.3,0.5,2.7,0.8,4.1c0,0.2,0.2,0.4,0.5,0.5c0-0.7,0-1.4,0-2.1c0.1-0.1,0.2-0.1,0.3-0.2
		c0.3,0.5,0.7,1,1,1.5c0.1,0,0.2-0.1,0.3-0.1c0-0.3,0.1-0.6,0.1-0.9c-0.3-1.7-0.6-3.4-0.9-5.1c0-0.2,0.1-0.4,0.1-0.7
		c0.2,0.1,0.6,0.1,0.7,0.3c0.4,0.8,0.8,1.7,1.1,2.6c0.3,0.9,0.4,1.9,0.8,2.8c0.2-1.9-0.3-3.6-0.7-5.5c0.6-0.3,1-0.3,1.3,0.4
		c0.5,1.5,1,2.9,1.5,4.4c0.1,0.2,0.2,0.4,0.3,0.6c0.1,0,0.2,0,0.3,0c0-0.3,0.1-0.6,0-0.9c-0.3-1.3-0.7-2.6-0.9-3.9
		c0-0.2,0.2-0.5,0.3-0.8c0.3,0.1,0.8,0.2,0.9,0.4c0.5,1.8,1,3.5,1.4,5.3c0,0.2-0.4,0.5-0.6,0.7c-0.2,0.2-0.5,0.2-0.8,0.2
		c0,0.1,0,0.2,0,0.3c0.3,0,0.7,0.1,1,0c0.7-0.3,1.1,0,1.3,0.6c0.3,0.8,0.6,1.6,0.9,2.5c0,0.2-0.2,0.5-0.3,0.6
		c-0.5,0.2-1,0.3-1.5,0.4c-0.3,0.1-0.6,0.1-0.9,0.2c0,0.1,0,0.2,0.1,0.4c0.8-0.1,1.6-0.1,2.4-0.2c0,0.1,0.1,0.2,0.1,0.2
		c-0.2,0.2-0.4,0.5-0.7,0.7c-1.3,1.3-2.6,2.7-4,4c-0.3,0.2-0.7,0.3-1,0.4c-0.7,1.1-1.5,2.3-2.2,3.4c0.1,0,0.1,0.1,0.2,0.1
		c0.5-0.5,1-1.1,1.7-1.8c0.6,2,1.2,3.8,1.8,5.7c0.1,0,0.2,0,0.3-0.1c-0.3-1.5-0.5-3-0.9-4.5c-0.5-1.5-0.8-1.7,0.7-2.9
		c1.3-1.1,2.3-2.4,3.5-3.7c0.2-0.2,0.4-0.4,0.7-0.5c0.6-0.4,0.9-0.2,1.1,0.4c0.4,1.5,0.8,3,1.1,4.4c0.1,0.2,0.2,0.4,0.3,0.6
		c0.1,0,0.2,0,0.3,0c0-0.5,0-1-0.1-1.4c-0.4-1.5-0.8-2.9-1.2-4.4c-0.2-0.6,0.2-0.8,0.7-0.8c1.8,0,3.6-0.1,5.3-0.1c0.2,0,0.3,0,0.5,0
		c0-0.1,0-0.2,0-0.3c-1.7,0-3.3,0-5,0c0-0.5,0-0.7,0-1.1c-0.4,0.2-0.8,0.2-1.1,0.4c-0.6,0.3-0.8,0.1-1-0.4c-0.1-0.3-0.1-0.6-0.2-1
		c-0.6-1.8-0.6-1.9,1.3-2.1c2.1-0.1,4.2,0,6.3,0c0.6,0,0.8,0.3,0.9,0.8c0.3,1.3,0.8,2.7,1.1,4c0.1,0.3-0.1,0.8-0.3,1
		c-1.1,1.2-2.3,2.2-3.4,3.4c-1.1,1.2-2.1,2.4-3.2,3.6c-0.6,0.7-1.1,1.4-1.6,2.3c0.3-0.1,0.5-0.2,1-0.4c0.6,2.3,1.1,4.6,1.6,6.9
		c0.1,0,0.3-0.1,0.4-0.1c-0.4-2.4-0.8-4.8-1.2-7.3c0-0.3,0-0.8,0.2-1c1.9-2,3.8-4,5.7-5.9c0.2-0.2,0.6-0.4,1.1-0.7
		c0.3,1.1,0.5,2,0.7,2.9c0.1,0,0.2,0,0.3,0c-0.1-0.8-0.1-1.5-0.3-2.3c-0.4-1.5-0.2-1.8,1.1-2.6c0.8-0.5,1.4-1.4,2-2.2
		c-1.1,0-1.7,0.6-2.4,1.3c-0.2,0.2-0.5,0.5-0.8,0.5c-0.2,0-0.4-0.4-0.5-0.7c-0.3-0.8-0.5-1.5-0.7-2.3c-0.2-1,0-1.2,1.1-1.2
		c1.2,0,2.4,0,3.6,0c0.2,0,0.5-0.1,0.7-0.3c-0.9-0.1-1.9-0.2-2.8-0.2c-0.5,0-1,0.1-1.6,0.1c-1.6,0-2.5-0.8-2.6-2.4
		c0-0.3,0.2-0.8,0.4-0.8c0.3-0.1,0.8,0.1,1,0.3c0.3,0.3,0.3,0.8,0.6,1.2c0-0.2-0.1-0.5,0-0.7c0.1-0.4,0.3-0.9,0.5-1
		c0.3-0.1,0.8,0.2,1,0.5c0.2,0.2,0.3,0.6,0.4,1c0.1,0.3,0.2,0.7,0.3,1c0.1,0,0.3,0,0.4,0c0-0.4,0.1-0.9-0.1-1.2
		c-0.5-0.9-0.1-1.1,0.6-1.2c-0.3-0.1-0.6-0.3-1.2-0.6c1-0.4,1.7-0.5,2.2,0.2c0.4,0.6,0.5,1.3,0.8,2.1c0.2-0.9,0.3-1.6,0.5-2.5
		c0.8,1.3,1.5,2.3,2,3.4c0.3,0.6,0,1-0.7,0.9c-0.3,0-0.6,0-0.8,0c0,0.1,0,0.2,0,0.3c0.3,0,0.5,0.1,0.8,0.1c1-0.2,1.5,0.4,1.7,1.2
		c0.3,1.3,0.6,2.5,0.9,3.8c0.1,0.3-0.2,0.8-0.4,1.1c-0.3,0.4-0.7,0.7-1.1,1.1c-2,2.1-4.1,4.1-6.1,6.2c-0.8,0.8-1.3,1.8-2,2.7
		c0.1,0.1,0.1,0.1,0.2,0.2c0.4-0.5,0.9-0.9,1.3-1.4c1-1.1,2-2.2,3-3.3c1.5-1.6,3.1-3.1,4.6-4.6c0.3-0.3,0.8-0.4,1.4-0.6
		c-0.1-1.1,1-1.9,2-2.7c0.2-0.2,0.4-0.3,0.6-0.5c0.1-0.1,0.1-0.3,0.2-0.5c-0.2,0-0.5-0.1-0.6,0c-0.5,0.4-0.9,0.8-1.4,1.2
		c-0.3,0.2-0.6,0.5-1.1,0.9c-0.3-1.6-0.7-3-1-4.6c0.3-0.1,0.6-0.2,0.9-0.2c2.1,0,4.2,0,6.3,0.1c0.2,0,0.6,0.3,0.7,0.6
		c0.3,0.5,0.5,1.1,0.9,1.6c-0.1-0.3-0.2-0.7-0.3-1c-0.3-0.9-0.1-1.3,0.9-1.2c1.4,0.1,2.9,0.2,4.4,0.2c-0.1-0.9-0.2-1.8-0.2-2.7
		c0.1,0,0.1,0,0.2,0c0.2,0.8,0.4,1.6,0.6,2.4c0.1,0.3,0.2,0.7,0.4,1c0.3,0.5,0.4,0.9-0.3,1.2c-0.6,0.3-1.2,0.8-1.7,1.3
		c-1.2,1.1-2.3,2.2-3.5,3.3c-0.7,0.7-1.5,1.4-2.2,2.2c-1.2,1.3-2.4,2.7-3.7,4.2c-0.2-0.6-0.3-1.1-0.5-1.5c-0.1-0.2-0.3-0.4-0.5-0.6
		c-0.1,0.3-0.2,0.5-0.2,0.7c0.1,0.7,0.4,1.3,0.5,2c0.1,0.4-0.1,0.9,0,1.2c0.3,0.6,0.5,1.3,0.9,2c-0.1-0.5-0.1-0.9-0.2-1.3
		c-0.3-1.8,0.9-2.9,2-4c2-2,3.9-4,5.9-5.9c1.2-1.2,2.5-2.2,3.9-3.4c0.2,0.6,0.4,1,0.6,1.5c0.1,0,0.2,0,0.3-0.1
		c-0.5-3.1-1-6.2-1.5-9.3c0.1,0,0.2-0.1,0.3-0.1c0.4,0.8,0.8,1.7,1.1,2.5c0.1,0,0.1,0,0.2,0c-0.1-0.4-0.2-0.8-0.2-1.2
		c0-0.4,0-1.1,0.2-1.2c0.6-0.2,1.2-0.3,1.4,0.6c0.2,1,0.6,2.1,0.9,3.1c0.1,0.2,0.2,0.3,0.3,0.5c0.1,0,0.2-0.1,0.3-0.1
		c-0.2-0.9-0.4-1.8-0.6-2.7c0-0.2-0.2-0.4-0.2-0.5c0.1-0.3,0.2-0.6,0.3-0.9c0.3,0.2,0.7,0.4,0.8,0.6c0.5,1.2,0.9,2.4,1.3,3.7
		c0,0.1,0.1,0.2,0.2,0.3c0.1,0,0.2-0.1,0.3-0.1c-0.4-1.1-0.7-2.2-1.1-3.2c-0.1-0.3-0.1-0.7-0.1-1c0,0,0.5-0.2,0.6-0.1
		c0.2,0.3,0.6,0.6,0.6,0.9c0,1.2,0.6,2.1,1.2,3c-0.1-0.6-0.3-1.2-0.3-1.8c0-0.4,0.4-0.8,0.7-1.2c0.2,0.3,0.6,0.5,0.7,0.8
		c0.1,1.4,1.4,2.1,2,3.2c0.5,0.8,0.8,1.4-0.1,2.1c1.2,0.9,1.2,2.3,1.5,3.5c0.2,0.9,0.1,1.8,0.3,2.6c0.3,1.3-0.4,2.1-1.1,3
		c-1.5,1.7-3,3.3-4.7,4.8c-1-2-0.6-4.1-1.5-6.2c-0.2,0.5-0.4,0.9-0.3,1.2c0.3,1.6,0.7,3.2,1.1,4.9c0.3,1.5-0.8,2.3-1.5,3.3
		c-0.4,0.6-0.9,1.2-1.3,1.7c0.1,0.1,0.2,0.2,0.4,0.3c2.7-3.6,5.6-7.1,8.9-10.3c1.3,1.8,0,3.9,1.1,5.6c0-1.4,0.2-2.8,0-4.2
		c-0.3-1.7,0.3-2.8,1.6-3.7c1.2-0.9,2.3-1.7,3.5-2.6c0.2-0.1,0.4-0.3,0.5-0.5c0.1-0.1,0-0.4,0-0.5c-0.2,0-0.4-0.1-0.5,0
		c-0.8,0.6-1.5,1.2-2.2,1.8c-0.9,0.7-1.8,1.4-2.8,2.2c-0.1-0.4-0.3-0.8-0.4-1.2c-0.2-1.3-0.3-2.7-0.5-4c-0.2-1.2,0.1-1.6,1.4-1.4
		c0.4,0,0.8,0.1,1.1,0.1c0-0.1,0-0.2,0.1-0.3c-0.7-0.1-1.3-0.2-2-0.4c-0.3-0.1-0.7-0.3-0.8-0.6c-0.2-0.7-0.2-1.4-0.4-2.1
		c-0.2-0.9-0.6-1.9-0.8-2.8c-0.1-0.4-0.6-1,0.2-1.3c0.8-0.3,1.7,0.2,1.8,1c0.2,1.1,0.3,2.2,0.4,3.2c0,0.3,0.2,0.5,0.5,1
		c0.3-0.7,0.6-1.2,0.8-1.8c0.9,0.6,1.1,1,1.4,3.7c0.1,0,0.2,0,0.3,0c-0.1-0.9-0.1-1.7-0.2-2.6c0-0.3-0.2-0.6-0.2-0.8
		c0-0.3,0.2-0.7,0.4-1c0.3,0.2,0.7,0.4,0.8,0.7c0.3,0.7,0.4,1.4,0.8,2.1c-0.2-0.9-0.5-1.8-0.6-2.7c0-0.3,0.3-0.7,0.5-1
		c0.3,0.2,0.8,0.3,1,0.6c0.2,0.4,0.2,0.9,0.3,1.4c0.3,1.8,0.5,3.7,0.8,5.5c0,0.2,0.2,0.3,0.3,0.6c0.6-1.2,0.9-2.3,0.4-3.5
		c-0.2-0.5-0.2-1-0.3-1.5c-0.3-1.3-0.6-2.5-0.8-3.8c-0.1,0-0.2,0-0.3,0c0.2-0.2,0.4-0.6,0.6-0.6c0.2-0.1,0.7,0.1,0.8,0.3
		c0.7,2.2,1.3,4.4,1.9,6.7c0.1,0.3,0.2,0.6,0.3,0.8c0.1,0,0.2,0,0.2-0.1c-0.1-1-0.3-2.1-0.5-3.1c-0.2-0.8-0.5-1.6-0.7-2.4
		c-0.1-0.3,0-0.8,0-0.8c0.4-0.1,0.9-0.1,1.4,0c0.2,0,0.3,0.5,0.4,0.7c0.2,1,0.4,2,0.6,3.1c0.2,0.9,0.6,1.9-1,2.1
		c0.6,0.4,1.1,0.6,1.3,0.8c0.6-0.1,1.1-0.4,1.5-0.3c0.3,0.1,0.4,0.7,0.5,1.1c0.1,0.1,0.1,0.3,0.1,0.5c0.5,1.8,0.3,2.4-1.4,3
		c-0.5,0.2-1.3,0-1.9-0.1c-0.6-0.1-1.1-0.2-1.6-0.3c-0.3,0-0.7,0.1-1,0.2c0,0.1,0,0.2,0,0.4c1.2,0.1,2.3,0.2,3.7,0.3
		c-3,3.4-6.8,5.8-8.9,9.8c1.6-1.8,3.4-3.4,5.3-4.9c0.1,0,0.2,0.1,0.3,0.1c0,2.6,0,5.3,0,7.9c0.1,0,0.1,0,0.2,0.1
		c0.1-0.4,0.3-0.7,0.3-1.1c0.1-2.5,0.1-5.1,0.2-7.6c0-0.4,0.2-0.9,0.5-1.1c1.3-1.1,2.7-2.1,4.1-3.1c0.2-0.2,0.7,0,1.2,0
		c-0.1-1-0.2-2.2-0.3-3.3c0-0.5,0-1,0-1.5c0.4,0,0.8,0.1,1.2,0.1c0.6,0,1.1,0,1.7-0.1c-1.4,0-1.5-1-1.6-2c-0.1-0.8-0.3-1.6-0.4-2.4
		c-0.1-0.7,0.5-1.5,1.3-1.6c0.9-0.1,0.8,0.6,0.8,1.1c0.2,1.7,0.4,3.4,0.6,5.1c0,0.3,0.2,0.6,0.3,1c0.2-0.2,0.4-0.3,0.4-0.3
		c-0.2-1.5,0.4-3.1-0.5-4.5c-0.2-0.4-0.1-1-0.1-1.5c0-0.2,0.2-0.4,0.3-0.7c0.2,0.2,0.5,0.3,0.6,0.5c0.3,1.3,0.5,2.5,0.8,3.8
		c0.1,0.5,0.2,1.1,0.3,1.6c0.2,0,0.3-0.1,0.5-0.1c-0.2-1.1-0.3-2.2-0.5-3.3c0.1,0,0.1-0.1,0.2-0.1c0.3,0.8,0.8,1.5,1,2.3
		c0.3,1.2,0.3,2.5,0.6,3.8c0.4,1.8-0.4,3.1-1.7,4.2c-1.5,1.2-3,2.5-4.4,3.7c-0.1,0.1-0.3,0.2-0.4,0.3c-1.3,1.4-2.5,2.9-3.8,4.3
		c-0.1,0.1-0.1,0.3-0.1,0.5c1.6-1.6,3.2-3.2,4.9-4.7c1.7-1.5,3.5-3,5.2-4.4c0.1,0.1,0.2,0.1,0.3,0.2c0.1,1,0.2,1.9,0.3,2.9
		c0.1,0,0.2,0,0.3,0c0.1-0.9,0.2-1.9,0.2-2.8c0-0.6,0.3-0.9,0.9-0.9c1.2,0,2.4,0,3.6-0.2c-1.3-0.3-2.5-0.8-3.8-1
		c-0.7-0.1-0.8-0.4-0.8-0.9c0-1.5-0.1-3.1-0.2-4.6c-0.1-1.4-0.3-2.7-0.4-4.1c0.8-0.4,1.3-0.2,1.5,0.6c0.4,1.5,0.7,2.9,1.1,4.4
		c0,0.2-0.2,0.4-0.4,0.6c-0.2,0.2-0.4,0.2-0.6,0.6c1.2,0.2,2.4,0.4,3.9,0.7c-0.3-0.3-0.4-0.6-0.7-0.7c-1.6-0.3-1.9-0.7-2-2.4
		c-0.1-0.9-0.4-1.8-0.5-2.7c0-0.3,0.1-0.7,0.3-0.9c0.5-0.3,1.4,0.1,1.5,0.6c0.2,0.6,0.3,1.2,0.7,1.8c0-0.4-0.1-0.8-0.1-1.3
		c0-1,0.2-1.2,1.2-0.9c0.7,0.2,1.1,0.7,1.2,1.5c0.1,0.7,0.3,1.4,0.4,2.1c0.1,0.7,0.2,1.5,0.3,2.2c0,0.3,0,0.7,0.2,0.9
		c1.3,1.4,0.4,3.1,0.7,4.6c0,0.3-0.4,0.7-0.7,0.9c-2,1.6-4.1,3.2-6,4.9c-1.3,1.1-2.5,2.5-3.7,3.7c-0.1,0.1-0.2,0.3-0.1,0.5
		c0.2-0.1,0.4-0.2,0.5-0.3c2.3-2.1,4.5-4.1,6.8-6.2c0.7-0.6,1.5-1.1,2.3-1.6c0.5-0.4,0.8-0.2,0.8,0.4c0,0.3,0.1,0.6,0.1,0.9
		c0.1,0,0.2,0,0.3,0c0-0.3,0-0.6,0.1-0.9c0.2-0.5,0.4-1.1,0.7-1.6c0.3-0.4,0.7-0.8,1-1.2c-0.5-0.1-0.9-0.1-1.5-0.2
		c-0.1-1.6-0.3-3.4-0.4-5.2c0.1,0,0.2,0,0.3-0.1c0.1,0.3,0.2,0.6,0.2,0.8c0,0.7,0.3,1,0.9,0.9c0.6,0,1.1-0.1,1.8-0.4
		c-0.2-0.1-0.4-0.4-0.6-0.4c-1.8,0-2-0.3-2.1-2.1c0-0.9-0.2-1.8-0.2-2.6c0-0.3,0.2-0.8,0.4-0.8c0.5-0.1,1.1-0.2,1.2,0.6
		c0.1,1.2,0.2,2.5,0.4,3.7c0,0.1,0.1,0.3,0.2,0.4c0.5-1,0.4-2.1,0.1-3.2c-0.1-0.5-0.5-1.1,0.2-1.3c0.7-0.3,1,0.3,1.2,1
		c0.2,1.2,0.4,2.4,0.6,3.7c0,0.3,0.1,0.5,0.3,0.8c0.1-0.8,0.1-1.6,0.2-2.6c1,1.4,1.4,6.7,0.6,7.9c0.9,1.4,0.5,2.8-0.8,3.9
		c-1.2,1-2.4,2-3.6,3c-0.2,0.2-0.3,0.5-0.4,0.8c2.1-1,3.2-3.3,5.7-3.8c-0.1-1.1,1-1.5,1.8-2.1c1.5-1.2,2.9-2.4,4.4-3.6
		c0.3-0.2,0.6-0.4,1.2-0.8c0.1,1.6,0.1,3,0.1,4.3c0,1.3,0,2.6,0.1,4c0.1-0.5,0.4-1,0.4-1.4c0.1-2.2,0.3-4.4,0.2-6.6
		c-0.1-2.1-0.4-4.2-0.6-6.4c0-0.4-0.4-0.9,0.4-1.1c0.7-0.2,0.9,0.3,1,0.8c0.2,1.3,0.5,2.7,0.7,4c0.1,0.3,0.1,0.6,0.2,0.9
		c0.1,0,0.2,0,0.4,0c-0.2-1.8-0.3-3.5-0.5-5.3c1.3,0.1,1.7,0.9,1.8,2.4c0.1,1.1,0.4,2.2,0.6,3.4c0.1,0,0.2,0,0.2,0
		c-0.2-1.6-0.4-3.1-0.7-4.7c-0.1-0.6-0.1-0.9,0.6-0.9c0.4,0,0.8,0.1,1.1,0.3c0.2,0.1,0.5,0.7,0.4,0.8c-0.7,0.7,0,1.1,0.2,1.8
		c0.4,1.3,0.8,2.6,0.4,4c0,0.1-0.1,0.3,0,0.4c0.6,1.3,0.1,2.1-0.9,3c-0.7,0.6-1.3,0.3-2,0.4c-0.4,0-0.7,0-1.1,0c0,0.1,0,0.2-0.1,0.3
		c0.5,0.2,1.1,0.5,1.6,0.7c-0.3,0.4-0.4,0.8-0.6,1.1c0.1,0.1,0.1,0.1,0.2,0.2c0.3-0.3,0.5-0.7,0.9-0.9c0.4-0.2,0.9-0.5,1.3-0.4
		c0.3,0,0.6,0.6,0.6,1c0,1-0.1,2-0.2,3c0,0.2,0,0.4,0.2,0.6c0.7-0.9,0.6-2,0.7-3c0.1-0.5,0.2-0.9,0.3-1.4c0-0.2,0.1-0.5,0-0.7
		c-0.2-1-0.2-1.9,0.9-2.5c0.6-0.4,1.2-0.9,1.7-1.4c0.2-0.2,0.4-0.3,0.7-0.6c0.2,0.6,0.3,1,0.5,1.4c0.1,0,0.2,0,0.2,0
		c0-0.4,0.1-0.7,0.1-1.1c0.1-0.4,0.1-0.8,0.3-1.1c0.1-0.2,0.5-0.3,0.6-0.3c0.2,0.1,0.4,0.4,0.4,0.6c0,1.6,0,3.2,0.1,4.8
		c0,0.6,0.1,1.3,0.1,1.9c0,0.8,0,1.5,0.2,2.4c0.1-0.5,0.3-1,0.4-1.5c0.1-0.9,0.6-1,1.4-0.9c0.8,0.1,1.5,0.2,2.3,0.3
		c0-0.1,0-0.2,0.1-0.3c-0.9-0.2-1.8-0.4-2.7-0.5c-0.6-0.1-0.9-0.2-0.9-0.9c0-2.2,0-4.4,0.1-6.5c0-0.3,0.5-0.7,0.8-1
		c0.2,0.3,0.4,0.6,0.5,0.9c0.1,0.9,0.1,1.9,0.2,2.8c0,0.3,0.1,0.5,0.2,0.8c0.1,0,0.2,0,0.3,0c0-0.3,0-0.7,0-1c0-0.9,0-1.9,0-2.8
		c0-0.2,0.2-0.6,0.4-0.6c0.2,0,0.5,0.2,0.6,0.4c0.2,0.5,0.3,1,0.4,1.5c0.1,0.4,0.1,0.9,0.2,1.3c0.1,0,0.2,0,0.3,0
		c0-0.6-0.1-1.3-0.1-1.9c0-0.3,0.1-0.6,0.2-0.9c0.3,0.2,0.6,0.4,0.9,0.6c0.1,0.1,0.1,0.1,0.1,0.2c0.1,0,0.2,0,0.3-0.1
		c-0.1-0.7-0.2-1.3-0.3-2c0-0.2,0.1-0.5,0.1-0.7c0.3,0.1,0.7,0.2,1.1,0.3c0.6-0.6,1.4-0.4,1.6,0.5c0.1,0.3,0,0.7-0.2,0.9
		c-0.2,0.2-0.6,0.1-0.9,0c-0.2,0-0.4-0.1-0.7-0.2c0,0.3,0,0.5,0,0.8c0.1,0.9,0.3,1.7,0.4,2.6c0,0.3-0.4,0.7-0.7,0.8
		c-0.5,0.1-1-0.1-1.5,0c-0.3,0-0.6,0.3-0.9,0.4c0.3,0.1,0.5,0.3,0.8,0.4c0.1,0.1,0.3,0.1,0.7,0.2c-0.7,0.5-1.2,0.9-1.7,1.3
		c0,0.1,0.1,0.1,0.1,0.2c0.9-0.5,1.7-1,2.6-1.3c0.7-0.2,1.5-0.2,2.2-0.1c0.8,0.1,1.3,0.6,1.3,1.5c0.1,1.8,0.5,3.6,0,5.4
		c-0.1,0.4,0.1,1,0.3,1.8c0.4-1,0.6-1.9,0.8-2.4c-0.1-0.8-0.3-1.4-0.3-2c-0.2-2-0.3-3.9-0.4-5.9c0-0.3,0-0.6,0.1-0.8
		c0-0.1,0.4-0.1,0.4-0.1c0.1,0.3,0.2,0.5,0.3,0.8c0.2,1,0.3,2,0.5,3c0.1,0,0.2,0,0.3,0c0-0.6-0.1-1.1-0.1-1.7c0-0.8-0.1-1.6,0-2.4
		c0-0.3,0.4-0.9,0.7-0.9c0.3,0,0.7,0.4,0.9,0.7c0.1,0.2,0.1,0.5,0.1,0.8c0.1,1.5,0.3,3,0.4,4.5c0.1,0,0.2,0,0.3,0
		c-0.1-1.6-0.2-3.2-0.3-4.8c0-0.3,0.1-0.6,0.2-0.8c0.2,0.2,0.5,0.4,0.6,0.6c0.3,0.8,0.5,1.6,0.8,2.5c0-0.6,0-1.2,0-1.8
		c0-0.4,0.1-1.1,0.3-1.1c0.6-0.1,0.8,0.4,0.9,0.9c0.1,0.8,0.3,1.5,0.4,2.3c0.1,0,0.2,0,0.4,0c-0.1-0.8-0.2-1.7-0.3-2.5
		c-0.1-0.8-0.2-1.7-0.2-2.6c0.7-0.2,1.2-0.1,1.4,0.7c0.2,0.6,0.5,1.2,0.6,1.8c0.1,0.6,0.6,1.3-0.2,1.9c-0.1,0.1,0.1,0.8-0.4,1.1
		c-0.3,0.2-0.7,0.3-1,0.5c-1.4,1.2-2.7,2.4-4.1,3.6c1.5-0.2,2.4-1.8,4.1-1.7c-0.1-0.8,0.4-1.4,1.3-1.8c0.2-0.1,0.8,0.2,0.8,0.3
		c-0.1,1.5,0.8,2.8,0.3,4.3c-0.2,0.5,0.2,1.3,0.4,1.9c0.1-1.2,0.3-2.4,0.3-3.7c0-1.2,0.2-1.6,1.1-1.4c0.3,0.1,0.6,0.5,0.8,0.8
		c0.1,0.2,0.1,0.5,0.2,0.8c0.1,0,0.2,0,0.3,0c0-0.3,0-0.6,0.1-0.9c0.1-0.2,0.3-0.6,0.5-0.6c0.4,0,0.8,0.1,1.1,0.3
		c0.5,0.6,0.3,3.2-0.3,3.7c-0.3,0.3-0.7,0.5-1,0.8c-1.1,0.8-2.3,1.5-3.4,2.3c-0.3,0.2-0.5,0.5-0.8,0.8c0.2,0.1,0.3,0.2,0.4,0.2
		c1.6-1.2,3.4-2.1,4.8-3.5c0.8-0.8,1.8-1.9,3.2-1.4c0.2,0.1,0.5,0.4,0.5,0.6c0,2.1-0.1,4.3-0.2,6.4c0,0.6-0.2,1.1-0.1,1.7
		c1-3.3,1.2-6.6,1.2-10c0.1,0,0.2-0.1,0.3-0.1c0.2,0.5,0.4,1,0.5,1.4c0.1-0.6,0.1-1.3,0.2-2c0-0.2,0.2-0.5,0.3-0.7
		c0.2-0.2,0.6-0.4,0.8-0.4c0.2,0,0.4,0.5,0.5,0.7c0.1,0.7,0.2,1.5,0.1,2.2c0,0.3-0.4,0.6-0.8,0.8c-0.3,0.1-0.7,0.1-1,0.2
		c0,0.1,0,0.3,0,0.4c1.7,0.1,3.5,0.3,5.2,0.4c0.3,1.3-1.3,1.1-1.5,2.1c0.5-0.2,1-0.4,1.6-0.7c-0.1,1.5-0.2,3-0.2,4.4
		c0.1,0,0.2,0,0.3,0c0.1-1,0.3-2,0.4-3c0.1-0.5,0.1-0.9,0.1-1.4c0-0.7,0.1-1.4,1.1-0.8c0.1,0.1,0.5-0.3,0.6-0.5c0.1-0.2,0-0.5,0-0.7
		c0.1,0,0.2,0,0.3,0c0.2,0.9,0.4,1.9,0.6,2.8c0.1,0,0.2,0,0.3,0c0-0.8,0.1-1.5,0.1-2.3c0-0.4-0.1-1,0.1-1.2c0.3-0.2,0.9-0.2,1.5-0.2
		c0-0.1,0.1-0.5,0.3-0.8c0.1,0,0.2,0,0.3,0c0.6,1.8,0.3,3.8,0.4,5.6c0.1,0,0.2,0,0.3,0c0.2-0.5,0.4-1.1,0.6-1.8
		c0.2,0.3,0.3,0.6,0.5,0.8c0,0,0.1,0,0.1,0c-0.1-1.7-0.2-3.4-0.4-5c-0.1-0.6,0.1-0.8,0.5-1c0.2-0.1,0.3-0.1,0.5-0.2
		c1.6-0.9,1.6-0.9,1.8,0.9c0,0.3,0,0.5,0,0.8c0.1,0.5,0.2,1.1,0.6,1.6c0-1.5,0-2.9,0-4.4c0.1,0,0.3-0.1,0.4,0
		c0.4,0.8,0.8,1.6,1.2,2.5c0.1,0.2,0.1,0.5,0.2,0.7c0.4,0.9,0.1,2.1-0.8,2.2c-1.3,0.2-1.6,1.3-2.5,2c-0.2,0.1-0.3,0.4-0.5,0.6
		c0,0.1,0.1,0.1,0.1,0.2c0.7-0.5,1.3-0.9,2-1.4c0.3-0.2,0.6-0.5,0.8-0.4c0.9,0.3,1.8-0.1,2.7-0.1c0.7,0,1.1,0.4,0.9,1.1
		c-0.1,0.8-0.1,1.6-0.3,2.4c-0.1,0.5-0.5,1-0.7,1.4c0.1,0.4,0.3,0.7,0.3,1.1c-0.3,1.7-0.7,3.4-1,5.1c-0.1,0.3-0.1,0.6,0,0.9
		c0.6,1.1-0.3,1.8-0.7,2.6c-0.1,0.2-0.6,0.3-0.9,0.4c0-0.3-0.1-0.7,0-1c0.2-0.8,0.6-1.6,0.7-2.5c-0.7,1-1.4,1.9-2,3
		c-0.3,0.6-1.7,2.2-2.9,2.6c0.5-0.7,1.3-1.3,1.5-2c0.2-0.8,1.4-1.1,0.8-2.5c-0.5,0.8-0.8,1.4-1.2,2c-0.4,0.6-0.9,1.3-1.4,1.8
		c-0.2,0.2-0.6,0-1,0c0-0.3,0-0.6,0.2-0.9c0.4-0.6,0.9-1.2,1.2-1.9c0.1-0.2,0.1-0.5,0.2-0.7c-0.1,0-0.2-0.1-0.3-0.1
		c-0.2,0.2-0.4,0.5-0.5,0.7c-0.4,0.5-0.7,1.1-1.2,1.5c-0.6,0.6-1.1,0.6-1.7-0.1c-0.5-0.6-1-1-1.6-1.5c-0.1,0.1-0.1,0.1-0.2,0.2
		c0.3,0.6,0.6,1.2,0.9,1.7c-0.6,0.7-1.2,1.3-1.8,1.9c-0.2,0.2-0.7,0.1-1.1,0.1c0-0.3-0.1-0.6,0-0.9c0.2-0.5,0.6-1,0.8-1.5
		c-0.1-0.1-0.2-0.1-0.2-0.2c-0.4,0.4-0.8,0.9-1.2,1.2c-0.3,0.2-0.8,0.3-1.1,0.2c-0.5-0.3-0.2-0.7,0-1.1c0.4-0.6,0.7-1.3,1-2
		c0.3-0.6,0.7-1.1,1.5-1.2c0.6-0.1,1.1-0.3,1.6-0.6c-2.5-0.2-4.9,1.4-7.3,0.7c-0.9,0.3-1.7,0.5-2.5,0.8c-0.4,0.1-0.8,0.3-1.1,0.5
		c0.7,0.1,1.7,0,2,0.4c0.7,0.7-0.4,1.3-0.7,1.9c0,0.1-0.1,0.1-0.1,0.2c-1.2,1.6-1.5,1.6-2.9,0.3c-0.2-0.2-0.2-0.7-0.1-1
		c0.3-0.8,0.8-1.6,1.8-1.8c-1.3-0.3-2.6,0-3.8,0.6c0,0,0,0,0,0c0.3,0,0.6-0.1,0.8-0.1c0.3,0,0.6,0.2,0.8,0.3
		c-0.1,0.3-0.1,0.7-0.3,0.8c-0.2,0.1-0.6,0.1-0.8-0.1c-0.2-0.2-0.3-0.5-0.5-0.8c0,0,0,0,0,0c0,0,0,0,0,0c0,0,0,0,0,0
		c-0.3,0-0.5,0-1,0.1c0.6,0.6,1.1,1,1.4,1.4c0.2,0.3,0.3,0.9,0.2,1.2c-0.6,0.9-1.3,1.8-2,2.7c-0.6,0.8-1.4,0.4-2,0
		c-0.7-0.4-0.7-0.9-0.3-1.6c0.6-1,0.9-2.1,1.4-3.2c-0.1-0.1-0.3-0.1-0.4-0.2c-0.3,0.6-0.7,1.2-0.9,1.8c-0.7,2-1.1,2.1-2.6,0.8
		c-0.9-0.8-1.8-1.5-2.8-2.2c-0.1,0.1-0.1,0.1-0.2,0.2c0.1,0.2,0.1,0.4,0.2,0.6c0.2,0.4,0.7,1,0.6,1.2c-0.4,0.9-1,1.7-1.6,2.4
		c-0.1,0.2-1.1-0.1-1.3-0.4c-0.5-0.9-2.3-0.7-1.8-2.3c0.1-0.2,0.1-0.5,0.1-0.8c-0.1-0.1-0.3-0.2-0.4-0.2c-0.1,0.2-0.1,0.4-0.2,0.5
		c-0.2,0.5-0.6,0.6-1,0.2c-0.4-0.4-0.7-0.5-0.9,0.3c-0.1,0.3-0.4,0.6-0.7,0.7c-1.4,0.3-2.8,0.5-4.2,0.8c-0.3,0-0.7-0.1-1.1-0.2
		c0.6-1.3,0-2.2-0.9-2.9c-0.2-0.2-0.6-0.1-0.9-0.2c0,0.3-0.1,0.6,0,0.9c0.2,0.6,0.4,1.1,0.8,1.6c0.4,0.6,0.3,0.9-0.4,1
		c-0.8,0.1-1.5,0.3-2.3,0.4c-0.3,0-0.5,0-0.8,0c0,0.1,0,0.2,0,0.3c0.8,0,1.5-0.1,2.3-0.1c0.2,0,0.5,0.1,0.7,0.1
		c-0.1,0.2,0,0.5-0.2,0.7c-0.5,0.7-1.1,1.3-1.6,1.9c-0.1,0.2-0.1,0.5-0.2,0.7c-0.1,0.6-0.5,1-0.8,1.2h1.3c0.1-0.9,0.8-1.7,1.8-1.8
		c0.6-0.1,1.1-0.2,1.7-0.3c0.2,0,0.6,0,0.7,0.1c0.1,0.2,0,0.6-0.1,0.8c-0.2,0.4-0.5,0.8-0.8,1.2h0.8c0.3-0.6,0.6-1.2,0.9-1.8
		c0.5-1,1.2-0.5,1.7-0.2c0.5,0.2,1.1,0.6,0.5,1.4c-0.1,0.2-0.3,0.4-0.4,0.6h1.3c0.1-0.2,0.2-0.4,0.4-0.4c0.5-0.1,1.1,0.2,1.6,0.4
		c0,0,0,0,0,0h10.6c0.1,0,0.2,0,0.2,0c0,0,0,0,0,0h2.7c-0.1-0.1-0.2-0.3-0.4-0.5c0.7,0,1.2,0.2,1.7,0.5h2c-0.1,0-0.2-0.1-0.2-0.1
		c-0.3-0.2-0.5-0.3-0.7-0.5c0.4-0.1,0.8-0.4,1-0.3c0.5,0.3,1.1,0.6,1.6,0.9h1.7c-0.7-0.5-1.3-0.9-1.4-1.1c0.1-0.1,0.1-0.2,0.2-0.3
		c0.8,0.5,1.5,0.9,2.3,1.4h2.4c-0.1,0-0.1-0.1-0.2-0.1c-0.8-0.5-1.7-0.9-2.8-1.5c0.5-0.2,0.7-0.3,0.9-0.3c1.5-0.2,3-0.3,4.5-0.4
		c2.3-0.2,4.6-0.5,6.9-0.8c3.2-0.3,6.3-0.7,9.5-1c1.8-0.2,3.6-0.5,5.4-0.7c2-0.2,4-0.4,6-0.4c2.7-0.1,5.3-0.1,8,0
		c2.1,0.1,4.3,0.4,6.3,0.9c3.5,0.8,7,1.8,10.5,2.7c1.2,0.3,2.3,0.8,3.5,1.2c0.3,0.1,0.7,0.2,1,0.3h7.7c-0.4-0.2-0.9-0.4-1.3-0.6
		c0-0.1,0.1-0.2,0.1-0.3c0.7-0.1,3.1,0.3,5.6,0.9h12.8c-0.2,0-0.4-0.1-0.5-0.1C334.1,76.8,334.1,76.7,332.9,76.2z M337.5,39.6
		c0,0.1,0,0.2,0,0.2c-1.4,0.2-2.8,0.5-4.2,0.7c0-0.1,0-0.3,0-0.4C334.7,40,336.1,39.8,337.5,39.6z M61.9,73.4c0-0.1-0.1-0.2-0.1-0.3
		c0.6-0.3,1.1-0.9,1.7-1c1.5-0.4,2.8-1.3,4-2.2c0.2-0.2,0.5-0.3,0.8-0.3c0.1,0,0.3,0.1,0.4,0.2c0,0.1,0,0.4-0.1,0.4
		c-1.9,1.2-3.5,2.9-5.9,3.2C62.3,73.4,62.1,73.4,61.9,73.4z M64.1,73.7c1.9-1,3.7-2,5.5-3c0.2-0.1,0.4,0,0.6,0c0,0.2,0,0.6-0.1,0.7
		c-0.6,0.5-1.2,0.9-1.9,1.3c-0.9,0.5-1.9,0.9-2.8,1.4C64.8,74.5,64.4,74.3,64.1,73.7z M67.4,75c-0.2,0.1-0.7-0.1-1-0.2
		c1.7-1.1,3.3-2.2,4.9-3.2c0.2-0.1,0.6-0.1,0.9-0.1c0,0.3,0,0.7-0.2,0.8C70.5,73.2,68.9,74.1,67.4,75z M69,75.2
		c0.3-0.2,0.7-0.3,1-0.5c1-0.7,2-1.4,3.1-2c0.3-0.2,0.8-0.2,1.2-0.3c0.1,0.2,0.1,0.3,0.2,0.5c-1.8,0.8-3.1,2.7-5.2,2.8
		C69.1,75.4,69.1,75.3,69,75.2z M71.2,76c0-0.1-0.1-0.2-0.1-0.3c1.8-0.9,3.5-1.8,5.4-2.7C76.1,74.3,72.8,76,71.2,76z M82.9,71.8
		c-2.3-0.6-4.6-1.3-6.9-1.9c-0.6-0.1-1.2-0.1-1.8-0.1c-0.4,0-0.9-0.1-1.3-0.2c-1-0.2-1.9-0.5-2.9-0.7c-0.2-0.1-0.4-0.2-0.7-0.3
		c1.7-0.7,13.4,1.6,14.4,3.3C83.3,71.8,83.1,71.8,82.9,71.8z M88.2,71.7c-1.5-0.4-2.9-0.8-4.4-1.2c0-0.1,0.1-0.3,0.1-0.4
		c1.5,0.4,2.9,0.8,4.4,1.3C88.3,71.5,88.2,71.6,88.2,71.7z M94.5,71.6c0,0.1-0.1,0.2-0.1,0.3c-0.4-0.1-0.8-0.3-1.1-0.4
		c-2.7-0.6-5.5-1.1-8.1-2c-2.2-0.8-4.5-0.5-6.8-0.9c-1.5-0.3-3-0.4-4.5-0.6c-0.7-0.1-1.4-0.1-2.1-0.2c-1.6-0.3-3.2-0.6-4.7-1.1
		C76.3,67.3,85.5,68.7,94.5,71.6z M72.8,65.2c4.3-0.1,8.6,0.3,12.8,1.2C81.2,67,77,65.7,72.8,65.2z M98.1,68.2c0,0,0,0.1,0,0.1
		c-4.7-1-9.3-2.3-14-3c-4.6-0.7-9.4-0.9-14.3-1.3c0.5-0.1,0.9-0.3,1.2-0.3c1.8-0.1,3.5-0.2,5.3-0.1c2.6,0.1,5.1,0.5,7.7,0.8
		c0.2,0,0.5,0,0.7,0.1c1.9,1.1,4.2,1.1,6.3,1.7c2.2,0.7,4.4,1.3,6.6,1.9C97.7,68,97.9,68.1,98.1,68.2z M84,63.2c0,0.1,0,0.2,0,0.4
		c-4.1-0.3-8.2-0.5-12.3-0.8C75.8,62,79.9,62.6,84,63.2z M73.3,61.4c3.6-1.4,7.1,0.2,10.7,0.6c0,0.1,0,0.2,0,0.3
		C80.4,62,76.8,61.7,73.3,61.4z M88.6,64.6c0-0.1,0.1-0.3,0.1-0.4c1.9,0.5,3.8,1,5.7,1.5c0,0.1-0.1,0.3-0.1,0.4
		C92.4,65.7,90.4,65.6,88.6,64.6z M77.5,58.3c0,0.1,0,0.1,0,0.2c-1.3,0-2.5,0-3.8,0c0-0.1,0-0.1,0-0.2C75,58.3,76.2,58.3,77.5,58.3z
		 M68.8,61c1.4-0.5,2.9-1.1,4.3-1.6c0.2-0.1,0.3-0.1,0.5-0.1c1.8,0,3.7,0,5.5,0.1c1.5,0,2.9,0.1,4.4,0.2c0.1,0,0.2,0,0.3,0
		c1.6,0.4,3.2,0.9,4.9,1.4c1.4,0.4,2.8,0.7,4.1,1.1c1.3,0.4,2.5,1,3.7,1.5c2.1,0.8,4.2,1.5,6.4,1.8c0.5,0.1,0.9,0.4,1.6,0.7
		c-0.4,0.1-0.5,0.2-0.6,0.2c-2.6-0.7-5.3-1.3-7.9-2c-2.5-0.6-5-1.2-7.5-1.8c-0.4-0.1-0.8-0.3-1.3-0.5c-0.3-0.1-0.7-0.4-1-0.3
		c-1,0.3-1.8-0.2-2.6-0.5c-2.6-0.9-5.2-1.2-7.9-0.5C73.9,61,72,61,70.2,61.3c-1.1,0.2-2.1,0.4-3.3,0.5C67.6,61.5,68.2,61.2,68.8,61z
		 M66.5,68.9c0.1,0.1,0.2,0.2,0.3,0.3c-1.1,0.7-2.1,1.4-3.2,2.2c-0.1-0.1-0.2-0.3-0.3-0.4C64.3,70.3,65.4,69.6,66.5,68.9z M65.1,68
		c0.1,0.1,0.2,0.3,0.3,0.4c-0.7,0.5-1.3,1.2-2,1.6c-1.3,0.7-2.7,1.4-4,2c-0.3,0.1-0.6,0-0.9,0c0-0.1,0-0.2,0-0.3
		C60.6,70.5,62.9,69.2,65.1,68z M62.4,67.2c-0.4,0.8-0.5,1.6-1,1.8c-1.6,0.9-3.2,2.2-5.3,1.8C58.1,69.7,60.1,68.5,62.4,67.2z
		 M17.4,59.1c-0.1,0.4-0.1,0.8-0.2,1.5c-0.9-0.4-1.7-0.8-2.6-1.1c0-0.1,0.1-0.2,0.1-0.3C15.6,59.1,16.4,59.1,17.4,59.1z M16.2,53.6
		c0.1,0.2,0.4,0.4,0.4,0.6c-0.1,0.4-0.3,0.7-0.4,1c-0.2-0.2-0.4-0.4-0.7-0.8C15.8,54.2,16,53.9,16.2,53.6z M13.9,52.7
		c0-0.1,0.5,0,0.5,0c0.1,0.5,0.1,0.9,0.1,1.4c-0.1,0-0.3,0-0.4,0C13.6,53.7,13.6,53.2,13.9,52.7z M6.8,48.9c-0.7-0.5-1-1-0.8-1.7
		c0.1-0.4,0.6-0.6,1-0.9c0.1,0.1,0.2,0.1,0.3,0.2C7.1,47.3,7,48,6.8,48.9z M24.2,38.8c0.4,1.2,0,2.4-1.1,3
		C22.7,41.2,23,40.5,24.2,38.8z M31.5,48.8c-0.9,1.5-2.1,2-3.5,2.2c-0.5,0.1-1.1-0.3-1.6-0.5c-0.3-0.1-0.5-0.5-0.8-0.5
		c-1-0.2-1.6-0.9-2.2-1.8c-1.3-1.9-1.1-3.4,0.5-5.1c0.9-1,2-1.6,3.2-2.1c0.5-0.2,0.9-0.5,0.3-0.9c-0.6-0.4-0.4-0.8-0.2-1.2
		c0.3-0.5,0.7-1,1-1.5c0.1,0,0.3,0.1,0.4,0.1c0,0.4,0,0.8-0.1,1.2c0,0.4-0.2,0.7-0.2,1c0,0.2,0.2,0.4,0.4,0.6
		c0.2-0.1,0.4-0.2,0.5-0.4c0.2-0.5,0.2-1,0.4-1.5c0.2-0.5,0.5-1,0.8-1.5c0.1,0.1,0.2,0.1,0.3,0.2c-0.1,1.1-0.3,2.1-0.4,3.2
		c0,0.4,0.1,0.9,0.3,1.1C32.7,43.2,32.8,46.3,31.5,48.8z M34.8,38.2c-0.1,0.2-0.4,0.4-0.6,0.5c-0.1-0.3-0.3-0.5-0.2-0.7
		c0.2-0.6,0.5-1.2,0.8-1.8c0.1,0.1,0.3,0.1,0.4,0.2C35,37,35,37.6,34.8,38.2z M37.6,37.3c-0.1,0.3-0.4,0.5-0.6,0.8
		c-0.3-0.3-0.9-0.8-0.8-0.9c0.3-0.7,0.8-1.3,1.2-2c0.1,0,0.3,0,0.4,0.1c0.1,0.3,0.3,0.6,0.3,0.8C38,36.5,37.8,36.9,37.6,37.3z
		 M39.2,41.4c-0.1-0.6-0.2-1.1-0.3-1.7c0.1,0,0.3-0.1,0.4-0.1c0.1,0.5,0.3,1.1,0.4,1.6C39.5,41.4,39.4,41.4,39.2,41.4z M40.6,38.9
		c-0.8-0.6-1.4-0.8-1.9,0.1c-0.7-0.4-0.9-0.9-0.4-1.5c0.3-0.5,0.5-1.1,0.8-1.6c0.4-0.8,1.1-1.1,1.9-1C40.8,36.2,40.7,37.5,40.6,38.9
		z M70.1,30.6c0.3,0.4,0.7,0.8,1,1.2c0,0-0.1,0.3-0.1,0.3c-0.1,0-0.3,0-0.4-0.1c-0.3-0.4-0.5-0.8-0.7-1.2
		C69.9,30.7,70,30.7,70.1,30.6z M70.7,32.8c1.1,0.2,1.3,0.7,0.7,1.7C71.2,33.9,71,33.4,70.7,32.8z M71.2,35.5
		c-0.4,0.3-0.6,0.6-0.8,0.6c-0.3-0.2-0.6-0.5-0.9-0.7c0.2-0.2,0.5-0.6,0.6-0.6C70.5,34.9,70.8,35.2,71.2,35.5z M70.5,34
		c-0.4,0.2-0.7,0.5-0.7,0.4c-0.4-0.3-0.7-0.7-1-1c0.2-0.2,0.6-0.6,0.6-0.5C69.7,33.2,70,33.5,70.5,34z M67.3,31.1
		c0.3-0.1,0.6-0.3,0.8-0.3c0.8,0,1,0.7,1.1,1.3c0,0.1-0.5,0.6-0.6,0.5c-0.5-0.3-1-0.7-1.4-1.1C67.3,31.3,67.3,31.2,67.3,31.1z
		 M67.3,33.2c0.3,0.3,0.6,0.6,0.8,0.9c0.1,0.1-0.2,0.4-0.4,0.9c-0.4-0.6-0.6-1-0.8-1.4C66.9,33.6,67.2,33.4,67.3,33.2z M66.9,32.5
		c-1.1,0.1-1.6-0.5-2.2-1.1C65.7,31,66.4,31.3,66.9,32.5z M63.5,35.2c-0.4-0.4-0.8-0.8-1.2-1.2c1.2-0.5,1.2,0.4,1.4,1
		C63.6,35,63.5,35.1,63.5,35.2z M63.5,32.7c-0.6-0.5-1.1-1.1-1.6-1.7c1-0.2,1.8,0,2.4,0.9c0.2,0.2,0.1,0.6,0.2,0.8
		C64.2,32.8,63.7,32.9,63.5,32.7z M64.2,34c0.3-0.2,0.8-0.6,1-0.5c0.4,0.1,0.7,0.6,0.9,0.9c0,0-0.4,0.4-0.8,0.8
		C64.9,34.6,64.5,34.3,64.2,34z M65.6,39c0,0-0.4,0.1-0.4,0.1c-0.3-0.5-0.5-1.1-0.7-1.6c0,0,0.2-0.2,0.3-0.3
		c0.3,0.3,0.5,0.6,0.7,0.9C65.7,38.3,65.6,38.7,65.6,39z M65.2,35.4c0.8-0.1,1.5-0.5,1.9,0.4c0.1,0.1-0.2,0.6-0.4,0.7
		C65.9,36.8,65.4,36.4,65.2,35.4z M68.3,38.5c-0.3,0.1-0.6,0.4-0.9,0.4c-0.6,0.1-1.4-0.8-1.2-1.3c0.2-0.4,0.9-0.8,1-0.7
		c0.5,0.3,0.8,0.8,1.2,1.2C68.4,38.2,68.4,38.3,68.3,38.5z M67.9,35.4c0-0.1,0.2-0.3,0.4-0.6c0.3,0.4,0.5,0.6,0.6,0.9
		c0,0.1-0.2,0.3-0.3,0.5C68.3,35.9,68.1,35.7,67.9,35.4z M69.5,38.7c-0.1,0-0.3-0.1-0.3-0.1c-0.2-0.5-0.4-1.1-0.6-1.7
		c0.1-0.1,0.3-0.1,0.4-0.2c0.3,0.5,0.6,1.1,0.9,1.7C69.8,38.4,69.6,38.6,69.5,38.7z M71.4,38.7c-0.4-0.3-0.9-0.5-1.1-0.9
		c-0.4-0.7,0-1.4,0.8-1.6c0.3,0.6,0.6,1.1,0.7,1.8C71.9,38.1,71.5,38.4,71.4,38.7z M72.1,31.9c-0.3-0.4-0.5-0.9-0.9-1.5
		c1.2-0.5,1.8,0.1,2.4,0.7c0.1,0.1,0.1,0.7,0,0.7C73.1,32.2,72.6,32.5,72.1,31.9z M73.4,34.1c-0.4-0.2-0.5-0.8-0.8-1.3
		c1.1-0.4,1.8-0.3,2.1,0.5c0.1,0.2,0.1,0.5,0.2,0.8C74.3,34.1,73.8,34.3,73.4,34.1z M75.1,31.8c-0.3-0.5-0.6-1-0.9-1.5
		c0.1-0.1,0.2-0.2,0.3-0.2c0.7,0.2,0.8,0.9,0.8,1.5C75.3,31.7,75.2,31.8,75.1,31.8z M75.9,30.3c0-0.2,0.4-0.4,0.4-0.4
		c0.5,0.3,1.1,0.7,1.6,1c0,0.1,0,0.2-0.1,0.4c-0.2,0.1-0.4,0.3-0.6,0.3C76.8,31.7,75.9,30.7,75.9,30.3z M78.5,34
		c-0.9,0.2-1.3-0.3-1.4-1.6c1.5-0.3,2-0.1,2.1,0.9C79.2,33.5,78.8,34,78.5,34z M81.1,33.7c-0.2,0.1-0.4,0.1-0.5,0
		c-0.5-0.2-0.8-1.4-0.6-1.9c0,0,0,0,0,0c0,0,0,0,0,0c-0.5-0.4-1-0.7-1.4-1.2c-0.1-0.1-0.1-0.5-0.1-0.7c0.3,0,0.6-0.2,0.8-0.1
		c0.8,0.2,1.1,1.2,0.7,2c0,0,0,0,0,0c0,0,0,0,0,0c0.9,0.1,1.1,0.8,1.2,1.5C81.3,33.4,81.2,33.7,81.1,33.7z M81.1,30.2
		c0-0.2,0.3-0.4,0.5-0.5c0.4,0.4,0.8,0.9,1.3,1.3c-0.2,0.2-0.4,0.3-0.4,0.4C81.5,31.4,81.2,30.9,81.1,30.2z M82.9,33.7
		c-1,0.1-0.9-0.7-1-1.2c0-0.2,0.3-0.5,0.4-0.5c1.1-0.1,1.3,0.4,1.4,1C83.8,33.6,83.4,33.6,82.9,33.7z M84.9,31.2
		c-0.7,0.2-1.3-0.4-1.4-1.3c1.1-0.3,1.6-0.1,1.8,0.6C85.3,30.8,85,31.2,84.9,31.2z M86,30.1c0.2-0.1,0.3-0.3,0.5-0.4
		c0.2,0.4,0.5,0.7,0.7,1.1c0,0-0.2,0.2-0.4,0.3C86.6,30.8,86.3,30.5,86,30.1z M88,33.5c-0.5,0.1-1.3-0.9-1.2-1.4
		c0-0.3,0.4-0.4,0.7-0.7c0.4,0.5,0.8,0.9,1.1,1.4c0.1,0.2,0.1,0.3,0.2,0.5C88.5,33.4,88.2,33.5,88,33.5z M88.1,29.9
		c0,0,0.2-0.3,0.3-0.3c0.3,0.2,0.7,0.4,1,0.7c0.2,0.2,0.3,0.4,0.6,0.8c-0.5,0-0.8,0.1-1,0C88.6,30.7,88.4,30.3,88.1,29.9z
		 M89.8,33.4c-0.3-0.4-0.6-0.9-0.8-1.5c0-0.1,0.3-0.4,0.6-0.7c0.3,0.4,0.6,0.6,0.8,1c0.2,0.3,0.2,0.7,0.2,1.1
		C90.3,33.3,89.9,33.5,89.8,33.4z M91.6,31c-0.3-0.1-0.7-0.4-1-0.6c0.2-0.3,0.5-0.5,0.9-1c0.4,0.5,0.7,0.7,0.7,1
		C92.2,30.6,91.8,31,91.6,31z M99.7,29.4c0.1-0.1,0.3-0.2,0.4-0.2c0.3,0.5,0.5,0.9,0.8,1.4c-0.1,0.1-0.3,0.2-0.4,0.2
		C100.2,30.3,100,29.9,99.7,29.4z M101.1,33c-0.1-0.1-0.2-0.2-0.2-0.3c-0.1-0.5-0.2-1-0.3-1.4c0.1,0,0.4,0,0.4,0
		c0.2,0.5,0.3,1.1,0.5,1.6C101.4,32.9,101.3,33,101.1,33z M117.5,28.7c0.5,0.3,1,0.6,1.5,0.9c-0.1,0.1-0.2,0.2-0.2,0.4
		c-0.7,0.1-1.2-0.3-1.5-1C117.3,28.9,117.4,28.8,117.5,28.7z M117.8,31.7c-0.8-0.1-1.4-0.2-2-0.3c-0.2-0.1-0.4-0.5-0.3-0.7
		c0-0.2,0.4-0.4,0.7-0.4C117,30.2,117.5,30.6,117.8,31.7z M115.9,28.8c0.1,0.2,0.1,0.3,0.2,0.5c-0.3,0.2-0.6,0.4-0.9,0.5
		c-0.2,0-0.3-0.5-0.5-0.7C115.1,28.9,115.5,28.9,115.9,28.8z M109.4,32.5c-0.3-0.7-0.5-1.4-0.6-2.1c0-0.1,0.2-0.4,0.3-0.4
		c0.2,0,0.6-0.1,0.7,0.1c0.5,0.6,0.8,1.3,1.3,2.1c-0.3,0.3-0.5,0.7-0.7,0.7C110,32.9,109.5,32.8,109.4,32.5z M111.6,36
		c-0.1,0.2-0.5,0.3-0.7,0.2c-0.2-0.1-0.3-0.4-0.4-0.7c-0.2-0.5-0.3-1-0.4-1.6c0.9-0.6,1-0.5,1.2,0.5c0.1,0.3,0.3,0.5,0.3,0.8
		C111.7,35.4,111.7,35.8,111.6,36z M111.5,31.9c-0.1-0.3-0.3-0.5-0.3-0.8c0-0.3,0-0.6,0.1-0.9c0.4,0.1,1.1,0.1,1.3,0.3
		c0.4,0.6,0.5,1.3,0.8,2C112.2,33,111.8,32.9,111.5,31.9z M113.3,36.1c-0.4,0-0.9,0.4-1.1-0.3c-0.1-0.5-0.2-1-0.3-1.5
		c0-0.3,0.2-0.7,0.3-1c0.4,0.2,1.1,0.2,1.3,0.6c0.3,0.5,0.3,1.1,0.5,1.9C113.8,35.9,113.6,36.1,113.3,36.1z M114.2,31.7
		c-0.2-0.4-0.4-0.7-0.5-1.1c0-0.1,0.2-0.3,0.4-0.4c0.3,0.3,0.6,0.6,0.8,1c0.1,0.1-0.2,0.4-0.3,0.5C114.4,31.7,114.3,31.7,114.2,31.7
		z M118,36.2c-0.9,0-1.8,0-2.7,0c-0.7,0-1-0.3-0.9-1c0-0.6,0-1.2,0-1.8c0.6,0,1.1,0,1.7,0c0.5,0,1.2-0.2,1.4,0.1
		c0.6,0.5,1.1,1.3,1.5,2C119.3,36.1,118.9,36.4,118,36.2z M121,32c0-0.1-0.2-0.2-0.2-0.3c-0.1-0.3-0.1-0.6-0.2-0.8
		c0.3-0.1,0.6-0.2,0.8-0.1c0.3,0.1,0.5,0.4,0.7,0.7c0.1,0.3,0.1,0.6,0.1,1.1C121.6,32.7,121,33.2,121,32z M122.3,29.6
		c0.3-0.4,0.7-0.7,1-1c0.8,0.2,1.4,0.9,1.4,1.4c0,0.1,0,0.2,0,0.2c-0.6,0-1.2,0.1-1.9,0C122.6,30.2,122.2,29.6,122.3,29.6z
		 M122.9,30.8c1.1-0.2,1.8,0,2.2,0.7C124,32.2,123,31.9,122.9,30.8z M173.6,31.8c-1,0.1-1.7-0.4-2.1-1.4
		C172.7,29.9,173.6,30.5,173.6,31.8z M169.9,30.1c0.3,0.3,0.6,0.6,0.9,1c-0.1,0.1-0.4,0.3-0.4,0.3c-0.3-0.3-0.6-0.6-0.9-0.9
		C169.7,30.4,169.8,30.2,169.9,30.1z M154.2,13.8c0.1,0.1,0.1,0.2,0.2,0.2c-1.3,1-2.5,2-3.9,3.1C150.6,16.1,152,14.9,154.2,13.8z
		 M152.4,9.2c-3.4,3-6.9,6-10.4,9.1c0.5,0.2,0.7,0.3,1,0.5c-0.7,1.4-5.7,5.9-8,7.4c-0.2,0.3-0.5,0.5-0.7,0.8
		c-0.1-0.1-0.2-0.2-0.3-0.3c0.2,0,0.5-0.2,1-0.5c2-2.3,4-4.5,6-6.9c-0.8,0.6-1.5,1.1-2.1,1.7c-2,2-3.8,4-6.4,5.2
		c-0.2,0.1-0.5,0.2-0.7,0.3c-0.1-0.1-0.2-0.1-0.2-0.2c2.5-2.4,5.8-4,7.4-7.4c-3,2.8-6.1,5.3-9.5,7.4c-0.1-0.1-0.2-0.2-0.2-0.3
		c0.1-0.2,0.1-0.4,0.2-0.5c1.2-0.9,2.5-1.8,3.8-2.8c1.1-0.8,2.3-1.5,3.3-2.4c0.8-0.7,1.3-1.6,2.1-2.3c0.9-0.9,1.9-1.6,2.8-2.4
		c0.1-0.1,0.2-0.2,0.3-0.3c0.6-0.7,1.2-1.4,1.9-2c1.2-1,2.4-1.8,3.6-2.7c0.2-0.1,0.4-0.2,0.8-0.5c-1.1,1.3-2,2.5-3,3.6
		c0.1,0.1,0.2,0.2,0.3,0.3C147.8,12.6,149.6,10.2,152.4,9.2z M139.8,29.1c0-0.2,0.3-0.5,0.5-0.5c0.5,0,1.3,0.9,1.2,1.4
		c-0.1,0.3-0.4,0.4-0.7,0.7C139.5,30.6,139.9,29.6,139.8,29.1z M139.5,26c-0.1-0.1-0.1-0.2-0.2-0.3c2.9-2.3,5.8-4.5,8-7.5
		c-3.1,2.3-5.6,5.2-9.1,7.1c-0.1-0.1-0.1-0.1-0.2-0.2c0.4-0.4,0.8-0.8,1.1-1.2c1.3-1.3,2.6-2.6,3.9-4c1.5-1.5,3-3,4.6-4.5
		c0.4-0.4,0.8-0.3,1,0.2c0.2,0.4,0.3,0.8,0.5,1.2c0.3,0.6,0.4,1.1-0.4,1.6c-0.6,0.4-0.9,1.3-1.4,1.7c-1.9,1.6-3.8,3.2-5.8,4.8
		C141,25.3,140.2,25.6,139.5,26z M137.7,28.4c0.9-0.3,1.4,0.5,1.6,2C138.7,30.4,138.7,30.4,137.7,28.4z M137.9,30
		c-0.3,0.3-0.4,0.5-0.6,0.5c-0.3,0-0.7-0.1-0.8-0.2c-0.3-0.5-0.5-1-0.7-1.6c0,0,0.4-0.2,0.5-0.2C136.9,28.9,137.3,29.4,137.9,30z
		 M133.7,31c0.3,0,0.6,0.3,1,0.4c0,0.1,0,0.2,0,0.3c-0.2,0.1-0.5,0.3-0.7,0.3c-0.3-0.1-0.6-0.4-0.8-0.7
		C133.3,31.3,133.6,31,133.7,31z M132.9,30.4c-0.1-0.2-0.3-0.4-0.3-0.6c0-0.4,0-0.8,0.1-1.3c0.3,0.1,0.6,0.2,0.8,0.4
		c0.4,0.4,0.3,0.9-0.1,1.3C133.2,30.3,133.1,30.3,132.9,30.4z M132.1,30c-0.4,0.3-0.6,0.5-0.8,0.5c-0.9-0.1-0.8-0.9-1-1.4
		c0-0.1,0.4-0.4,0.6-0.6C131.2,29,131.6,29.4,132.1,30z M129.9,30.3c-0.1,0.1-0.1,0.2-0.2,0.3c-0.3-0.1-0.7-0.1-0.8-0.3
		c-0.3-0.5-0.4-1-0.6-1.5c0.2,0,0.6-0.1,0.7,0C129.4,29.3,129.6,29.8,129.9,30.3z M126,25.8c5.7-5.2,11.4-10.4,17.1-15.5
		c0.1,0.1,0.1,0.2,0.2,0.2c-2,1.9-4,3.7-6,5.6c0.1,0.1,0.2,0.2,0.2,0.4c0.8-0.5,1.8-0.9,2.5-1.6c2.4-2.4,5.1-4.4,7.8-6.4
		c0.5-0.4,1-0.8,1.6-1.1c-4.8,4.9-10.3,9-15.5,13.5c0.2-0.2,0.3-0.5,0.5-0.7c-0.1-0.1-0.1-0.1-0.2-0.2c-0.9,0.7-1.8,1.4-2.6,2.1
		c-0.9,0.8-1.7,1.6-2.6,2.3C128.1,24.9,127,25.4,126,25.8z M126.2,28.9c0.1-0.1,0.3-0.2,0.4-0.3c0.4,0.3,0.8,0.6,1.1,1
		c0.2,0.2,0.1,0.6,0.1,0.9c-0.3-0.1-0.7,0-0.9-0.2C126.6,29.9,126.5,29.4,126.2,28.9z M128.5,31.9c-0.4-0.1-0.8-0.2-1.2-0.3
		c0-0.2,0.1-0.5,0.1-0.5c0.4,0,0.8,0.1,1.2,0.2C128.6,31.5,128.5,31.7,128.5,31.9z M137.1,36.1c-0.1,0.2-0.3,0.3-0.5,0.3
		c-2.1,0-4.3,0-6.4-0.1c-0.2,0-0.6-0.4-0.7-0.7c-0.4-1-0.6-2.1-0.9-3.1c0,0,0.1-0.1,0.1-0.1c0.3,0.4,0.6,0.9,1,1.4
		c0.8-0.8,1.3-0.5,2,0.3c0-0.4,0-0.7,0.1-1c0.1-0.3,0.4-0.5,0.7-0.9c0.5,1.3,0.9,2.5,1.4,3.6c0.1,0,0.2,0,0.3-0.1
		c-0.1-0.8-0.2-1.7-0.3-2.5c0-0.3,0.1-0.5,0.2-0.8c0.3,0.1,0.7,0,0.9,0.2c0.4,0.4,0.7,1,1.1,1.5c0.3,0.5,0.7,1,1,1.5
		C137,35.7,137.2,36,137.1,36.1z M142,36.7c-0.9-0.1-1.8-0.1-2.6-0.1c-1.2-0.1-1.5-0.4-1.7-1.6c-0.1-0.8-0.1-1.6-0.2-2.4
		c0-0.2-0.1-0.3-0.2-0.5c-0.1-0.3-0.3-0.5-0.4-0.8c0.4-0.1,0.7-0.3,1.1-0.2c0.3,0.1,0.5,0.4,0.6,0.7c0.4,1.1,0.7,2.3,1.1,3.4
		c0,0,0.1,0,0.5,0.1c-0.3-1.4-0.5-2.7-0.8-4.1c1,0.1,0.8,1.2,1.2,1.7c0.4,0.6,0.5,1.4,0.9,2.1c0.2-1,0.2-2-0.4-2.9
		c-0.2-0.3-0.2-0.6-0.2-0.9c0,0,0.4-0.3,0.6-0.2c0.3,0.1,0.6,0.4,0.7,0.7c0.4,1.3,0.8,2.6,1.1,3.9C143.3,36.5,142.9,36.8,142,36.7z
		 M142.1,28.4c0.4,0.7,0.8,1.3,1.2,2C142.4,30.2,141.9,29.5,142.1,28.4z M141.4,26.2c3.2-2.7,6.4-5.4,9.6-8.1
		C148.5,21.6,145.3,24.2,141.4,26.2z M144.6,26.1c-0.1-0.1-0.2-0.2-0.2-0.3c0.7-0.6,1.5-1.1,2.2-1.7c1.4-1.4,2.8-2.8,4.1-4.3
		c0.2-0.2,0.5-0.6,0.6-0.5c1.1,0.3,1.5-0.6,2.1-1.1c1.1-0.9,2.1-1.8,3.2-2.7c0.1,0.1,0.2,0.2,0.2,0.3c-0.3,0.2-0.5,0.5-0.8,0.7
		c-1.4,0.8-2.2,2.2-3.4,3.3c-1.7,1.6-3.5,3.1-5.3,4.5C146.6,25,145.6,25.5,144.6,26.1z M144.8,29.3c-0.1-0.3,0-0.8,0.2-0.8
		c0.3-0.1,0.8-0.1,1,0.1c0.4,0.5,0.7,1.1,1.1,1.8C145.4,30.6,145,30.4,144.8,29.3z M146.1,26.9c-0.1-0.1-0.2-0.2-0.3-0.2
		c0.2-0.2,0.3-0.5,0.5-0.6c2.3-1.4,4.2-3.2,6-5.2c1-1.2,2.5-2.1,3.8-3c1-0.7,2-1.3,3.2-1.9C154.8,19.4,151.1,23.9,146.1,26.9z
		 M147.4,28.5c0.4,0.5,0.9,1,1.4,1.7C147.6,30.4,147.4,30.1,147.4,28.5z M148.4,28.5c0.9-0.3,0.9-0.3,1.7,1.9
		C148.7,30.3,149,29.1,148.4,28.5z M149.2,26.1c2.8-2.6,5.5-5.3,8.8-7.3C155.3,21.5,152.8,24.4,149.2,26.1z M152,30.2
		c-0.1,0.1-0.3,0.2-0.5,0.2c-0.6,0-1.3-0.9-1.1-1.5c0.1-0.2,0.2-0.3,0.2-0.3C151.4,28.5,152.3,29.7,152,30.2z M151.7,26.1
		c2.6-2.6,5-5.1,8.3-7C159.3,20.6,153.1,25.8,151.7,26.1z M152.7,29.4c0-0.2,0.3-0.5,0.4-0.8c0.3,0.3,0.6,0.6,1.1,1
		c-0.5,0.4-0.7,0.6-0.9,0.9C153.1,30.1,152.8,29.8,152.7,29.4z M155.4,33.7c-1.2-0.3-1.9-1.2-1.8-2c0-0.2,0.3-0.5,0.5-0.6
		c0.1-0.1,0.5,0.1,0.5,0.2C154.9,32.1,155.1,32.8,155.4,33.7z M153.3,26.6c3.1-2.1,5.4-5.2,9-6.8C159.5,22.3,157.1,25.4,153.3,26.6z
		 M156.3,26.2c2.2-1.7,4.4-3.5,6.6-5.2c0.4-0.3,1-0.4,1.6-0.6c0.1,0.1,0.1,0.2,0.1,0.3c-0.8,0.6-1.6,1.1-2.3,1.7
		c-0.8,0.7-1.4,1.6-2.2,2.1c-1.4,1-2.9,1.7-4.4,2.6c0,0-0.2-0.1-0.3-0.2C155.7,26.7,156,26.5,156.3,26.2z M159.4,26.9
		C159.4,26.9,159.4,26.9,159.4,26.9c0.7-0.9,1.4-1.7,2.1-2.5c0.1,0.1,0.2,0.2,0.3,0.3C161,25.5,160.2,26.2,159.4,26.9z M159.9,30.5
		c-0.1,0.1-0.4,0-0.5-0.1c-0.3-0.5-0.6-0.9-0.9-1.4c0.1-0.1,0.3-0.2,0.4-0.3c0.4,0.5,0.8,0.9,1.1,1.4
		C160.1,30.1,160,30.5,159.9,30.5z M155.4,30.4c0.1-0.5,0.3-0.9,0.4-1.4c0.3,0.4,0.6,0.8,1.1,1.4C156.3,30.4,155.8,30.4,155.4,30.4z
		 M157.9,30.5c-0.3-0.3-0.5-0.6-0.7-0.9c-0.1-0.1,0-0.3-0.1-0.6c0.3,0.2,0.4,0.2,0.6,0.4c0.2,0.3,0.4,0.6,0.6,0.9
		C158.1,30.3,157.9,30.5,157.9,30.5z M158.9,34.5c-0.2-0.3-0.4-0.6-0.5-0.9c-0.2-0.6-0.3-1.1-0.3-1.7c0-0.2,0.1-0.4,0.2-0.6
		c0.2,0.1,0.6,0.2,0.7,0.4c0.3,0.6,0.4,1.2,0.6,2C159.4,33.9,159.2,34.2,158.9,34.5z M160.4,32.9c-0.3-0.4-0.5-0.9-0.8-1.4
		c0.3,0,0.4-0.1,0.4,0c0.3,0.4,0.5,0.9,0.8,1.3C160.6,32.8,160.4,32.9,160.4,32.9z M160.3,29.8c0.1-0.1,0.2-0.2,0.3-0.3
		c0.4,0.2,0.7,0.4,1.3,0.7c-0.4,0.2-0.8,0.5-0.9,0.4C160.8,30.5,160.6,30.1,160.3,29.8z M161.6,32.1c-0.1,0-0.3-0.3-0.5-0.4
		c0.2-0.1,0.3-0.4,0.5-0.4c0.2,0,0.4,0.2,0.9,0.3C162.1,31.9,161.9,32.1,161.6,32.1z M162.3,29c0.7,0.5,1.4,1,2.3,1.6
		C163.4,31.2,162.6,30.7,162.3,29z M160.5,27.3c1.1-0.2,1.6-1.4,2.8-1c0.2,0.1,0.7-0.2,0.9-0.4c0.7-0.5,1.3-1.1,1.9-1.6
		C164.8,26.9,162.3,28.3,160.5,27.3z M165.2,30.2c0-0.2,0.2-0.6,0.3-0.6c0.8,0,1.1,0.5,1.3,1.3C165.9,31.1,165.4,30.9,165.2,30.2z
		 M167.4,32.6c-0.4-0.1-0.9-0.3-1.3-0.4c0.1-0.2,0.1-0.5,0.2-0.4c0.5,0.1,0.9,0.2,1.4,0.3C167.5,32.2,167.4,32.4,167.4,32.6z
		 M168.6,31.3c-0.3-0.2-0.6-0.5-0.9-0.7c0,0,0.2-0.3,0.3-0.5c0.3,0.3,0.6,0.5,0.9,0.8C168.8,31,168.7,31.1,168.6,31.3z M170.6,38.5
		c0,0.1-0.4,0.2-0.5,0.1c-0.2-0.3-0.4-0.6-0.5-1c-0.3-1.1-0.5-2.2-0.7-3.4c-0.1-0.3,0.2-0.7,0.3-1c0.3,0.3,0.6,0.5,0.8,0.9
		c0.1,0.4,0,0.8,0,1.3c0,0-0.1,0.1-0.1,0.1c0.3,0.7,0.5,1.3,0.7,2C170.7,37.8,170.7,38.2,170.6,38.5z M171.3,35.2
		c-0.3-0.6-0.6-1.2-0.9-1.7c0.1-0.1,0.1-0.2,0.2-0.3c0.3,0.1,0.8,0.2,1,0.4C171.9,34.1,172.2,34.7,171.3,35.2z M172.9,38.1
		c0.1,0.3,0,0.6,0,0.9c-0.4-0.1-1-0.2-1-0.3c-0.2-0.9-0.3-1.8-0.3-2.7c0-0.1,0.3-0.2,0.5-0.4c0.1,0.3,0.2,0.5,0.3,0.7
		C172.6,36.8,172.7,37.4,172.9,38.1z M174,33c-0.5-0.1-1.1-0.2-1.6-0.3c0-0.1,0-0.3,0.1-0.4c0.6-0.3,1.1-0.3,1.6,0.3
		C174.1,32.8,174.1,32.9,174,33z M175,31.7c-0.2-0.2-0.4-0.4-0.5-0.7c0-0.1,0.3-0.4,0.4-0.4c0.3,0.1,0.5,0.3,0.9,0.6
		C175.3,31.5,175.1,31.7,175,31.7z M189.8,33.5c-0.8,0-1.5-0.1-1.9-1.1C189,32.1,189.5,32.4,189.8,33.5z M176.4,31.1
		c0.2-0.1,0.3-0.1,0.5-0.2c0.2,0.4,0.3,0.7,0.5,1.1c-0.2,0.1-0.5,0.2-0.5,0.2C176.7,31.8,176.6,31.4,176.4,31.1z M177.9,35.5
		c-0.3-0.4-0.6-0.7-0.6-0.9c0-0.1,0.4-0.6,0.5-0.5c0.3,0.1,0.6,0.4,0.9,0.6C178.4,34.9,178.2,35.1,177.9,35.5z M178.3,31.5
		c0-0.1,0.2-0.3,0.3-0.5c0.3,0.4,0.7,0.8,1.2,1.3C178.7,32.5,178.5,32,178.3,31.5z M179.8,34c-0.3-0.2-0.5-0.4-0.7-0.6
		c0.2-0.1,0.4-0.3,0.5-0.3c0.3,0.1,0.5,0.3,0.9,0.6C180.2,33.8,179.9,34,179.8,34z M181,32.4c-0.2-0.1-0.3-0.5-0.4-0.9
		c0.6,0,1-0.1,1.4,0c0.3,0.1,0.6,0.5,0.8,0.8c0.1,0.1-0.2,0.5-0.2,0.5C182,32.7,181.4,32.6,181,32.4z M182.5,34.6
		c-0.5-0.4-0.8-0.7-1.2-1.1c0.2-0.1,0.5-0.4,0.7-0.3c0.5,0.2,0.9,0.5,1.3,0.7C183.1,34.1,182.9,34.3,182.5,34.6z M183.4,31.4
		c0.5,0.6,0.9,1,1.4,1.6C183.4,33.1,183.2,32.8,183.4,31.4z M185,34.6c-0.3-0.2-0.7-0.4-1-0.6c0.1-0.2,0.3-0.5,0.4-0.4
		c0.4,0.2,0.7,0.4,1.1,0.6c0.1,0,0.1,0.2,0.1,0.4C185.4,34.6,185.1,34.7,185,34.6z M185.4,32.2c0.3-0.2,0.4-0.2,0.4-0.2
		c0.4,0.4,0.7,0.7,1.1,1.1c-0.1,0.1-0.4,0.3-0.4,0.3C186.2,33,185.8,32.6,185.4,32.2z M186.4,34.3c0.1-0.1,0.3-0.4,0.4-0.4
		c0.3,0.1,0.6,0.2,1.2,0.5c-0.5,0.3-0.8,0.5-1,0.5C186.8,34.8,186.6,34.5,186.4,34.3z M188.6,39.8c-0.1-0.2-0.2-0.4-0.2-0.5
		c-0.4-0.9-0.9-1.7-1.3-2.7c-0.1-0.3,0.1-0.7,0.1-1.1c0.3,0.1,0.8,0.2,0.9,0.4c0.2,0.5,0.3,1.1,0.4,1.7
		C188.5,38.3,188.6,39,188.6,39.8C188.6,39.7,188.6,39.7,188.6,39.8z M189.3,35.4c-0.3-0.4-0.5-0.6-0.8-0.9c0.2-0.1,0.5-0.4,0.7-0.3
		c0.3,0.1,0.6,0.4,0.8,0.6C189.9,34.9,189.6,35.1,189.3,35.4z M190.4,32.9c-0.1-0.1,0.1-0.4,0.2-0.6c0.1,0.1,0.3,0.1,0.4,0.2
		c0.2,0.3,0.5,0.5,0.7,0.8c0,0-0.4,0.4-0.4,0.4C190.9,33.5,190.6,33.3,190.4,32.9z M191.9,35.2c-0.4-0.2-0.8-0.3-1.1-0.5
		c0.1-0.2,0.2-0.4,0.3-0.6c0.4,0.2,0.7,0.4,1.1,0.7C192.2,34.8,191.9,35.2,191.9,35.2z M197.7,37.3c-0.2,0.5-0.6,0.8-1,1.2
		c-0.3-0.4-0.5-0.7-0.9-1.3c0.4-0.4,0.8-0.9,1-0.8C197.1,36.5,197.7,37.1,197.7,37.3z M197,35.8c-0.4-0.1-0.8-0.3-1.2-0.4
		c0.1-0.2,0.2-0.4,0.2-0.4c0.4,0.1,0.8,0.2,1.2,0.3C197.1,35.4,197.1,35.6,197,35.8z M195.7,33.1c0.4,0.3,0.7,0.7,1.1,1
		c-0.1,0.1-0.3,0.4-0.4,0.4c-0.6-0.1-1-0.4-0.9-1C195.5,33.3,195.6,33.2,195.7,33.1z M192.6,32.7c0.6,0.2,1.2,0.3,1.7,0.6
		c0.2,0.1,0.2,0.5,0.2,0.8c0,0.1-0.4,0.2-0.7,0.2C192.9,34.2,192.5,33.8,192.6,32.7z M193.1,35.1c0.2-0.2,0.5-0.4,0.8-0.7
		c0.4,0.3,0.6,0.5,0.9,0.7c-0.4,0.1-0.8,0.3-1.2,0.4C193.5,35.5,193.3,35.3,193.1,35.1z M194.6,38.2c-0.2-0.6-0.2-1.3-1-1.3
		c0,0,0-0.5-0.1-0.7c0.6,0.1,1.6,0,1.7,0.3c0.4,0.8,0.4,1.7,0.5,2.6c0,0.2-0.3,0.4-0.6,0.8C194.9,39.1,194.8,38.6,194.6,38.2z
		 M195.6,48.6c-0.2-1.5,0.1-1.7,1.6-1.1C196.6,47.9,196.2,48.2,195.6,48.6z M200.5,44.8c-0.5,0.4-1.1,0.9-1.5,1.3
		c-0.7,0.7-2.7,0.7-3.4-0.1c-0.1-0.2-0.2-0.4-0.2-0.6c-0.1-1.5-0.2-2.9-0.2-4.4c0-0.6,0.1-1,0.8-1.2c0.1,0.4,0.2,0.9,0.3,1.3
		c0.1,0,0.1,0,0.2,0c0-0.3,0.1-0.6,0-0.9c0-0.8,0.4-1.5,1.1-1.4c0.8,0.1,0.7,0.9,0.8,1.5c0,0.1-0.1,0.3-0.1,0.5
		c0.1,1.6,0.1,1.6-1,2.4c1.2,0.1,2.5,0.2,3.7,0.4c0-0.1,0.1-0.1,0.1-0.2c-3.1-0.6-2-3.1-2.3-4.9c-0.1-0.3,0.6-0.8,0.9-1.2
		c0.1,0,0.2,0.1,0.3,0.1c0.3,1.4,0.6,2.7,0.9,4.1c0.1,0,0.1,0,0.2,0c0.1-0.5,0.1-0.9,0.2-1.4c0.1,0,0.2,0,0.3-0.1
		c0.1,0.3,0.3,0.5,0.4,0.8C202.5,43.2,202.5,43.2,200.5,44.8z M201.1,39.3c-0.1-0.6-0.3-1.3-0.4-1.9c0-0.3,0.3-0.8,0.4-0.8
		c0.3,0,0.9,0.2,1,0.4c0.3,0.7,0.4,1.5,0.6,2.3C202.1,39.3,201.7,39.3,201.1,39.3z M206.8,36.7c0-0.1,0-0.2,0-0.3
		c0.6-0.2,1.2-0.3,1.6,0.6C207.9,36.8,207.3,36.7,206.8,36.7z M212.1,36.9c0.5,0.1,0.9,0.2,1.4,0.3c0,0.2-0.1,0.3-0.1,0.5
		c-0.5-0.1-0.9-0.2-1.4-0.3C212,37.2,212,37,212.1,36.9z M212.3,43.4c-0.1,0.3-0.3,0.7-0.5,1c-0.4-0.3-0.9-0.6-1-1
		c-0.3-1.6-0.5-3.2-0.7-4.8c0-0.2,0.2-0.5,0.4-0.8c0.4,0.2,1,0.4,1.1,0.7c0.4,1.4,0.5,2.9,0.8,4.3c0,0-0.1,0-0.1,0
		C212.3,43,212.3,43.3,212.3,43.4z M213.3,44c-0.1-0.1-0.2-0.1-0.4-0.2c-0.2-1.6-0.5-3.2-0.6-4.8c0-0.2,0.4-0.7,0.6-0.6
		c0.4,0,1,0.3,1.1,0.5c0.2,1.3,0.4,2.6,0.4,3.9C214.4,43.1,213.7,43.5,213.3,44z M214.8,37.2c0.4,0.1,0.8,0.2,1.1,0.3
		c0,0.2-0.1,0.4-0.1,0.5c-0.4-0.1-0.8-0.2-1.2-0.4C214.7,37.5,214.8,37.2,214.8,37.2z M215.9,39.8c-0.4,0.4-0.4,0.6-0.1,1.1
		c0.5,0.8,0.3,1.1-0.8,1.3c-0.1-1.1-0.2-2.2-0.3-3.4c0.4,0,0.7,0,1,0C216.3,38.8,216.4,39.3,215.9,39.8z M217.7,40.8
		c-0.3-0.7-0.6-1-0.7-1.4c0-0.2,0.2-0.4,0.4-0.6c0.3,0.3,0.7,0.5,0.9,0.9C218.3,39.9,218,40.2,217.7,40.8z M219.6,40.9
		c-0.2-0.3-0.4-0.6-0.5-0.9c0-0.2,0.2-0.4,0.3-0.6c0.2,0.2,0.5,0.4,0.9,0.8C220,40.5,219.8,40.7,219.6,40.9z M221.4,41
		c-0.3-0.3-0.6-0.6-1-0.9c0.3-0.3,0.5-0.5,0.6-0.7c0.3,0.3,0.6,0.6,0.8,1C221.9,40.5,221.6,40.8,221.4,41z M224,42.6
		c0-0.1,0.3-0.4,0.4-0.4c0.2,0,0.5,0.2,0.5,0.3c0.1,0.6,0,1.2,0,1.9c-0.2,0-0.3,0-0.5,0.1C224.3,43.8,224.1,43.2,224,42.6z
		 M225.3,46.3c-0.3,0-0.5-0.4-0.8-0.6c0.3-0.2,0.5-0.6,0.8-0.7c0.1-0.1,0.4,0.3,0.8,0.6C225.7,46,225.5,46.3,225.3,46.3z M227.1,42
		c-0.4-0.4-0.8-0.9-1.2-1.3c-0.1-0.1,0.1-0.5,0.2-0.5c0.3,0,0.7,0,0.8,0.2c0.2,0.4,0.3,1,0.4,1.4C227.3,41.9,227.2,42,227.1,42z
		 M227.4,39.3c0.1-0.1,0.2-0.3,0.3-0.4c0.3,0.2,0.7,0.4,1,0.7c-0.1,0.1-0.2,0.3-0.3,0.3C228.1,39.7,227.8,39.5,227.4,39.3z
		 M228.6,42c-0.2-0.4-0.5-0.8-0.6-1.2c-0.1-0.2,0.2-0.5,0.5-1c0.4,0.6,0.9,0.9,0.9,1.2C229.3,41.4,228.8,41.7,228.6,42z M232.5,42.7
		c-0.3-0.4-0.6-0.7-0.7-1.1c-0.1-0.1,0.3-0.4,0.4-0.6c0.3,0.3,0.6,0.6,1.1,1C233,42.3,232.8,42.5,232.5,42.7z M236.4,43
		c-0.2-0.2-0.3-0.5-0.4-0.8c0-0.2,0.2-0.5,0.3-0.6c0.1-0.1,0.4,0.1,0.6,0.2c0.1,0.1,0.2,0.2,0.3,0.4c0.3,0.8,0.6,1.5,1,2.4
		c-0.1,0.1-0.3,0.5-0.4,0.4c-0.2,0-0.6-0.3-0.6-0.5C237.3,43.8,236.9,43.4,236.4,43z M238.7,47.8c-1.1,0.2-1.5-0.1-1.4-1
		c0-0.3,0.4-0.7,0.7-0.8C238.6,45.9,238.8,46.5,238.7,47.8z M238.4,42.4c0-0.2,0.3-0.4,0.6-0.9c0.4,0.6,0.7,1,0.9,1.5
		c0,0.1-0.4,0.6-0.7,0.6C238.5,43.6,238.5,43,238.4,42.4z M240.7,45.4c0,0.1-0.3,0.4-0.6,0.7c-0.3-0.4-0.7-0.6-0.8-0.9
		c0-0.2,0.4-0.5,0.6-0.8C240.1,44.7,240.4,45,240.7,45.4z M240.1,47.9c-0.3-0.1-0.6-0.4-1.1-0.8c0.5-0.4,0.7-0.9,1-0.9
		c0.6-0.1,0.9,0.2,1,0.9C241,47.8,240.7,48.1,240.1,47.9z M241.4,44.6c0-0.3-0.3-0.6-0.5-1c-0.1-0.3-0.1-0.7-0.1-1
		c0.4,0.1,0.8,0.1,1,0.3c0.4,0.4,1.4,0.7,0.7,1.6c-0.1,0.1,0.3,0.4,0.5,0.7c0.2,0.5,0.2,0.9-0.3,1C241.8,46.1,241.3,45.4,241.4,44.6
		z M242.4,46.3c0.7,0,1.1,0.4,1.1,1.6c-0.1,0.1-0.4,0.5-0.6,0.6c-0.7,0.1-1.2-0.5-1.2-1.4C241.6,46.5,241.9,46.3,242.4,46.3z
		 M242.8,51.5c-0.5,0.3-0.8,0.2-0.9-0.5c0-0.6,0-1.2,0-2c0.6,0.2,1.4-0.4,1.6,0.7C243.8,50.6,243.5,51.1,242.8,51.5z M243.8,45.5
		c0.1-0.2,0.3-0.3,0.5-0.6c0.4,0.3,0.7,0.6,1,0.8c-0.2,0.2-0.4,0.5-0.5,0.5C244.4,46,244.1,45.7,243.8,45.5z M245.5,48.9
		c-0.2-0.6-0.4-1.1-0.6-1.7c0-0.1,0.1-0.3,0.1-0.5c0.2,0.1,0.5,0.1,0.5,0.2c0.1,0.6,0.2,1.3,0.3,1.9
		C245.7,48.9,245.6,48.9,245.5,48.9z M245.2,43.9c-0.4,0.3-0.7,0.6-1,0.8c-0.3-0.5-0.6-1-0.9-1.4c0.1-0.1,0.2-0.1,0.2-0.2
		c0.9,0.2,1.8,0.3,2.7,0.6c0.4,0.2,0.6,0.8,0.9,1.2c-0.1,0.1-0.2,0.2-0.4,0.4c0,0,0,0-0.1-0.1c0.3,0.5,0.5,0.8,0.6,1.1
		c0,0.1-0.4,0.4-0.4,0.3c-0.3-0.2-0.5-0.4-0.7-0.7c-0.1-0.1,0.2-0.4,0.4-0.8C246,44.7,245.6,44.3,245.2,43.9z M246.7,48.7
		c-0.2-0.1-0.3-0.1-0.5-0.2c0.1-0.5,0.1-1.1,0.2-1.6c0.4,0.1,0.8,0.2,1.1,0.3C247.3,47.7,247,48.2,246.7,48.7z M250.4,44.3
		c0.6,0.5,1,0.9,1.4,1.2c-0.2,0.2-0.5,0.6-0.5,0.5c-0.4-0.3-0.8-0.6-1.2-0.9C250,45,250.2,44.7,250.4,44.3z M247.6,44.9
		c0.2-0.2,0.4-0.5,0.5-0.5c0.4,0.1,0.8,0.4,1.2,0.6c-0.2,0.2-0.4,0.3-0.8,0.6C248.2,45.3,247.9,45.1,247.6,44.9z M248.1,45.9
		c0.6,0.1,1.1,0.1,1.7,0.2c0,0.2,0,0.4,0,0.6c-0.5,0-1,0.1-1.4,0C248.2,46.7,248.2,46.2,248.1,45.9z M250.3,52.9
		c-0.9,0.1-1.6-0.4-1.6-1.1c0-0.2,0-0.3,0.1-0.8c-0.1-0.5-0.2-1.3-0.3-2.1c0-0.3,0-0.8,0.2-0.9c0.4-0.2,0.9-0.3,1.4-0.4
		c0,0,0.2,0.5,0.3,0.8c0.2,1.1,0.4,2.2,0.5,3.3C250.8,52.2,251.1,52.8,250.3,52.9z M251.3,52.9c-0.1-1.6-0.2-3-0.4-4.4
		c0.1,0,0.2,0,0.3,0C252,49.5,252.2,52,251.3,52.9z M252.6,44.8c0.9,0.3,1.6,0.4,2.3,0.7c0.2,0.1,0.3,0.6,0.4,0.9
		c-0.3,0.1-0.8,0.3-1,0.1c-0.5-0.3-0.7-1-1.5-0.8c-0.1,0-0.3-0.3-0.3-0.5C252.4,45,252.6,44.8,252.6,44.8z M253,53.2
		c-0.1-0.1-0.4-0.3-0.4-0.4c0-0.7,0-1.3,0-2c0.1,0,0.3,0,0.4-0.1c0.1,0.7,0.3,1.4,0.4,2.1C253.4,52.9,253.1,53,253,53.2z
		 M253.3,48.1c0.1-0.1,0.3-0.1,0.4-0.2c0.2,0.5,0.5,1,0.7,1.6c0,0.1-0.2,0.4-0.3,0.6c-0.2-0.1-0.5-0.2-0.6-0.4
		C253.4,49.2,253.4,48.6,253.3,48.1z M254.5,52.5c-0.1,0-0.3,0.1-0.4,0.1c-0.2-0.5-0.3-1-0.4-1.5c0-0.1,0.3-0.4,0.4-0.3
		c0.2,0,0.5,0.2,0.5,0.3C254.5,51.6,254.5,52,254.5,52.5z M256.1,50.5c-0.4-0.2-1-0.3-1.1-0.6c-0.2-0.5-0.2-1.2-0.3-1.8
		c0.1,0,0.2,0,0.2,0c0-0.1-0.1-0.2-0.1-0.3c0-0.2-0.1-0.5-0.1-0.7c0.3,0.1,0.8,0.2,0.9,0.4c0.4,0.8,0.6,1.6,0.8,2.5
		C256.5,50.1,256.2,50.5,256.1,50.5z M260.3,48.2c-0.3,0.2-0.8,0.1-1.2,0.2c0-0.1,0-0.2-0.1-0.3c0.2-0.1,0.3-0.2,0.5-0.3
		c-0.1-0.1-0.2-0.2-0.2-0.2c-0.8-0.2-1.4-1-2.5-0.7c-0.2,0.1-0.6-0.7-0.9-1c0.1-0.1,0.1-0.2,0.2-0.3c1.2,0.2,2.5,0.4,3.7,0.7
		c0.2,0.1,0.4,0.4,0.6,0.6C261,47.4,260.7,47.9,260.3,48.2z M226.3,73.1c0.2-0.2,0.7,0,1,0.1c0.2,0,0.2,0.3,0.4,0.6
		c-0.4,0.2-0.7,0.3-0.9,0.3c-0.3,0.1-0.7,0.1-1,0.2C225.9,73.9,226,73.4,226.3,73.1z M220.1,75.2c-1,0.3-1.9,0.5-2.9,0.8
		c0-0.1-0.1-0.2-0.1-0.3c0.1-0.3,0.2-0.7,0.3-1c0.3-0.5,0.8-1.4,0.9-1.3c0.7,0.2,1.3,0.7,1.8,1.1C220.3,74.6,220.2,75.2,220.1,75.2z
		 M222.4,74.9c-0.9-0.1-1.7-1.1-2.6-1.7c0-0.2,0.1-0.3,0.1-0.4c0.6-0.1,1.2-0.2,1.8-0.3c0.8-0.2,1.6-0.4,2.5-0.5
		c0.4-0.1,0.8,0.1,1.2,0.1c-0.1,0.4-0.1,0.7-0.2,1.1C225,74.8,223.5,75,222.4,74.9z M224.6,76.7c0.3-0.6,0.4-1.3,0.8-1.6
		c1-0.6,2.2-0.7,3.4-0.3C228,76.9,226.9,77.4,224.6,76.7z M230.5,77.7c-0.6,0.3-1.4,0.2-2.1,0.3c-0.1-0.1-0.2-0.2-0.2-0.3
		c0.5-0.7,0.8-1.5,1.4-2c0.8-0.6,1.2,0.3,1.5,0.8C231.2,76.7,230.8,77.6,230.5,77.7z M230.8,75c-0.4-0.4-0.5-0.7-0.2-1.2
		c0.5-0.6,0.9-1.3,1.4-1.9c0.1-0.1,0.5-0.3,0.6-0.2c0.7,0.5,1.3,1,1.9,1.5c0.1,0.1,0.1,0.2,0.1,0.4c-0.3,0.4-0.7,0.8-1.1,1.3
		C232.5,76.1,231.9,76.1,230.8,75z M236.6,76.2c-0.9,0.4-1.9,0.7-2.9,1c-0.1-1,1-3,1.6-3c0.6,0,1.2,0.5,1.7,0.9
		C237.2,75.2,236.9,76.1,236.6,76.2z M247.6,67.5c0.9-0.2,1.9-0.3,2.9-0.4c0.2,0,0.4,0.2,0.7,0.4c-0.6,0.9-1.2,1.6-1.8,2.3
		c0,0.1-0.4,0-0.5-0.1c-0.5-0.4-1-0.9-1.5-1.4C246.9,68,247.2,67.6,247.6,67.5z M241.1,75.2c-0.4,0.7-0.9,0.6-1.4,0.2
		c-0.2-0.2-0.3-0.6-0.2-0.8c0.4-0.9,0.9-1.7,1.5-2.5c0.2-0.3,0.7-0.6,0.8-0.5c0.5,0.2,0.9,0.7,1.4,1.1c-0.5,0.7-0.9,1.2-1.3,1.7
		C241.6,74.6,241.3,74.9,241.1,75.2z M245,75.1c-0.7,0.2-1.4,0.4-2.3,0.6c-0.1,0-0.4-0.1-0.4-0.2c-0.1-0.1,0.1-0.4,0.2-0.6
		c0.2-0.3,0.4-0.5,0.7-0.7c0.3-0.3,0.7-0.8,0.9-0.7c0.5,0.2,0.9,0.6,1.3,1C245.4,74.5,245.2,75,245,75.1z M246.7,73.7
		c-0.1,0.1-0.6,0-0.8-0.1c-0.4-0.3-0.8-0.6-1.4-1c0.7-1.2,1.4-2.4,2.2-3.7c0.8,0.7,1.5,1.4,2.1,2C248.1,71.9,247.4,72.8,246.7,73.7z
		 M247.6,74c0.7-0.9,1.2-1.7,1.8-2.4c0.1-0.1,0.4-0.1,0.5,0c0.1,0.1,0.3,0.4,0.2,0.6C250,72.7,248.5,73.8,247.6,74z M249.7,74.2
		c0.5-0.7,0.9-1.7,2-1.3c0.2,0.1,0.4,0.4,0.4,0.6C251.9,74.3,250.6,74.7,249.7,74.2z M253.9,73c0-0.2-0.1-0.5,0-0.7
		c0.3-0.6,0.7-1.1,1.1-1.6c0.5-0.6,0.9-0.3,1.6,0.3c-0.8,0.7-1.4,1.3-2.1,1.9C254.3,73,254.1,73,253.9,73z M257.6,72.4
		c-0.5,0.5-1.1,0.9-1.8,1.4c-0.1-1,0.6-2.1,1.3-2.1c0.2,0,0.4,0.1,0.5,0.2C257.7,72,257.7,72.4,257.6,72.4z M318.4,68.6
		c1.5,0.3,3,0.7,4.5,1c0.1,0,0.3,0.1,0.4,0.4c-0.4-0.1-0.8-0.2-1.2-0.2c-3-0.4-6-0.7-9-1.1c-1.2-0.2-2.4-0.4-3.6-0.7
		c-0.3-0.1-0.6-0.2-0.9-0.3c0-0.1,0-0.3,0-0.4c0.4-0.1,0.8-0.3,1.2-0.3c1.2,0.2,2.5,0.6,3.7,0.8C315.1,68.1,316.7,68.3,318.4,68.6z
		 M323,72.5c-1.1,1.2-2.3,1-3.6,0.7c-1.5-0.4-3.1-0.5-4.6-0.7c-1-0.1-1.8-0.6-2.6-1.6C316,71.5,319.5,72,323,72.5z M309.6,69.1
		c3.8,0.4,7.5,1,11.2,1.8C317,70.9,313.3,70.2,309.6,69.1z M317,66.9c0,0.2-0.1,0.3-0.1,0.5c-3.2-0.5-6.5-1.1-9.7-1.6
		c0-0.1,0-0.2,0-0.2C310.6,65.6,313.9,65.3,317,66.9z M292.3,61.8c0.2-0.2,0.4-0.5,0.7-0.7c0.2-0.2,0.4-0.3,0.7-0.5
		c0.1,0.2,0.3,0.5,0.4,0.7c0.1,0.5,0.2,0.9,0.4,1.4c0.1,0,0.2,0,0.3,0c0-1.1,0-2.2,0-3.4c0.1,0,0.3,0,0.4,0c0,1.3,0,2.7,0,4
		c0.1,0,0.3,0,0.4,0c0-3.2,0-6.5,0-9.9c1.9,3.5,0.7,7.2,1.1,10.9c-1.9-0.2-3.5-0.9-5.1-1.9C291.9,62.2,292.1,62,292.3,61.8z
		 M291.6,61.2c0-0.4-0.1-0.9-0.1-1.3c0-0.1,0.6-0.1,0.9-0.2c-0.1,0.5-0.2,1-0.2,1.5C292,61.2,291.8,61.2,291.6,61.2z M294.2,54
		c0.6,1.3,1.1,2.7,0.6,4.1c-0.1,0-0.2,0-0.3,0C294.5,56.8,294.4,55.4,294.2,54z M306.6,67.1c0,0.1,0,0.3,0,0.4c-0.3,0-0.7,0.2-1,0.1
		c-2.1-0.3-4.1-0.7-6.1-1.1c-1.6-0.3-3.1-0.6-4.7-0.9c-0.1,0-0.3-0.1-0.3-0.3C298.6,65.6,302.6,66.4,306.6,67.1z M306.4,65.2
		c0,0.2,0,0.4-0.1,0.6c-2.7-0.1-5.3-0.8-8-1.3c0-0.1,0-0.3,0.1-0.4C301.1,64.5,303.8,64.8,306.4,65.2z M299,58.1c0,1.1,0,2.1,0,3.2
		C298.1,60.3,298.8,59.2,299,58.1z M306.4,63.5c-0.8,0.6-4.9,0.2-6.2-0.6C302.2,63.1,304.2,63.3,306.4,63.5z M301.5,61.8
		c0-0.1,0-0.2,0-0.3c1.3-0.2,2.5-0.5,3.8-0.1c0.2,0.1,0.3,0.3,0.4,0.5c-0.2,0.1-0.3,0.4-0.5,0.4C304,62.1,302.8,61.9,301.5,61.8z
		 M301.1,68c1,0.1,2,0.2,3.1,0.3c1,0.2,2,0.3,3,0.6c0.4,0.1,0.6,0.5,1,0.7c-0.1,0.1-0.1,0.2-0.2,0.3c-2.3-0.6-4.5-1.1-6.8-1.7
		C301.1,68.2,301.1,68.1,301.1,68z M314.8,56.6c-2,1.1-3.9,2.1-6.3,1.6c0-0.1,0-0.2-0.1-0.3C310.5,57.5,312.7,57.1,314.8,56.6z
		 M310.9,54.3c0.3-0.8,2.4-1.3,3.5-0.9C313.4,54.7,312,54,310.9,54.3z M309.7,60.6c2.2-0.4,4.1,0,4.4,1c-1.2,0.6-2.4,0-3.6-0.1
		C309.8,61.5,309.7,61.3,309.7,60.6z M309.1,59.6c0-0.1,0-0.2,0-0.4c1.3-0.2,2.6-0.5,3.9-0.6c0.2,0,0.5,0.3,0.7,0.5
		c-0.2,0.2-0.5,0.6-0.7,0.6C311.7,59.7,310.4,59.7,309.1,59.6z M313.8,63.3c-2,0-4,0-5.8-0.8C310.4,62.3,313.5,62.7,313.8,63.3z
		 M315.9,65c0,0.1,0,0.2-0.1,0.4c-2.2-0.4-4.4-0.9-6.7-1.3C310.6,63.8,315,64.4,315.9,65z M317.2,50.8c-3.3,2.1-7.3,2.2-10.9,3.4
		c0-0.1-0.1-0.2-0.1-0.3C309.9,52.8,313.6,51.8,317.2,50.8z M308.5,56.8c0.4,0,0.9-0.4,1-0.6c0.1-0.7,0.6-0.8,1.1-0.9
		c0.4,0,0.8,0,1.2-0.1c0.8-0.2,1.1,0.2,1.1,1.1c-0.8,0.2-1.5,0.3-2.2,0.5c-2,0.5-4,1-6.1,1.3c-0.7,0.1-1.5-0.1-2.2,0
		c-0.4,0-1,0.3-1.1,0.5c-0.1,0.6,0.4,0.6,0.9,0.7c1.2,0.1,2.4,0.2,3.6,0.4c0.2,0,0.3,0.4,0.5,0.5c-0.2,0.1-0.4,0.4-0.7,0.3
		c-1.3-0.1-2.5-0.3-3.8-0.3c-1.3-0.1-1.5,0.1-1.4,1.4c-0.7-0.2-0.8-0.3-0.6-1.6c0.1-0.7,0.2-1.4,0.4-2.2c0.8-0.1,1.7-0.3,2.6-0.4
		C304.7,57.1,306.6,57,308.5,56.8z M302.8,54.6c0,0.1,0,0.2,0,0.3c-0.5,0.1-0.9,0.1-1.4,0.2c-0.5,0.1-1.1,0.1-1.6,0.4
		c-0.4,0.2-0.7,0.8-1.1,1.3c-0.1-0.3-0.1-0.4-0.2-0.6c-0.2-0.2-0.3-0.5-0.5-0.7c-0.2,0.3-0.5,0.6-0.5,0.9c0.1,1.4,0.4,2.7,0.5,4.1
		c0,0.7-0.2,1.5-0.4,2.2c0,0.2-0.4,0.2-0.6,0.4c-0.1-0.2-0.2-0.4-0.2-0.6c0.3-2.5,0.8-5,0.2-7.6c0-0.2,0.1-0.4,0.1-0.6
		c0.6,0.9,1.4,0.6,2.1,0.6C300.5,54.9,301.6,54.7,302.8,54.6z M320.6,42.6c-1,0.4-1.9,0.9-2.9,1.3c-1.2,0.4-2.3,0.8-3.5,1.2
		c-2.2,0.7-4.4,1.5-6.6,2.3c-0.4,0.2-0.8,0.5-1.2,0.8c0.4-0.1,0.8-0.1,1.2-0.2c3.5-1.2,6.9-2.4,10.4-3.6c0.5-0.2,0.8-0.5,1.3-0.6
		c0.2-0.1,0.6,0,0.8,0c-0.1,0.3-0.1,0.7-0.2,0.9c-0.6,0.4-1.2,0.7-1.8,1c0,0,0,0,0,0c1.3-0.3,2.6-0.6,3.8-1c0.1,0.1,0.1,0.2,0.2,0.3
		c-0.3,0.2-0.6,0.6-1,0.7c-1.4,0.5-2.8,0.9-4.2,1.3c-1.5,0.5-3.1,1-4.6,1.4c0,0-0.1,0-0.1,0c-1.7,0-3.2,0.7-4.8,1.1
		c-0.8,0.2-1.5,0.5-2.4,0.5c0.4-0.2,0.8-0.5,1.2-0.6c1.3-0.5,2.7-0.9,4-1.3c0.3-0.1,0.6-0.1,1-0.1c2.1-0.6,4.2-1.1,6.3-1.7
		c0.3-0.1,0.5-0.4,0.7-0.6c0,0,0,0,0,0c0,0,0,0,0,0c0,0,0,0,0,0c-4.5,1.2-8.9,2.4-13.4,3.6c0-0.1,0-0.1-0.1-0.2
		c0.6-0.3,1.1-0.6,1.7-0.9c-1.4,0.4-2.7,0.7-4.1,1.1c-0.1,0-0.3,0.1-0.4,0.1c-0.4-0.1-0.7-0.2-1-0.2c0.3-0.2,0.6-0.5,0.9-0.6
		c2.1-0.7,4.2-1.4,6.3-2.1c2.3-0.8,4.6-1.6,6.9-2.4c1.4-0.5,2.9-1,4.3-1.5c0.3-0.1,0.7-0.1,1.1-0.2
		C320.6,42.3,320.6,42.4,320.6,42.6z M306.9,45c0.5-0.1,1-0.4,1.5-0.6c0.9-0.3,1.8-0.5,2.6-0.8c2.5-0.9,5.1-1.7,7.6-2.6
		c0.3-0.1,0.7-0.1,1-0.2c0.1,0.1,0.1,0.3,0.2,0.4c-0.4,0.3-0.9,0.7-1.3,0.9c-2,0.7-4,1.3-5.9,2c-2.3,0.8-4.5,1.8-6.7,2.6
		c-0.4,0.1-1.1,0.1-1.3-0.1c-0.5-0.7-1-0.3-1.4,0c-0.9,0.5-1.8,0.6-2.7,0.3C302.5,46.2,304.6,45.2,306.9,45z M299.3,47.3
		c0,0.1,0,0.2,0,0.3c-1.1,0.2-2.2,0.4-3.3,0.7c0-0.1-0.1-0.3-0.1-0.4C297.1,47.7,298.2,47.5,299.3,47.3z M294.9,51.1
		c2,0.1,3.7-0.8,5.6-1.3c0.6-0.2,0.9-0.1,1.2,0.7c-2.6,0.5-5,1.4-7.6,1.4c0-0.1-0.1-0.2-0.1-0.3C294.3,51.4,294.6,51.1,294.9,51.1z
		 M293.6,58.8c-0.3-0.4-0.6-0.7-0.6-0.9c-0.3-2.1-0.5-4.2-0.6-6.3C293.3,53.8,294,56.1,293.6,58.8z M290.6,51.6
		c0.2,0.1,0.6,0.2,0.7,0.4c0.5,2.1,1,4.2,1.5,6.4c-0.3,0.2-0.5,0.5-0.7,0.7c-0.2-0.3-0.6-0.5-0.6-0.8c-0.2-1.4-0.2-2.9-0.4-4.4
		c-0.1-0.6-0.5-1.1-0.6-1.7C290.3,52.1,290.5,51.8,290.6,51.6z M291.1,60.9c0,0.3-0.3,0.6-0.5,1c-0.4-0.3-0.9-0.7-1.3-1
		c0.3-0.3,0.6-0.6,1.1-1C290.6,60.3,291,60.6,291.1,60.9z M289.3,53.9c0.3,0.5,0.7,0.9,1.1,1.6c-0.4,0.3-0.7,0.5-0.9,0.7
		c-0.2-0.4-0.5-0.8-0.6-1.2C288.9,54.6,289.2,54.2,289.3,53.9z M290.5,57.1c0.1,0.5,0.3,1,0.4,1.6c0.2,0.9-0.6,1-1.1,1.2
		c-0.1,0.1-0.7-0.5-0.8-0.9C288.7,57.8,289.1,57.4,290.5,57.1z M288.6,61.6c-0.1,0.9-0.2,1.6-0.3,2.3c0,0.2-0.4,0.3-0.5,0.5
		c-0.1-0.2-0.3-0.4-0.4-0.7c0-0.6-0.1-1.2,0-1.8c0.1-0.4,0.3-0.8,0.5-1.2C288.1,61,288.4,61.3,288.6,61.6z M287.9,60.1
		c-0.2-0.2-0.4-0.4-0.7-0.7c0.3-0.5,0.5-0.8,0.8-1.2c0.2,0.4,0.5,0.7,0.5,1.1C288.5,59.6,288.1,59.9,287.9,60.1z M288.3,56.1
		c0.2,0.6,0,1-0.9,1c0.1-0.4,0.3-0.9,0.4-1.3C287.9,55.9,288.2,56,288.3,56.1z M287.8,53.7c0.1,0.5,0.2,1.1,0.2,1.6
		c-0.1,0-0.2,0.1-0.4,0.1c-0.2-0.6-0.4-1.1-0.6-1.7c0-0.1,0.2-0.4,0.2-0.4C287.5,53.5,287.8,53.6,287.8,53.7z M286.5,50.2
		c0.3,0.7,0.7,1.4,1,2.1c-0.2,0.1-0.3,0.1-0.5,0.2c-0.3-0.7-0.6-1.5-0.8-2.2C286.3,50.3,286.4,50.2,286.5,50.2z M286.2,61.1
		c0.2,0,0.4,0,0.5-0.1c0.1,0.9,0.2,1.7,0.3,2.6c-0.1,0-0.3,0-0.4,0C285.7,62.9,286.5,62,286.2,61.1z M286.2,55.8
		c0.2,0,0.5,0.2,0.5,0.3c0,0.8,0,1.7,0,2.5c-0.2,0-0.3,0-0.5,0c-0.1-0.8-0.2-1.6-0.3-2.3C285.9,56.1,286.1,55.8,286.2,55.8z
		 M285.5,52.4c-0.4-0.8-0.8-1.5-1.2-2.3C285.4,50.5,286,51.5,285.5,52.4z M283.8,60.3c0-0.7,0-1.4,0-2.1c0-0.5-0.1-1-0.1-1.5
		c0-0.3,0.3-0.8,0.3-0.8c0.4,0.1,1.1,0.2,1.2,0.5c0.3,0.7,0.3,1.5,0.3,2.2C285.6,59.5,285.1,60,283.8,60.3z M285.5,61.1
		c0.1,1.6-1.2,3.8-2.4,4.3c0-0.1-0.1-0.3-0.1-0.4c0.9-0.8,0.5-2.2,1.2-3.1C284.5,61.6,285,61.5,285.5,61.1z M283.6,54.7
		c0.2-0.1,0.5-0.4,0.7-0.4c0.3,0,0.6,0.3,0.8,0.5c0.1,0.2-0.1,0.5-0.2,0.8C284.2,55.1,283.9,54.9,283.6,54.7z M284.7,53.6
		c-0.5-0.2-1-0.4-1.5-0.6C284.1,52.5,284.6,52.6,284.7,53.6z M282.7,50.3c0.2,0.3,0.5,0.7,0.7,1c-0.1,0.1-0.2,0.2-0.4,0.2
		c-0.2-0.4-0.4-0.8-0.7-1.2C282.6,50.4,282.6,50.3,282.7,50.3z M281.1,54.4c0,0.2-0.6,0.5-0.9,0.5c-0.6,0.1-1.3,0-1.2-0.8
		c0-0.2,0.4-0.5,0.5-0.6C280.3,53.6,281.1,53.5,281.1,54.4z M280.8,52.7c0,0.2-0.4,0.6-0.6,0.6c-0.5-0.1-1.4,0.2-1.3-0.7
		c0-0.3,0.6-0.6,1.1-1.1C280.5,52,280.8,52.3,280.8,52.7z M277.9,49.2c0.7,0.4,1.3,0.7,1.9,1c0.2,0.1,0.1,0.5,0.2,0.8
		c-0.3,0-0.6,0.1-0.8,0C278.6,50.7,277.8,50.5,277.9,49.2z M277.4,53.3c1,0.2,1.2,1.2,0.7,2c0.1,0.6,0.3,1,0.3,1.3
		c-0.2,0.9-0.8,1.3-1.9,1.6c0-1.6,0-3,0-4.5C276.6,53.5,277.2,53.2,277.4,53.3z M275.7,48.9c0.4,0.3,0.9,0.6,1.3,0.9
		c0.1,0.1,0.2,0.4,0.1,0.5c-0.1,0.1-0.5,0.3-0.6,0.2c-0.4-0.4-0.8-0.8-1.2-1.2C275.4,49.2,275.5,49,275.7,48.9z M275.8,54.2
		c0.1,1.1,0.2,2.3,0.3,3.4c0.1,1.1-0.7,1.7-1.2,2.5c-0.1,0-0.2-0.1-0.3-0.1c-0.1-1-0.2-1.9-0.2-2.9c0-0.9,0-1.8,0-2.7
		c0-0.7,0.4-1,1-1.1C276,53.2,275.7,53.8,275.8,54.2z M275.6,51.8c-0.4,0.3-0.6,0.5-0.8,0.7c-0.2-0.3-0.6-0.6-0.7-1
		c0-0.1,0.4-0.4,0.6-0.6C274.9,51.1,275.2,51.4,275.6,51.8z M274.1,48.8c0.2,0.3,0.4,0.7,0.6,1c-0.1,0.1-0.3,0.2-0.4,0.3
		c-0.2-0.3-0.4-0.6-0.6-0.9C273.6,49.1,273.9,48.9,274.1,48.8z M272.3,61.8c-0.1-0.8-0.2-1.5-0.3-2.3c0-1,0.1-1.9,0-2.9
		c-0.1-1,0.3-1.7,1.4-2.1c0.9,1.1,0.5,2.5,0.5,3.8C273.8,59.6,274.2,61,272.3,61.8z M272.5,52.7c0.3,0,0.6,0.2,0.9,0.3
		c-0.3,0.4-0.7,0.9-1,1.3c-0.1-0.1-0.2-0.2-0.4-0.3C272,53.5,271.5,52.9,272.5,52.7z M272.5,52.6c-0.3-0.5-0.6-0.9-0.7-1.3
		c0-0.2,0.3-0.4,0.5-0.6c0.4,0.4,0.8,0.7,1.2,1.1C273.3,52,273,52.2,272.5,52.6z M272,48.5c0.4,0.3,0.6,0.7,0.9,1.1
		c-0.1,0.1-0.2,0.2-0.3,0.4c-0.5-0.2-1-0.3-1.3-0.6c-0.2-0.2-0.1-0.6-0.2-0.9C271.4,48.4,271.8,48.3,272,48.5z M269.9,55.7
		c-0.2-0.8-0.3-1.5-0.4-2.3c-0.1-0.4-0.4-1,0.4-1c0.6,0,1.3,0,1.4,0.8C271.6,54.8,271.6,54.8,269.9,55.7z M271.3,51.5
		c-0.4,0.2-0.6,0.5-0.7,0.5c-0.5-0.2-1.2-0.3-1.3-0.6c-0.2-0.7,0.5-1,1.1-0.9C270.7,50.4,270.9,51,271.3,51.5z M268.2,48.1
		c0-0.2,0.5-0.5,0.6-0.4c0.5,0.3,1,0.6,1.4,0.9c0,0.1-0.1,0.2-0.1,0.4c-0.2,0.1-0.4,0.2-0.6,0.3C268.9,49.3,268.1,48.6,268.2,48.1z
		 M267.9,55.3c0-0.2,0.4-0.5,0.5-0.5c0.3,0.1,0.6,0.3,0.7,0.5c0.4,1,0,1.6-1.2,2.2C267.9,56.7,267.8,56,267.9,55.3z M267.8,53.8
		c-0.1-0.6,0-1.2,0-1.8c1.1,0.4,1.5,1,1.2,1.9c-0.1,0.2-0.5,0.4-0.8,0.6C268.1,54.2,267.9,54,267.8,53.8z M263.2,47.4
		c-0.8,0.8-1.3,0.7-1.6,0c-0.2-0.5-0.1-0.9,0.5-0.8c0.9,0.1,1.9,0.3,2.7,0.6c0.3,0.1,0.5,0.7,0.8,1.1
		C264.4,48.6,263.7,48.2,263.2,47.4z M264.3,49.7c0.1-0.2,0.3-0.5,0.5-0.8c0.2,0.2,0.4,0.4,0.6,0.7c0.3,0.4,0.7,0.9,0.8,1.4
		c0.1,0.4-0.1,1-0.4,1.3c-0.4,0.4-0.9,0.4-1-0.4C264.6,51.2,264.5,50.5,264.3,49.7z M264.9,54.1c0-0.2-0.1-0.3-0.1-0.5
		c0.5-0.3,1-0.5,1.5-0.8c0.1,0.4,0.2,0.8,0.3,1.2C266,54,265.5,54,264.9,54.1z M266.7,48.7c-0.5-0.3-0.8-0.8-1.2-1.3
		c0.1-0.1,0.1-0.2,0.2-0.3c0.6,0.2,1.3,0.3,1.9,0.5c0,0.1,0.1,0.2,0.1,0.3C267.4,48.2,266.8,48.7,266.7,48.7z M267,50.9
		c0.1-0.5,0.1-1.1,0.2-1.6c0.2,0,0.4,0,0.6,0c0.1,0.5,0.2,1,0.3,1.5C267.6,50.8,267.3,50.8,267,50.9z M261.1,73
		c-0.2,0-0.4-0.2-0.7-0.4c0.8-0.9,1.5-1.7,2.2-2.4c0.1-0.1,0.4-0.1,0.5-0.1c0.2,0.1,0.3,0.3,0.3,0.5C263.6,71.5,261.9,73.1,261.1,73
		z M264.6,72.1c-0.4,0.4-0.9,0.7-1.3,1c-0.1-0.1-0.2-0.2-0.3-0.3c0.3-0.4,0.6-0.9,0.9-1.3c0.1-0.1,0.4-0.1,0.6-0.1
		C264.6,71.7,264.7,72,264.6,72.1z M265,70.6c-0.2-0.2-0.2-0.6-0.1-0.9c0.3-0.7,0.7-1.4,1-2.2c0-0.1,0.1-0.3,0-0.4
		c-0.7-0.5-0.2-1.1-0.1-1.6c0.3-1.5,0.7-2.9,1-4.4c0.1-0.3,0.2-0.5,0.4-1.1c0.3,0.6,0.4,1,0.6,1.5c0-0.9,0.1-1.5,0-2.2
		c-0.1-1.1,0.1-1.4,1.3-1.8c0,1,0,2,0,3.1c0.6-1.6-0.5-3.9,2.1-4.9c0.2,2.1,0.5,4-0.4,5.9c-0.8,1.7-1.4,3.6-2.4,5.3
		c-0.7,1.3-1.8,2.4-2.7,3.6C265.7,70.8,265.2,70.7,265,70.6z M266.8,71.7c-0.1-0.1-0.2-0.2-0.3-0.3c0.5-0.8,1.1-1.7,1.6-2.5
		c0.4-0.7,0.7-1.6,1.1-2.3c0.2-0.4,0.5-0.7,0.8-1.1c0.2-0.3,0.5-0.5,0.6-0.8c0.3-0.9,0.8-1.3,1.5-1.2c0.5-0.6,0.9-1.1,1.3-1.6
		c0.1,0,0.2,0,0.3,0c0.1,0.4,0.1,0.8,0.2,1.3c0.2-0.1,0.4-0.2,0.7-0.3c-1.2-1.7,0.3-2.1,1.4-3c0,1.1,0,1.9,0,2.7
		c0,0,0.1,0.1,0.2,0.1c1.6-0.1,1.6-0.1,1.2,1.5c-0.1,0.3-0.2,0.6-0.4,0.9c-0.4,0.7-0.8,0.8-1.4,0.2c-0.9-0.9-1.4-0.7-1.9,0.5
		c-0.4,0.8-0.9,1.6-1.5,2.3c-0.1,0.2-0.5,0.1-0.8,0.2c-0.1-0.3-0.2-0.7-0.1-0.9c0.3-0.7,0.7-1.5,1-2.2c-0.1,0-0.1,0-0.2-0.1
		c-0.7,0.8-1.7,1.5-1.9,2.4c-0.4,1.5-1.5,2.5-2.4,3.6C267.5,71.3,267.1,71.4,266.8,71.7z M268,72.1c0.8-1,1.5-2,2.3-3
		c0.1-0.1,0.4-0.2,0.6-0.1c0.1,0.1,0.2,0.4,0.2,0.5c-0.5,0.9-1,1.8-1.6,2.5C269,72.6,268.8,72.6,268,72.1z M272.5,71.3
		c-0.5,0.4-0.9,1.2-2,0.6c0.4-0.6,0.7-1.1,1.2-1.5c0.2-0.2,0.6,0,1,0C272.6,70.6,272.7,71.1,272.5,71.3z M273.7,69.9
		c-0.4-0.2-0.8-0.6-1.2-1c0.3-0.5,0.4-0.8,0.6-1c0.4-0.7,0.8-1.4,1.1-2.1c0.3-0.6,0.5-0.7,1-0.3c1.1,0.9,1.1,1.4,0.3,2.5
		c-0.3,0.5-0.6,1-1,1.4C274.4,69.7,273.9,70,273.7,69.9z M276.7,67.7c0.1-0.1,0.5-0.2,0.6-0.1c0.2,0.1,0.5,0.4,0.5,0.6
		c0.1,0.6-1.8,2.5-2.9,2.5C275.6,69.5,276.1,68.6,276.7,67.7z M279,69.7c-0.7,0.6-1.4,1.1-2.1,1.6c0,0-0.1-0.1-0.1-0.1
		c0.5-0.7,1-1.4,1.6-2.1c0.1-0.2,0.5-0.2,0.7-0.2C279.1,69.2,279.2,69.6,279,69.7z M280.6,70.5c-0.3,0.3-0.7,0.6-1,0.9
		c-0.1-0.1-0.1-0.1-0.2-0.2c0-0.1,0-0.3,0.1-0.3c0.3-0.3,0.7-0.5,1-0.8C280.5,70.2,280.6,70.5,280.6,70.5z M279.7,68.2
		c0-0.4,0-0.7,0.1-1.1c0.1-0.6,0.3-1.2,0.5-1.8c0,0,0,0,0,0c0,0,0,0,0,0c-0.4,0.5-0.7,1-1.2,1.4c-0.3,0.2-0.8,0.4-1,0.3
		c-0.3-0.2-0.7-0.8-0.6-1.1c0.3-1.1,0.8-2.2,1.4-3.2c0,0.3,0,0.6,0,0.9c0.1,0,0.2,0,0.3,0c0.1-0.8,0.2-1.7,0.2-2.4
		c-0.7,0.4-1.3,0.7-1.9,1c-0.2,0.1-0.7-0.2-0.7-0.3c-0.1-0.9-0.4-1.9-0.1-2.7c0.2-0.6,1.2-0.9,2-1.4c0.1,1,0.1,1.7,0.2,2.4
		c0.1,0,0.2,0,0.3,0c0.1-0.6,0.2-1.2,0.2-1.8c0-1.3,0.4-1.8,1.9-2.2c0.1,1,0.2,2.1,0.3,3.1c0.1,0,0.3,0,0.4,0c0-0.9,0-1.8,0-2.7
		c0-0.3,0.3-0.6,0.5-0.9c0.2,0.3,0.6,0.6,0.6,0.9c0.2,1.3,0.2,2.5,0.3,3.8c0,0.8-0.5,1-1.7,0.7c-0.5,1.4-1,2.9-1.4,4.4c0,0,0,0,0,0
		c0,0,0,0,0,0c0.8-0.6,1.4-1.5,1.8-2.4c0.1-0.3,0.5-0.5,0.8-0.7c0.1,0.3,0.2,0.6,0.3,0.9c0,0.2,0.1,0.4,0,0.5c-1.4,1-1.1,3-2.4,4.1
		C280.4,68,280,68.1,279.7,68.2z M281.1,69.2c0-0.2-0.1-0.4,0-0.5c0.4-0.8,0.9-1.5,1.5-2.5c0.2,0.5,0.4,0.9,0.3,1
		c-0.4,0.7-0.9,1.3-1.4,2C281.5,69.2,281.3,69.2,281.1,69.2z M284.4,69.1c-0.4,0.5-0.9,0.8-1.4,1.3c-0.6-1-0.1-2.5,0.7-2.7
		c0.2,0,0.6,0.2,0.7,0.3C284.6,68.4,284.6,68.9,284.4,69.1z M284.8,67c-0.2-0.3-0.4-0.6-0.4-0.9c0.2-0.6,0.5-1.3,0.7-1.9
		c0.1-0.1,0.4-0.2,0.5-0.2c0.3,0.2,0.7,0.6,1,0.9c-0.5,0.8-0.8,1.5-1.3,2.1C285.3,67.2,284.9,67.1,284.8,67z M286.4,71.1
		c-0.3,0.7-0.7,0.5-1.2,0.1c0.1-0.2,0.1-0.5,0.3-0.6c0.3-0.3,0.7-0.5,1.1-0.8C286.5,70.3,286.6,70.7,286.4,71.1z M286.2,67.9
		c-0.1,0-0.2-0.1-0.3-0.1c0.3-0.7,0.6-1.5,0.9-2.2c0-0.1,0.3-0.2,0.4-0.2c0.1,0,0.3,0.3,0.3,0.4C287.3,66.6,286.9,67.4,286.2,67.9z
		 M287.2,68.9c-0.1-0.2-0.2-0.4-0.2-0.6c0.4-0.7,0.8-1.4,1.2-2.1c0.1,0,0.3,0,0.4,0c0,0.3,0.2,0.7,0,1c-0.3,0.5-0.6,1-1,1.4
		C287.6,68.8,287.4,68.9,287.2,68.9z M290.7,68.6c-0.1,0.2-0.1,0.5-0.1,0.8c-0.8,0-1.4,0.1-2.3,0.1c0.3-0.6,0.4-1.1,0.7-1.5
		c0.2-0.3,0.7-0.7,0.9-0.6C290.4,67.5,290.9,67.9,290.7,68.6z M291.3,66.6c-1.5-0.3-1.5-0.2-1.1-1.8c-0.4,0.3-0.7,0.5-0.9,0.8
		c-0.1,0-0.2-0.1-0.3-0.1c0.1-1.1,0.3-2.2,0.4-3.3c0.1,0,0.2,0,0.4-0.1c0.7,0.8,1.7,1.5,1.6,2.9c0.1-0.4,0.1-0.9,0.2-1.6
		c0.9,0.7,1.7,1.3,2.7,2.1C292.9,65.6,292.6,66.9,291.3,66.6z M293.4,69.7c4.5-0.1,8.7,1.2,13,2.2c0,0.2-0.1,0.3-0.1,0.5
		C302,71.5,297.7,70.6,293.4,69.7z M301.8,72.8c0-0.1,0-0.2,0-0.3c2.2,0.5,4.4,0.9,6.6,1.4c0,0.1-0.1,0.3-0.1,0.4
		C306.1,74.3,304,73.3,301.8,72.8z M305.3,74.8c2,0.5,4,1.1,6,1.6C309.1,76.7,307.1,76.3,305.3,74.8z M310.5,74.6c0-0.1,0-0.2,0-0.3
		c0.3,0,0.7,0,1,0.1c2.8,0.6,5.5,1.2,8.3,1.8c1.8,0.4,3.6,0.8,5.3,1.3c0.2,0,0.3,0.2,0.5,0.3C325,78.3,313.4,75.9,310.5,74.6z
		 M309.6,73.1c0.8-1.2,1.7-0.5,2.3-0.4c1.6,0.2,3.2,0.7,4.8,1c1.4,0.3,2.9,0.4,4.3,0.7c0.5,0.1,1,0.5,1.5,0.6
		c1.6,0.3,3.3,0.5,4.9,0.9c1.2,0.3,2.2,0.9,3.3,1.5C323.8,76,316.7,74.5,309.6,73.1z"/>
	<path class="st0" d="M80,31.8C80,31.8,80,31.8,80,31.8C80,31.8,80,31.8,80,31.8C80,31.8,80,31.8,80,31.8C80,31.8,80,31.8,80,31.8z"
		/>
	<path class="st0" d="M240,68.6C240,68.6,240,68.6,240,68.6C240,68.6,240,68.6,240,68.6C240,68.6,240,68.6,240,68.6z"/>
	<polygon class="st0" points="318.2,45.6 318.2,45.6 318.2,45.6 	"/>
	<path class="st0" d="M91.6,74.4c0,0.3,0,0.6,0.1,0.8c0.3,0.5,0.7,0.9,1,1.3c0.1,0.2,0.1,0.6,0,0.7c-0.4,0.3-0.7,0.5-1.1,0.7h1.5
		c0.2-0.1,0.3-0.2,0.5-0.2c0,0.1,0,0.2,0.1,0.2h0.8c-0.8-1.1-1.5-2.2-2.3-3.2C92.2,74.7,91.9,74.6,91.6,74.4z"/>
	<path class="st0" d="M118.2,78.1h0.6C118.6,78.1,118.4,78.1,118.2,78.1C118.2,78.1,118.2,78.1,118.2,78.1z"/>
	<path class="st0" d="M246.5,45.1C246.5,45.1,246.5,45.1,246.5,45.1C246.5,45.1,246.5,45.1,246.5,45.1
		C246.5,45.1,246.5,45.1,246.5,45.1z"/>
	<path class="st0" d="M99.6,76.9c-0.8-1.1-1.6-2.3-2.5-3.4c-0.2-0.2-0.5-0.3-0.8-0.4c0.1,0.3,0.1,0.6,0.2,0.8c1.2,1.5,1.1,2-0.6,3.1
		c-0.5,0.3-0.9,0.7-1.4,1h1.2c0.5-0.4,1-0.8,1.5-1.1c0.3-0.2,0.9-0.5,1.1-0.4c0.5,0.3,0.9,0.9,1.3,1.3c0,0.1,0,0.1-0.1,0.2h1.1
		c0,0,0,0,0,0C100.5,77.6,99.9,77.4,99.6,76.9z"/>
	<path class="st0" d="M159.6,75.1c-0.3,0.3-0.8,0.7-0.8,1c0.1,0.7,0,1.4-0.2,2h0.9c0.1-0.7,0.3-1.3,0.4-2
		C160.1,75.8,159.8,75.5,159.6,75.1z"/>
	<path class="st0" d="M122.2,77c0.4-1.3,1-2.6,1.5-3.9c0-0.1,0.1-0.2,0.1-0.4c-0.1-1,0-1,1-0.9c1.5,0.1,3,0,4.6-0.2
		c-1-0.1-2-0.2-3-0.2c-0.4,0-0.8,0-1.3,0c-0.9,0-1.5-0.3-1.4-1.3c0-0.5-0.1-1-0.9-0.9c0,0.8,0.5,1.9-1,1.8c0.1,0.2,0.1,0.3,0.2,0.4
		c0.9,0.6,1.1,1.5,0.7,2.5c-0.2,0.7-0.2,1.6-0.7,2c-0.8,0.7-1.3,1.3-1,2.3h1.4C122.2,77.7,122.1,77.3,122.2,77z"/>
	<path class="st0" d="M114.6,77.9c0.5,0,0.9,0,1.4-0.1c-1.2-0.3-2.5-0.1-3.1-1.1c-1,0-1.9,0.1-2.8,0.1c-0.8,0-1.6-0.1-2.4-0.2
		c-0.8-0.1-1.5-0.9-2.5-0.4c-0.2,0.1-0.6-0.2-0.8-0.5c-0.7-0.9-1.3-1.9-1.9-2.9c-0.2-0.3-0.5-0.6-0.9-0.8c-0.2,1.5,1.1,2.2,1.5,3.5
		c-0.1,0.1-0.3,0.3-0.5,0.6c0.7,0.3,1.3,0.5,1.9,0.7c0,0.1,0,0.2,0.1,0.3c-0.4,0.3-0.8,0.6-1.2,0.9h1.2c0,0,0.1-0.1,0.1-0.1
		c0.1,0,0.2,0,0.3,0.1h0.9c-0.2-0.3-0.4-0.6-0.6-0.9c0.5-0.1,0.8-0.3,1.1-0.3c1.3,0.1,2.5,0.4,3.8,0.5c0.5,0.1,0.7,0.4,0.4,0.7h0.8
		c0.2-0.1,0.4-0.2,0.5-0.3C112.7,77.5,113.7,77.9,114.6,77.9z"/>
	<path class="st0" d="M280.2,65.4C280.2,65.4,280.2,65.4,280.2,65.4C280.2,65.4,280.2,65.4,280.2,65.4
		C280.2,65.4,280.2,65.4,280.2,65.4C280.2,65.4,280.2,65.4,280.2,65.4z"/>
	<path class="st0" d="M134.3,27c0.2-0.3,0.5-0.5,0.7-0.8c-0.4,0.3-0.8,0.5-1,0.5C134.1,26.8,134.2,26.9,134.3,27z"/>
	<path class="st0" d="M190.4,78.1h1.1c-0.4-0.1-0.7-0.2-1.1-0.4C190.5,77.8,190.5,78,190.4,78.1z"/>
	<path class="st0" d="M185.7,73.2c0.2-0.8,0-1.1-0.4-1.1c-0.5,1.2-0.9,2.2-1.3,3.3c-0.3,0.9-0.5,1.8-0.8,2.6h0.8
		c0.1-0.2,0.2-0.5,0.3-0.7C184.8,76,185.3,74.6,185.7,73.2z"/>
	<path class="st0" d="M173.5,77c-0.2,0.3-0.2,0.8-0.5,1.1h0.5c0.1-0.4,0.1-0.9,0.2-1.3C173.7,76.9,173.6,76.9,173.5,77z"/>
	<path class="st0" d="M180.4,73.8c0.2-1,0.5-2,0.8-3.1c-0.4-0.4-2.5-0.2-3.4,0.8c0.5-0.1,0.8-0.1,1.1-0.2c0.6-0.2,1,0,0.9,0.7
		c-0.3,2.1-0.4,4.3-1.6,6.1h1.2c0.3-1,0.5-1.9,0.8-2.9C180.3,74.8,180.3,74.3,180.4,73.8z"/>
	<path class="st0" d="M170.2,75.8c0-0.2,0.1-0.5,0-0.7c-0.1-0.3-0.3-0.6-0.5-0.9c-0.2,0.3-0.5,0.5-0.5,0.8c-0.3,1-0.5,2-0.8,3h0.8
		c0.1-0.3,0.3-0.5,0.5-0.8c0.3,0.2,0.6,0.4,0.9,0.6c0.1,0.1,0.2,0.1,0.3,0.2h0.6C170.6,77.6,170.1,76.6,170.2,75.8z"/>
	<path class="st0" d="M55.6,62.9c0.4-0.5,0.7-1,1.1-1.5c0.7-0.8,1.4-1.6,2-2.4c1.1-1.4,1.2-3.1,1.1-4.8c0-0.4-0.3-0.9-0.7-1.2
		c-1.7-1.2-2.9-2.9-3.7-4.8c-0.7-1.5-1.2-3-2-4.3c-0.6-1.1-1.4-2.2-2.4-3.1c-1.7-1.5-3.8-1.1-5.2,0.7C44.9,42.8,44,44,43,45.1
		c-0.2,0.2-0.7,0.2-1.1,0.3c0.1-0.4,0.1-0.8,0.3-1.1c1.1-1.4,2.2-2.9,3.4-4.2c1.4-1.6,5.1-2.2,6.8,0.1c1.8,2.5,3.1,5.3,4.6,8
		c0.7,1.3,1.3,2.6,2.7,3.4c1.3,0.7,1.4,2.3,1.3,3.6c-0.1,1.2-0.6,2.5-1.2,3.6c-0.9,1.5-2,2.8-3.1,4.1c-0.2,0.2-0.6,0.2-0.8,0.3
		C55.7,63.2,55.6,63,55.6,62.9z"/>
	<path class="st0" d="M59.9,39.9c0.6,1.5,1.1,2.9,1.6,4.4c0.2,0.7,0.3,1.4,0.4,2.1c-0.9,0.1-0.9-0.5-1.1-1c-0.4-1.3-0.9-2.5-1.4-3.8
		c-0.1,0-0.3,0.1-0.4,0.1c0.4,1.8,0.9,3.5,1.3,5.3c-0.2,0.1-0.4,0.1-0.6,0.2c-0.3-0.9-0.6-1.7-0.9-2.6c-0.5-1.4-0.9-2.8-1.5-4.1
		c-0.4-0.8-1.3-1.3-2-1.9c-0.2-0.1-0.3-0.3-0.5-0.4c0.2-0.2,0.3-0.4,0.5-0.5c0.2-0.1,0.4-0.1,0.6-0.1c1.4-0.6,1.6-0.5,2.6,0.8
		C59,38.9,59.5,39.4,59.9,39.9C60,39.9,59.9,39.9,59.9,39.9z"/>
	<path class="st0" d="M146.5,42.8c1.2-0.4,2.7,0.2,3.7-0.9c0.9-0.9,2.1-1.4,3.1-2c0.1,0.1,0.1,0.2,0.2,0.3c-0.6,0.5-1.3,1.1-1.9,1.7
		c-2.2,2-4.4,4-6.5,6c-0.8,0.8-1.5,1.7-2.3,2.5c-1.1,1.1-0.8,2.3-0.5,3.5c0.2,1.2,0.3,2.4,0.4,3.6c-1-0.7-0.8-1.9-1.1-2.8
		c-0.2-0.6-0.3-1.2-0.5-1.8c-0.1-0.2-0.5-0.3-0.7-0.4c0.2-0.9,0.4-1.9,0.6-3.1c0.7,1.3,1.2,0.9,1.8,0.2c1.2-1.3,2.4-2.7,3.6-4
		c0.5-0.6,1.2-1,1.8-1.5c0.2-0.2,0.3-0.6,0.5-0.9c-0.3,0-0.6-0.1-1-0.1c-0.4,0-0.8,0-1.2,0C146.5,43,146.5,42.9,146.5,42.8z"/>
	<path class="st0" d="M44.2,62.7c2.1-1.7,3.3-3.7,3-6.6c-0.3,0.3-0.7,0.6-0.7,1c-0.2,1.7-1.5,2.8-2.3,4.1c-0.3,0.5-0.7,0.9-1.1,1.3
		c-0.1-0.1-0.1-0.1-0.2-0.2c1.5-2.5,2.9-5.1,4.4-7.6c-0.1-0.1-0.2-0.1-0.3-0.2c-0.4,0.6-0.9,1.2-1.3,1.8c-0.1-0.1-0.3-0.2-0.4-0.4
		c0.4-0.7,0.7-1.3,1.1-2c-0.1-0.1-0.2-0.1-0.3-0.2c-0.5,0.6-1.1,1.1-1.6,1.7c-0.1-0.1-0.2-0.1-0.3-0.2c0-0.2,0-0.4,0.1-0.5
		c0.9-0.9,1.2-2.1,1.6-3.3c0.1-0.2,0.3-0.3,0.4-0.5c0.1,0.2,0.3,0.5,0.3,0.7c0.3,0.8,0.6,1.6,0.9,2.5c0,0.1,0.1,0.1,0.1,0.1
		c0.1,1.1,0.5,2.2,0.3,3.1c-0.2,1.3-0.8,2.6-1.4,3.8C46.1,62,45.3,62.6,44.2,62.7z"/>
	<path class="st0" d="M65.5,57.5c-0.1-0.5-0.2-0.9-0.2-1.4c0-1.6-0.3-3.2-1.1-4.6c-0.1-0.2,0-0.5,0-0.7c0.3,0.1,0.6,0,0.8,0.2
		c0.3,0.4,0.5,1,0.7,1.4c0.1,0,0.2,0,0.3-0.1c-0.3-1-0.5-2-0.8-2.9c-0.1-0.4-0.2-0.9-0.3-1.3c0.3,0.3,0.7,0.6,1,1
		c1.1,1.6,0.9,3.6,1.3,5.4c0.1,0.6,0.1,1.5-0.9,1.9c-0.3,0.1-0.3,0.7-0.5,1.1C65.7,57.5,65.6,57.5,65.5,57.5z"/>
	<path class="st0" d="M194.2,69.9c-0.5,0.1-1.2,0.2-1.7,0.3c0.2-0.7,0.5-1.3,0.6-1.9c0.1-0.5,0-1.1-0.1-1.7c-0.1-0.9-0.3-1-1.2-0.5
		c0.1-0.2,0-0.4,0.1-0.6c0.9-1.1,0.4-2.2,0-3.3c-0.1-0.2,0-0.5,0-0.7c0.3,0.1,0.6,0.1,0.8,0.3c0.4,0.3,0.7,0.8,1,1.1
		c0.3-0.4,0.7-0.8,1-1.2c0.2-0.2,0.3-0.4,0.5-0.5c0.2-0.1,0.5,0,0.8,0c-0.1,0.2-0.1,0.5-0.2,0.7c-0.5,0.6-1,1.3-1.6,1.9
		c-0.6,0.6-0.7,1.2-0.6,2c0.1,0.8,0,1.5,0.1,2.3C193.9,68.7,194,69.3,194.2,69.9z"/>
	<path class="st0" d="M206,60.2c0.1-0.5,0.5-1-0.2-1.7c0,0,0.4-0.6,0.4-0.6c1.4,0.6,1.8-0.8,2.6-1.4c0.6-0.5,1-0.8,1.9-0.4
		c-1,0.8-1.8,1.6-2.7,2.3c-0.6,0.4-0.9,0.8-0.7,1.6c0.2,1.1,0.2,2.3,0.2,3.5c0,0.3-0.1,0.5-0.2,0.8c-0.1,0-0.2,0-0.3,0
		c-0.2-1-0.3-2-0.5-3C206.5,60.9,206.2,60.5,206,60.2z"/>
	<path class="st0" d="M75.2,48.1c-0.1,1.7-0.2,3.3-0.4,4.9c0,0.3-0.5,0.5-0.8,0.8c-0.1-0.3-0.3-0.7-0.2-0.9c0.5-1.1,0.6-2.3,0.4-3.5
		c-0.1-1.1-0.5-2.1-0.7-3.2c-0.1-0.3-0.2-0.6-0.2-0.8c0-0.2,0.2-0.4,0.3-0.6c0.2,0.1,0.6,0.2,0.6,0.4C74.6,46.1,74.9,47.2,75.2,48.1
		z"/>
	<path class="st0" d="M67.6,54.3c0-0.8,0.1-1.7,0-2.5c-0.2-1.9-0.6-3.9-1.7-5.5c-0.1-0.1,0-0.4,0.1-0.7c0.2,0.1,0.6,0.1,0.7,0.3
		c0.4,0.9,1,1.8,1.2,2.8c0.3,1.6,0.4,3.2,0.5,4.7c0,0.3-0.2,0.6-0.3,1C67.9,54.3,67.7,54.3,67.6,54.3z"/>
	<path class="st0" d="M137.5,71.6c-0.1,0-0.5,0.4-0.5,0.6c-0.1,0.4,0.1,0.9,0,1.3c-0.3,1.5-0.7,3-1,4.5h0.7c1-1.9,1.3-3.9,1.5-6
		C138.2,72,137.8,71.7,137.5,71.6z"/>
	<path class="st0" d="M64.6,56.8c0,0,0,0.2-0.1,0.4c-0.2,0.3-0.4,0.7-0.6,1c-0.1-0.4-0.2-0.8-0.3-1.2c-0.3-1.8-0.1-3.6-1.1-5.3
		c-0.2-0.3-0.3-0.6-0.4-0.9c0.2-0.1,0.4-0.3,0.5-0.2c0.3,0.2,0.8,0.5,0.9,0.8c0.4,1.3,0.6,2.6,0.9,3.9
		C64.5,55.7,64.5,56.2,64.6,56.8z"/>
	<path class="st0" d="M69.3,54.9c0-0.4-0.1-0.8-0.1-1.1c0.1-1.4,0.5-2.9,0.4-4.3c-0.1-1.1-0.6-2.1-0.9-3.1c-0.1-0.4-0.2-0.9-0.2-1.4
		c0.4,0.3,1,0.6,1,1c0.3,1.5,0.5,3.1,0.6,4.7c0.1,1.1-0.1,2.2-0.2,3.3c0,0.3-0.1,0.7-0.2,1C69.6,54.9,69.4,54.9,69.3,54.9z"/>
	<path class="st0" d="M89,44.1c0.4,1.2,1.1,2.2,0.3,3.6c-0.3,0.4-0.1,1.1-0.2,1.6c-0.1,0.4-0.2,0.8-0.4,1.2c-0.1,0-0.2,0-0.3,0
		c-0.1-0.3-0.2-0.5-0.3-0.8c-0.1-1.3-0.2-2.6-0.2-4c0-0.3,0.2-0.6,0.3-0.8C88.4,44.6,88.7,44.4,89,44.1z"/>
	<path class="st0" d="M70.3,44.7c2.1,0.5,3.3,7.3,1.7,9.3c-0.1-0.6-0.3-1.1-0.2-1.5c0.4-2-0.2-4-0.5-5.9
		C71.2,45.9,70.7,45.4,70.3,44.7z"/>
	<path class="st0" d="M77.4,47.6c-0.1,1.4-0.2,2.8-0.4,4.2c0,0.2-0.2,0.5-0.4,0.7c-0.1-0.2-0.3-0.5-0.3-0.7c0-0.5,0.1-1,0.1-1.6
		c-0.1-1.4-0.3-2.8-0.3-4.2c0-0.4,0.1-1,0.2-1c0.7-0.2,0.7,0.4,0.8,0.8c0.1,0.5,0.1,1.1,0.2,1.6C77.3,47.6,77.3,47.6,77.4,47.6z"/>
	<path class="st0" d="M115,76.8c0.3-2.7,1.5-5.3,0.9-8.2c0.8,0.2,1.2,0.6,1.1,1.3c-0.2,1.4-0.5,2.8-0.8,4.2
		c-0.1,0.6-0.3,1.2-0.5,1.9c-0.1,0.3-0.3,0.7-0.5,1C115.3,76.9,115.1,76.8,115,76.8z"/>
	<path class="st0" d="M79.6,46.6c-0.2,1.6-0.3,3-0.5,4.4c0,0.2-0.4,0.4-0.6,0.7c-0.1-0.3-0.2-0.6-0.2-0.8c0-1.7,0.6-3.5,0-5.2
		c-0.1-0.2,0.2-0.5,0.3-0.8c0.2,0.2,0.5,0.3,0.6,0.6C79.4,45.8,79.5,46.3,79.6,46.6z"/>
	<path class="st0" d="M144.7,73.5c-0.2-0.2-0.4-0.4-0.6-0.6c-0.1,0.2-0.3,0.4-0.3,0.6c-0.1,0.6,0,1.3-0.1,1.9
		c-0.2,0.9-0.4,1.7-0.6,2.6h0.8c0.4-1.3,0.8-2.7,0.9-4.1C144.8,73.9,144.8,73.7,144.7,73.5z"/>
	<path class="st0" d="M131.7,71.6c-0.3,1.2-0.5,2.1-0.8,3.1c-0.3,0.9-0.7,1.8-1,2.8c-0.2,0-0.3-0.1-0.5-0.1c0.2-0.9,0.4-1.9,0.7-2.8
		c0.3-1,0.7-2-0.2-2.8C130.5,70.6,130.5,70.6,131.7,71.6z"/>
	<path class="st0" d="M151.4,74.3c-0.1,0.3-0.4,0.5-0.4,0.8c0.2,1.1,0.1,2.1-0.2,3.1h0.8c0.2-1,0.4-2,0.4-3.1
		C152,74.8,151.6,74.5,151.4,74.3z"/>
	<path class="st0" d="M56.5,52.4c1.9,0.6,2.4,1.7,1.3,3.1c-0.1,0.1-0.3,0.2-0.6,0.4c0.1-0.7,0.2-1.2,0.3-1.8c-0.1,0-0.2-0.1-0.3-0.1
		c-0.3,0.6-0.6,1.1-0.9,1.7C55.8,55.4,55.8,55.4,56.5,52.4z"/>
	<path class="st0" d="M50.9,60.2c-0.1-0.4-0.4-0.8-0.3-1.2c0.4-1.6,0.9-3.1,1.4-4.7c0.1-0.2,0.4-0.3,0.6-0.5
		c0.1,0.3,0.2,0.5,0.2,0.8c-0.5,1.8-1,3.6-1.5,5.3C51.3,60,51.2,60.1,50.9,60.2z"/>
	<path class="st0" d="M123.3,52.1c0.8,0.8,1.9,5.5,1.5,6.4C124,57.8,122.8,52.9,123.3,52.1z"/>
	<path class="st0" d="M91.6,46.9c-0.1,0.8-0.1,1.6-0.3,2.4c0,0.2-0.3,0.4-0.5,0.4c-0.1,0-0.4-0.2-0.4-0.4c0-1.3,0-2.7,0-4
		c0-0.1,0.2-0.3,0.3-0.4c0.2,0,0.4,0.1,0.5,0.2c0.2,0.5,0.4,1.1,0.6,1.7C91.7,46.8,91.6,46.8,91.6,46.9z"/>
	<path class="st0" d="M219.9,63.5c-0.1-0.4-0.1-0.7-0.2-1.1c-0.2-1.7-0.5-3.4-0.6-5.2c0-0.2,0.2-0.4,0.3-0.7
		c0.2,0.2,0.5,0.4,0.5,0.6c0.1,1.4,0.1,2.9,0.2,4.3c0,0.6,0.1,1.3,0.1,1.9C220.1,63.5,220,63.5,219.9,63.5z"/>
	<path class="st0" d="M109.9,74.7c0.2-0.9,0.5-1.7,0.6-2.6c0.2-1.6,0.3-3.1,0.5-4.7c0-0.2,0.2-0.4,0.3-0.6c0.1,0.2,0.4,0.4,0.4,0.6
		c-0.1,2.5-0.7,4.9-1.5,7.2c0,0.1-0.1,0.2-0.2,0.4C110,74.9,109.9,74.8,109.9,74.7z"/>
	<path class="st0" d="M258.5,57.6c-0.2,1-0.3,2.1-0.5,3.1c1.2,0.1,2.2,0.1,3.3,0.2c0,0.1,0,0.2,0,0.3c-0.3,0.1-0.6,0.1-0.8,0.2
		c-0.7,0.1-1.4,0.3-2.1,0.4c-0.2,0-0.7-0.2-0.7-0.3c0.1-1.3,0.2-2.6,0.3-3.9C258.1,57.6,258.3,57.6,258.5,57.6z"/>
	<path class="st0" d="M42.6,55.2c0.5-1,1.1-1.9,1.4-2.8c0.3-0.9,0.5-2,0.8-3.1c0.6,0,0.8,0.6,0.7,1.1c-0.4,1.8-1,3.4-2.5,4.7
		C43,55.1,42.9,55.1,42.6,55.2z"/>
	<path class="st0" d="M49.8,41.2c-0.9,0.7-1.9,1.2-2.7,2c-0.8,0.8-1.5,1.8-2.2,2.7C45.1,43.8,48.1,40.6,49.8,41.2z"/>
	<path class="st0" d="M180.2,55.8c0.7,0.8,0.6,4.3,0,5.3C179.9,59.3,179.5,57.7,180.2,55.8z"/>
	<path class="st0" d="M41.2,54.1c0.1-0.3,0.1-0.6,0.2-0.8c0.5-1.3,1-2.6,1.5-4c0.1-0.2,0.3-0.3,0.4-0.5c0.1,0.2,0.4,0.3,0.4,0.5
		C43.9,50.1,42.1,53.7,41.2,54.1z"/>
	<path class="st0" d="M191.3,76.6c0.2-0.5,0.3-1,0.5-1.5c0.3-0.7,0.7-1.3,1.1-2c0.1-0.2,0.4-0.3,0.6-0.5c0.1,0.2,0.3,0.5,0.3,0.7
		c0,0.3-0.2,0.7-0.4,1c-0.6,0.8-1.2,1.6-1.8,2.3C191.5,76.6,191.4,76.6,191.3,76.6z"/>
	<path class="st0" d="M173,52.7c0,2.1,0,4.1,0,6C172.3,57.8,172.4,53.3,173,52.7z"/>
	<path class="st0" d="M41.8,61.8c0.7-1.7,1.4-3.2,2-4.8c0.1-0.1,0.3-0.2,0.4-0.3c0.1,0.1,0.3,0.3,0.3,0.4c0,0.3,0,0.5-0.1,0.8
		c-0.6,1.2-1.3,2.3-2,3.5C42.3,61.5,42.1,61.6,41.8,61.8z"/>
	<path class="st0" d="M35.8,51.7c0.1-0.4,0.2-0.7,0.3-1c0.6,0.6,0.5,1.6-0.2,2.5c-0.5,0-1,0-1.4,0c0.2-0.7,0.5-1.4,0.8-2.2
		C35.4,51.3,35.6,51.4,35.8,51.7z"/>
	<path class="st0" d="M198.3,69.6c0.5-0.9,2-1,4.8-0.4C201.4,69.4,199.9,70.1,198.3,69.6z"/>
	<path class="st0" d="M38.9,60.3c0.4-0.6,0.8-1,1-1.6c0.3-0.6,0.5-1.3,0.7-1.9c0.1-0.2,0.3-0.3,0.5-0.5c0.1,0.2,0.3,0.3,0.4,0.5
		c0.1,0.8-1.5,3.3-2.2,3.6C39.2,60.5,39.2,60.5,38.9,60.3z"/>
	<path class="st0" d="M43.1,56.3c0,1.8-1.1,4-2.2,4.3c0.5-1.4,1-2.7,1.6-4.1C42.5,56.4,42.8,56.4,43.1,56.3z"/>
	<path class="st0" d="M55.6,53.7c-0.2,0.9-0.3,1.7-0.5,2.4c-0.1,0.2-0.3,0.3-0.5,0.5c-0.1-0.2-0.2-0.5-0.2-0.7
		c0-0.6,0.2-1.3,0.2-1.9c0-0.4-0.2-1,0.4-0.9C55.2,53,55.5,53.5,55.6,53.7z"/>
	<path class="st0" d="M257.6,67.9c0-0.3,0-0.5,0-0.8c0.1-0.9,0.3-1.8,0.5-2.7c0-0.1,0-0.3,0.1-0.4c0.2-0.3,0.5-0.6,0.7-0.9
		c0,0.4,0.1,0.7,0,1.1c-0.3,1.3-0.6,2.5-0.9,3.7C257.9,68,257.8,67.9,257.6,67.9z"/>
	<path class="st0" d="M50.4,42.3c-1.1,0.9-2.1,1.7-3.1,2.5C47.1,43.5,48.7,42,50.4,42.3z"/>
	<path class="st0" d="M38.2,59.3c0-0.2-0.1-0.3,0-0.4c0.4-0.9,0.9-1.9,1.3-2.8c0.1-0.1,0.3-0.2,0.4-0.3c0.1,0.2,0.3,0.3,0.3,0.5
		C40.3,57.1,39.1,58.9,38.2,59.3z"/>
	<path class="st0" d="M39.8,54.2c0.2-0.4,0.5-0.8,0.6-1.3c0.2-0.7,0.3-1.4,0.4-2.1c0-0.2,0.2-0.4,0.3-0.6c0.2,0.2,0.4,0.3,0.5,0.5
		C41.9,51.9,41.3,53.2,39.8,54.2z"/>
	<path class="st0" d="M48.5,61.3c-0.5,0.6-1,1.2-1.5,1.8c-0.2,0.2-0.5,0.3-0.9,0.7c0.8-1.5,1.5-2.7,2.2-3.9c0.1,0,0.1,0,0.2,0
		C48.5,60.4,48.5,60.9,48.5,61.3L48.5,61.3z"/>
	<path class="st0" d="M38.2,54.2c0.2-0.6,0.4-1.2,0.5-1.8c0.1-0.4,0.1-0.8,0.2-1.1c0.1-0.2,0.2-0.5,0.3-0.7c0.2,0.2,0.5,0.4,0.5,0.6
		c0,0.4-0.1,0.8-0.2,1.1c-0.3,0.7-0.6,1.4-0.9,2C38.4,54.3,38.3,54.3,38.2,54.2z"/>
	<path class="st0" d="M227.9,59.3c0.5,1.4-0.1,2.6-0.2,3.8C227,62.4,227.1,60.6,227.9,59.3z"/>
	<path class="st0" d="M247.2,63.1c-1.3,0.3-2.6,0.5-3.9,0.8c0-0.2-0.1-0.3-0.1-0.5c1.2-0.8,2.6-0.3,3.9-0.8
		C247.2,62.8,247.2,63,247.2,63.1z"/>
	<path class="st0" d="M52.8,57.8c0.2-1.4,0.5-2.7,0.8-4.5c0.2,0.6,0.5,1.1,0.5,1.5c-0.2,1-0.6,2-0.9,3C53,57.8,52.9,57.8,52.8,57.8z
		"/>
	<path class="st0" d="M201.6,54.8c-0.9,1-1.7,1.8-2.5,2.6C199.3,56,200.5,54.7,201.6,54.8z"/>
	<path class="st0" d="M36.9,58.5c0-0.3,0-0.5,0.1-0.6c0.2-0.7,0.5-1.3,0.8-2c0.1-0.2,0.3-0.3,0.5-0.4c0.1,0.2,0.3,0.3,0.3,0.5
		C38.6,56.8,37.8,58.1,36.9,58.5z"/>
	<path class="st0" d="M212,67.7c1.8-0.3,3.6-0.6,5.4-0.9c0,0.1,0,0.3,0.1,0.4c-1.8,0.2-3.6,0.4-5.4,0.7C212,67.8,212,67.7,212,67.7z
		"/>
	<path class="st0" d="M239.8,59.8c-0.2,0.9-0.3,1.7-0.5,2.5c0,0.1-0.4,0.2-0.5,0.1C238.2,61.8,238.8,60.1,239.8,59.8z"/>
	<path class="st0" d="M37,54c0.2-1.2,0.4-2.1,0.6-2.9c0-0.2,0.2-0.3,0.3-0.4c0.2,0.2,0.5,0.4,0.4,0.5C38.2,52.2,37.9,53.1,37,54z"/>
	<path class="st0" d="M48.5,61.3c0.8-0.1,1,0.2,0.6,0.9c-0.4,0.7-0.8,1.3-1.2,1.9c-0.1-0.1-0.2-0.1-0.3-0.2
		C47.9,63.1,48.2,62.2,48.5,61.3L48.5,61.3z"/>
	<path class="st0" d="M157.9,73c-1.3,0.1-2.5,0.3-4,0.5C154.3,72.8,156.8,72.5,157.9,73z"/>
	<path class="st0" d="M206.4,68.6c0.9-0.9,2-0.3,3-0.6c0,0.1,0,0.2,0,0.2c-1,0.3-1.9,0.5-2.9,0.8C206.5,68.9,206.4,68.7,206.4,68.6z
		"/>
	<path class="st0" d="M49.3,44.3c0.5-0.4,0.9-0.9,1.4-1.3c0.1-0.1,0.4,0.1,0.7,0.2c-0.1,0.2-0.1,0.4-0.3,0.5c-0.5,0.3-1,0.6-1.5,0.9
		C49.5,44.5,49.4,44.4,49.3,44.3z"/>
	<path class="st0" d="M36.9,54.7c0.5,0.9-0.1,2.5-1.1,2.8C36.2,56.6,36.6,55.7,36.9,54.7z"/>
	<path class="st0" d="M232.2,51.3c0.7,0.1,1.4,0.3,2.2,0.4c0,0.1,0,0.2-0.1,0.4c-0.7-0.1-1.5-0.2-2.2-0.3
		C232.2,51.6,232.2,51.4,232.2,51.3z"/>
	<path class="st0" d="M225.6,66c0.5-0.1,1-0.1,1.5-0.2c0,0.1,0,0.3,0.1,0.4c-0.5,0.1-1,0.1-1.5,0.2C225.7,66.3,225.6,66.2,225.6,66z
		"/>
	<path class="st0" d="M25.5,44.6c0.2-0.6,0.5-1.2,0.7-1.8c0.2-0.7,0.7-0.7,1.2-0.7c0.7,0.1,1.4,0.2,1.9,0.5c0.4,0.2,0.9,0.6,1,1.1
		c0.4,1.7,0.4,3.5-1,4.8c-0.5,0.5-1.5,0.6-2.2,0.7c-2.4,0.3-3.8-1.3-3.3-3.7C24,44.7,24.5,44.4,25.5,44.6z M25.1,45.5
		c-0.6,0.8,0,1.3,0.3,1.9C26.3,46.6,26.3,46.4,25.1,45.5z"/>
</g>
</svg>
