<?xml version="1.0" encoding="utf-8"?>
<!-- Generator: Adobe Illustrator 24.1.2, SVG Export Plug-In . SVG Version: 6.00 Build 0)  -->
<svg version="1.1" id="Capa_1" xmlns="http://www.w3.org/2000/svg" xmlns:xlink="http://www.w3.org/1999/xlink" x="0px" y="0px"
	 viewBox="0 0 512 512" style="enable-background:new 0 0 512 512;" xml:space="preserve">
<style type="text/css">
	.st0{fill:#FFFFFF;}
</style>
<g class="floating">
	<path class="st0" d="M256,512c-9.1,0-17.7-3.6-24.1-10L78.3,348.4c-13.3-13.3-13.3-34.9,0-48.3s34.9-13.3,48.3,0l95.3,95.3V34.1
		C221.9,15.3,237.2,0,256,0s34.1,15.3,34.1,34.1v361.3l95.3-95.3c13.3-13.3,34.9-13.3,48.3,0s13.3,34.9,0,48.3L280.1,502
		C273.7,508.4,265.1,512,256,512L256,512z M102.4,307.2c-9.4,0-17.1,7.6-17.1,17c0,4.5,1.8,8.9,5,12.1l153.6,153.6
		c6.7,6.7,17.5,6.7,24.1,0c0,0,0,0,0,0l153.6-153.6c6.7-6.7,6.7-17.5,0-24.1s-17.5-6.7-24.1,0L287.6,422.1c-3.3,3.3-8.7,3.3-12.1,0
		c-1.6-1.6-2.5-3.8-2.5-6V34.1c0-9.4-7.6-17.1-17.1-17.1s-17.1,7.6-17.1,17.1v381.9c0,4.7-3.8,8.5-8.5,8.5c-2.3,0-4.4-0.9-6-2.5
		L114.5,312.2C111.3,309,106.9,307.2,102.4,307.2z"/>
</g>
</svg>
