<?xml version="1.0" encoding="utf-8"?>
<!-- Generator: Adobe Illustrator 24.1.2, SVG Export Plug-In . SVG Version: 6.00 Build 0)  -->
<svg version="1.1" id="Слой_1" xmlns="http://www.w3.org/2000/svg" xmlns:xlink="http://www.w3.org/1999/xlink" x="0px" y="0px"
	 viewBox="0 0 297 90" style="enable-background:new 0 0 297 90;" xml:space="preserve">
<style type="text/css">
	.st0{fill:#BA181B;}
</style>
<g>
	<path class="st0" d="M180.3,58.3c0.7,0.3,1.5,0.5,2.3,0.7c0.6,0.1,1.2,0.2,1.6,0.7c-0.1,0.2-0.1,0.4-0.2,0.6l0,0
		c-0.6,0.3-1.2,0.3-1.8-0.1c0.1-0.2,0.2-0.4,0.3-0.6c-0.2,0-0.4-0.1-0.6-0.1l0,0c-0.2-0.4-0.5-0.6-1-0.6c-2-0.2-3.9-0.6-5.9-0.6
		c-1.1,0-2.1-0.4-3.2-0.5c-1.1-0.1-2.2-0.3-3.3-0.4c-1.4-0.1-2.8-0.3-4.2-0.3c-0.8,0-1.6-0.1-2.4-0.2c-0.7-0.1-1.4-0.1-2-0.1
		c1.9,0.7,3.9,0,5.8,0.6c-0.3,0.6-0.7,0.5-1.1,0.5c-1.6-0.2-3.1,0-4.7-0.3c-0.9-0.2-1.9,0.1-2.8-0.3c-0.3-0.1-0.6,0-0.8,0.3
		c-0.2,0.2-0.3,0.5-0.6,0.6l0,0c0.9,0.4,1.8,0.2,2.7,0.2c0.4,0,0.9-0.1,1.5,0.3c-2.2,0.4-4.3,0.4-6.5,0.5c0.7,0.5,1.4,0,2,0.4l0,0
		c-0.1,0.2-0.2,0.4-0.1,0.7c1,0.8,2.2-0.1,3.3,0.4c-0.9,1-2,1.2-3.2,0.9c-0.4-0.1-0.8-0.1-1.2,0.1l0,0c-0.5-0.5-1.3-0.5-1.9-0.6
		c-0.6-0.1-1.2-0.3-1.6-0.9c-0.4,0.5-0.8,0.2-1.2,0.1c0,0-0.1,0.1-0.1,0.1c-0.7-0.2-1.4,0.3-2-0.3c0-0.4,0.3-0.4,0.5-0.6
		c-0.3-0.1-0.7-0.1-1,0c-0.1,0.7-0.8,0.8-1.2,1.3c-0.7-0.6-1.5-0.6-2.3-0.5c-0.9,0.1-1.9,0-2.8,0.1c-0.1,0-0.2-0.1,0,0
		c-0.1,0,0,0,0.1,0c-0.3,0.5-0.7,0.5-1.2,0.5c-0.8,0-1.7,0-2.5,0c-1.8,0-3.7,0-5.5,0.4c-1.2-0.4-2.5-0.2-3.9,0
		c0.6,0.5,1.1,0.4,1.6,0.3c0.8-0.2,1.5-0.4,2.3-0.3c0.6,0.2,1.1,0.5,1.8,0.3c0.5-0.1,1.1,0.1,1.5,0.6c0.3,0.1,0.4-0.3,0.7-0.3
		c0.3,0.1,0.5,0.3,0.7,0.6c-0.2,0.3-0.7,0.3-0.9,0.5c3.7,0,7.5,0,11.2,0c0.9,0,0.9-0.1,1.1-1c0-0.1,0-0.3,0.3-0.4
		c0.4,0.4-0.1,0.9,0.1,1.3c0.4,0.6,1.4-0.1,1.8,0.7c-0.3,1-0.3,0.9-1.2,1c-1.5,0.2-3,0.1-4.5,0.6c1.4,0.2,2.8-0.2,4.2-0.3l0.1,0.1
		c-0.7,1-1.7,1.3-2.9,1.2c-0.3,0-0.7,0-1,0.1c0.8,0,1.2,0.6,1.7,0.9c0.3,0.2,0.4,0.6,0.1,0.8c-0.6,0.4-1.1,1.3-2.1,1
		c-0.3-0.1-0.5,0-1,0c0.8,0.2,1.5-0.1,2.1,0.3c0.2,0.4,0,0.6-0.2,0.7c-1.2,0.4-2.2,1.2-3.4,1.4c-0.3-0.1-0.1-0.3-0.1-0.5
		c-0.5,0.1-1,0.3-1.5,0c-0.1,0.2-0.1,0-0.1,0.1c0,0.8-0.5,0.9-1,0.7c-0.7-0.3-1.4-0.1-1.9,0.2c-0.7,0.4-1.6,0.6-2.3,1.1
		c-0.4,0.3-1.1,0.5-1.7,0.4c-0.5,0-0.8-0.3-0.7-0.9c-0.6-0.1-1.2,0-1.7-0.3l0,0c-0.1,0-0.2,0-0.2,0l0,0c-0.5,0.1-1.1,0-1.6,0.2l0,0
		c-0.4,0.1-0.8,0-1.2,0.2l0,0c-2.7,0.3-5.4,0.6-8.1,1.1c-1.2,0.2-2.4,0.3-3.6,0.3c-2.2,0.1-4.3,0.2-6.5,0.2c-0.7,0-1.1,0.4-1.6,0.6
		c-0.4,0-0.2-0.4-0.5-0.6c-0.6,0.2-1.3,0.3-2,0.4c-0.8,0.2-1.6,0.6-2.4-0.2c-0.1-0.1-0.5-0.1-0.8,0c-0.7,0.2-1.5-0.1-2.1,0.6
		c-0.1,0.1-0.4-0.1-0.6-0.2c0,0,0,0,0,0c-0.1,0-0.2,0-0.3,0c-1.8-0.1-1.8-0.1-3,1.2c0.7,0.2,1.4,0.5,2-0.3l0,0
		c0.6-0.1,1.1-0.7,1.8-0.3c0.3,0.3-0.1,0.4,0,0.7c0.4,0.2,0.8,0.2,1.2,0.3l0,0c0.8-0.5,1.5-0.3,2.3,0c-0.2,0-0.3,0-0.5,0
		c0.2,0.1,0.3,0.1,0.5,0c1.1,0.3,2.3,0,3.4-0.2c2.2-0.4,4.4-0.6,6.7-1c1.6-0.3,3.2-0.6,4.9-0.7c1.3-0.1,2.6-0.2,4,0.1
		c0.4,0.1,0.7,0.2,0.8,0.7c-0.9,1-2,0.8-3.1,0.6c-0.4,1-0.5,1.1-1.5,0.9c-0.1-0.1-0.1-0.2,0-0.3c0-0.1,0.1-0.1,0.1-0.2
		c-0.1,0-0.1-0.1-0.2-0.1c-1.8-0.1-3.4,0.6-5.2,0.7c-2.3,0.2-4.6,0.4-6.9,0.9c-2.3,0.5-4.6,0.1-6.9,0.3c-0.4,0-0.8,0-1.2,0.1
		c-1,0.4-2,0.6-3,0.6c0.7,0.3,1.4,0.5,2.2,0.4c0.8-0.1,1.5-0.1,2.3,0c0.8,0,1.6-0.2,2.4-0.2c1.7,0.1,3.3-0.4,5-0.4
		c1.1,0,2.3,0,3.5,0.5c-0.3,0.4-0.7,0.3-1,0.3c-0.8,0-1.6,0-2.4,0c-0.4,0-0.8,0-1.2,0.2c-3-0.2-5.9,0.2-8.9,0.2
		c-2.2,0-4.5,0-6.7,0.1c-0.2,0-0.5,0-0.7-0.1c-0.2-0.1-0.4-0.2-0.3-0.5c0.8,0.1,1.7,0.1,2.6,0c-1.2-0.2-1.2-0.2-1-0.8
		c-0.8,0-1.5,0-2.3,0c-1.7-0.1-3.5-0.2-5.2-0.1c-1.5,0.1-3,0.3-4.6,0.1c-1.6-0.2-3.1-0.3-4.7,0c-0.3,0-0.5,0.1-0.8,0
		c-1.9-0.3-3.8-0.2-5.7-0.2c-0.4,0-0.8,0-1.1,0.1c-1.2,0.3-2.3,0.2-3.5,0c-0.7-0.1-1.5-0.4-2.3-0.2c-0.9,0.3-1.8,0.4-2.7,0.4
		c0.6,0.1,1.2,0.1,1.5,0.6c0,0.4-0.5,0.3-0.5,0.6c1,0.7,1.7,0.7,2.5,0.1c0.1-0.5-0.3-0.8-0.1-1.4c0.9-0.2,1.7,0.1,2.6,0.2
		c0.8,0.1,1.7-0.1,2.4,0.5c-0.1,0.4-0.5,0.2-0.6,0.5c1.6,0.5,2,0.5,3.5-0.2c0.4-0.1,0.7-0.2,1.1,0.1c0.1,0.5,0.1,1,0.2,1.4
		c2.2,0.3,14.5,0.1,15.4-0.1c-1,0-2.1-0.1-3.1,0c-1.6,0.2-3.3,0.1-4.9,0.1c-0.3,0-0.7,0-0.9-0.5c0.3-0.3,0.8-0.3,1.2-0.3
		c0.9,0,1.8,0.1,2.6,0.1c3.3-0.2,6.6-0.2,10-0.1c3.8,0.1,7.6-0.1,11.4-0.2c1.2,0,2.4-0.2,3.5-0.5c1.2,0,2.5,0,3.7,0.3
		c1.3,0.4,2.6,0.2,3.9-0.2c-0.2-0.4-0.7-0.1-0.9-0.4c0-0.3,0.3-0.3,0.5-0.4c-0.1-0.2-0.4-0.2-0.4-0.5c0.3-0.5,0.9-0.3,1.3-0.4
		c-0.1-0.4-0.6-0.1-0.7-0.5c1.1-0.2,2.2-0.2,3.4,0.3c-0.3,0.6-1,0-1.3,0.5c0.5,0.2,1.2,0.1,1.6,0.5c0.1,0.5-0.3,0.4-0.4,0.6
		c0,0.1,0.1,0.1,0.1,0.1c1.2-0.2,2.4-0.4,3.6-0.6c0.3-0.1,0.7-0.2,0.9-0.5c0,0,0,0,0,0c-0.1-0.1-0.3-0.1-0.3-0.4
		c0.4-0.7,1.5-0.6,1.7-1.6c0.6,0.3,1.2,0.3,1.7,0.3c0,0.9-0.7,1.9-1.5,1.8c-1-0.1-1.6,0.6-2.1,1.2c-0.5,0.5-1,0.7-1.6,0.8
		c-1.1,0.1-2.2,0.2-3.3-0.3c0.2,0.7-0.2,0.9-0.7,0.9c-0.8,0.1-1.6,0.1-2.4,0.1c-0.5,0-0.9,0-1.4,0c-0.3,0-0.6-0.1-0.9,0
		c-1.4,0.5-2.9,0.4-4.3,0.6c-0.5,0.1-1.1,0.2-1.6,0c-0.7-0.3-1.4-0.2-2.1-0.1c-2,0.2-4,0.2-6.1,0.2c-7.2,0-14.5,0-21.7,0
		c-3,0-6,0-9-0.1c-2.7-0.1-5.4-0.4-8.1-0.5c-1.7-0.1-3.4-0.1-5.1-0.1c-3.1,0-6.2-0.2-9.3-0.8c-1.9-0.3-3.8-0.5-5.7-0.8
		c-2.3-0.3-4.5-0.7-6.7-1.3c-1.2-0.4-2.4-0.5-3.7-0.5c-0.9,0-1.7-0.1-2.4-0.8c-0.2-0.2-0.5-0.3-0.7-0.4c-1.4-0.8-2.1-2-2.7-3.5
		c-0.7-2.1-1-4.2-1.7-6.3c-0.3-0.9-0.7-1.7-1.5-2.2c-0.3-0.2-0.6-0.4-0.6-0.8c-0.1-1.4-0.7-2.7-0.8-4c-0.1-2.4-0.5-4.8-0.8-7.3
		c-0.2-1.9-0.2-3.9-0.1-5.8c0-0.6,0.1-1.2-0.1-1.7c-0.3-1.4-0.4-2.7-0.3-4.1c0.1-1.9,0.1-3.7,0.5-5.5c0.5-1.9,0.7-3.9,0.8-5.8
		c0-0.7,0.2-1.4,0.4-2.1c0.9,0,1.3-0.8,1.7-1.4c0.3-0.4,0.6-0.9,1.2-0.8c0.1-1.8,0.7-3.5,0.4-5.3c0-0.1,0-0.3,0.1-0.5
		c0.4-0.9,0.4-1.9,0.7-2.8c0.2-0.9,0.3-1.8,0.3-2.7c0-1.1,0.1-2.3,0.4-3.4c0.7-0.1,1.4-0.3,1.7-1c0.1-0.2,0.4-0.4,0.6-0.5
		c1.2-0.2,2.4-1,3.6-0.1c0.6-1.2,0.6-1.2,1.8-0.9c0.3,0.3,0.1,0.8,0.5,1c0.2-0.6-0.3-1.3,0.3-1.9c0.9,0.5,1.1,1.5,1.6,2.3l0,0
		c0.1,0,0.3,0,0.3,0c0.3-0.6,1-0.5,1.2-0.2c0.6,0.8,1.4,0.9,2.2,1c3.3,0.4,6.6,1.1,9.9,1.9c3.3,0.8,6.6,1.6,9.9,2.4
		c2.5,0.6,5,1.3,7.5,1.6c2.1,0.2,4.1,0.7,6.2,0.8c2.5,0.2,4.9,0.1,7.4,0c0.8,0,1.5,0,2.3,0c2,0.1,4-0.1,6.1-0.2
		c2.5-0.1,5,0.1,7.5-0.1c2.4-0.2,4.8,0,7.3-0.2c1-0.1,2.1,0,3.1-0.1c0.7-0.1,1.4,0.1,2.2,0.1c1.1,0.1,2.2,0.3,3.3-0.2
		c0.2-0.1,0.4-0.1,0.6-0.1c1.5,0.2,3,0,4.5,0c3.2,0,6.5,0,9.7-0.1c1.2,0,2.1,0.4,3,1.1c0.4,0.3,0.8,0.5,1.2,0.5c1.3,0,2.6,0,3.9,0
		c0.5-0.4,0.2-1.4,1-1.6c0.3-0.1,0.7-0.2,1,0.1c0,1.3,0,1.3,1.2,1.4c-0.1-0.6,0.1-1.2,0.7-1.5c0.6-0.3,1.2,0,1.7,0.3
		c0.1,0.6-0.4,0.8-0.4,1.1c0.6,0.3,6.4,0.4,7.9,0.1c0.2-0.8,0.2-0.8,0.1-1.5c0.9-0.7,1.3-0.6,1.8,0.2c0.5,0.7,1.1,1.2,1.9,1.2
		c3.5,0.2,7.1,0.2,10.6,0.2c0.3,0,0.5,0,0.8-0.2l0,0c0.6,0,1.1,0,1.8,0c0.1-0.6,0.5-0.7,1-0.7c0.9,0,1.7,0,2.6-0.2
		c0.7-0.2,1.5,0,2.3,0c1.2,0,2.4-0.2,3.6,0.2c0.3,0.1,0.7,0.1,1-0.2c0.2-0.2,0.4-0.1,0.6,0c0,0,0,0,0,0c0.3,0.1,0.7,0.3,1,0
		c0.9-0.6,1.8-0.5,2.7-0.4c0.7,0.1,1.5,0.3,2-0.3c0.3,0.1,0.4,0.5,0.8,0.4c1.7-0.2,3.3,0.1,5-0.2c1.4-0.2,2.9-0.1,4.3,0
		c1.4,0.1,2.8,0.1,4.2,0.2c0.3,0,0.7-0.1,1,0.3c-1.8,0.3-3.6,0-5.4,0c-2.1,0-4.3,0.1-6.4,0.5c0.7,0.3,0.9,0.3,3,0.1
		c1.1-0.1,2.1,0,3.2,0c1.1,0.1,2.1,0.1,3.2,0.1c1.1,0,2.1,0,3.2,0.2c1.1,0.2,2.1,0,3.2,0.2c1,0.2,2.1-0.1,3.1,0.5
		c-3.3,0.3-6.6-0.3-9.9,0.1c1.1,0,2.2,0.2,3.3,0.3c-2.1,0.4-4.3,0.4-6.4,0.5c0,0.1,0,0.3,0,0.5c-0.9-0.3-1.9,0.2-2.7-0.5
		c-0.9,0.1-1.7-0.1-2.6-0.1c-1.3,0-2.7,0-4-0.2c-0.9-0.1-1.8-0.1-2.8,0.2c0.4,0.4,0.9,0.3,1.2,0.3c0.8,0,1.5,0,2.3,0.1
		c0.4,0,0.7,0.2,0.5,0.7c-0.4,0-0.7,0.1-1.3,0.1c0.6,0.1,0.9,0.1,1.3-0.1c0.8,0.3,1.6,0.1,2.4,0.1c0.4-0.1,0.1-0.4,0.5-0.6
		c0.5,0,1.1-0.2,1.7,0.2l0.1,0.1c0,0,0.1,0.1,0.1,0.1c0,0,0.1,0.1,0.1,0.1c1.6,0,3.1,0.2,4.7,0.1c1.5-0.1,3-0.1,4.6,0
		c2.3,0,4.6,0.1,6.9-0.1c0.5,0,1,0,1.5,0c0.3,0,0.5,0,0.8-0.4c0.4-0.5,0.4-0.5,0.9,0.1c0.2-0.1,0.1-0.4,0.4-0.4
		c0.2,0.1,0.1,0.3,0.2,0.5c0.3-0.1,0.7,0,1.2,0.1c-0.2-0.2-0.3-0.3-0.4-0.5c0.1-0.2,0.4-0.2,0.5-0.1c0.4,0.7,1,0.6,1.6,0.5
		c0.3,0,0.7,0,0.9,0.3c0,0.4-0.2,0.4-0.4,0.4c-0.4,0.1-0.8,0.2-1.1,0.2c-2.9-0.1-5.7,0.1-8.5,0.1c-2.3,0-4.6-0.2-6.8,0
		c-2.3,0.2-4.6,0.1-7,0.1c-1,0-2-0.1-3-0.2c-1.4-0.1-2.8,0.2-4.2,0.3c-2.2,0.1-4.4,0.2-6.6,0.2c-0.9,0-1.9,0.1-2.8,0.2
		c-1.1,0.1-2.3,0-3.4,0c-0.8,0-1.7,0-2.5,0c-0.7,0-0.7,0-1.3,0.8c0.7,0.1,1.4,0,2,0.1c1.3,0.2,2.6,0,3.8,0.6c0,0,0.1,0,0.1,0
		c0,0-0.1,0-0.1,0c0.4-0.6,1.1-1.1,1.6-0.8c0.7,0.5,1.5,0.4,2.3,0.6c0,0.7-0.6,0.3-0.9,0.6c0.7,0,1.4,0.2,2.1,0.1
		c0-0.3-0.4-0.1-0.4-0.5c0.8-0.4,1.6-0.3,2.2,0.2c0.4,0.4,0.8,0.4,1.3,0.4c2.4,0,4.8-0.1,7.2,0c2.1,0.1,4.2-0.1,6.2-0.5
		c1.1-0.2,2.1,0.2,3.2,0.2c0.1,0.3-0.3,0.4-0.2,0.7c0.3,0.2,0.7,0.2,1.1,0.1c1.2-0.1,2.3,0.3,3.5,0c0.3-0.1,0.5,0,0.7,0.3
		c0,0,0,0,0,0c0.2,0,0.3,0,0.5,0l0,0c0.2,0.2,0.5,0.2,0.8,0c0.2-0.1,0.3-0.2,0.5,0c0.4,0.4,0.8,0.2,1.2,0c0.5-0.3,0.7-0.2,1.9,0.2
		c0.2-0.1-0.1-0.2,0.1-0.5c0.8-0.3,2,0,2.9-0.5c0.3,0.6,0,0.8-0.3,1c0,0.1,0,0.1,0.1,0.1c3.8,0.2,7.6,0.2,11.4,0.1
		c4.9-0.1,9.8-0.2,14.7-0.1c1.7,0,3.3,0,5,0.1c0.1,0,0.2,0.1,0.3,0.2c-0.2,0.5-0.7,0.2-1.1,0.4c0.4,0.4,0.8,0.3,1.2,0.3
		c4.6,0,9.2,0.1,13.8,0.1c0.2,0,0.4,0,0.5,0.3c-0.4,0.4-0.8,0.2-1.3,0.2c-4.7,0-9.3,0-14,0.1c-0.5,0-1.1-0.1-1.6,0.2
		c4.2,0.2,8.4,0.3,12.6,0.4c-0.8,0.4-1.7,0-2.6,0.4c10.4,0,20.7-0.2,30.9,0.6c0,0,0.1,0.1,0.1,0.2c-0.1,0.3-0.3,0.2-0.5,0.2
		c-4.7-0.3-9.4-0.1-14.1-0.3c-1.4-0.1-2.9-0.1-4.3-0.1c-0.4,0-0.8,0-1.1,0.2c0,0,0,0,0,0c1.3,0.1,2.6,0.1,3.9,0.2
		c0.5,0,0.9,0,1.2,0.3c-0.1,0.3-0.2,0.2-0.4,0.3c-3.5,0.1-6.9,0.2-10.4,0.3c-3.9,0-7.7,0.2-11.5,0.4c-0.5,0-1,0-1.5,0
		c-0.3,0-0.6,0-0.8,0.3c0.2,0.2,0.4,0.2,0.6,0.2c1.3-0.2,2.6,0,3.9-0.1c1.3-0.1,2.6,0.1,4-0.3c0.8-0.2,1.7-0.1,2.5-0.1
		c2.2,0,4.4-0.1,6.6,0c3.6,0.1,7.2,0.3,10.7,0.5c0.6,0,1.1-0.1,1.7,0.1c0,0.4-0.3,0.3-0.5,0.3c-4-0.1-8.1-0.2-12.1-0.1
		c-0.7,0-1.3,0-2-0.1c-0.6-0.1-1.2,0-1.8,0.3c-0.6,0.3-1.2,0.3-1.8,0c-0.9-0.5-1.9-0.5-2.9-0.2c-0.9,0.2-1.8,0.3-2.6,0.6
		c0.6,0,1.1,0,1.6,0c0.3,0.3-0.2,0.3,0.1,0.7c0.8,0.5,1.9-0.4,2.8,0.2c0,0.4-0.3,0.3-0.5,0.3c-0.3,0.1-0.7,0-0.8,0.2
		c-0.5,0.9-1.2,0.5-1.9,0.5c-0.5,0-0.9,0-1.4-0.1c0,0,0,0,0,0c-1.3-0.4-2.7-0.5-4.3-0.4c0.7,0.6,1.4-0.3,2,0.3
		c-0.5,0.5-0.9,1-1.8,0.8c-0.6-0.1-1.2,0.1-1.8,0.5c0.6,0.5,1.5,0.1,1.9,0.8c0,0.5-0.6,0.2-0.7,0.6c1,0.3,2,0.6,3.1,0.1
		c0.4-0.2,0.8-0.2,1.1,0.1c0.1,0.4-0.2,0.4-0.4,0.6c-0.3,0.2-0.7,0.3-0.9,0.5c-0.5,0.8-1.3,1.1-2.1,1.3c-0.1,0.4,0.4,0.4,0.3,0.8
		c-0.3,0.5-0.8,0.5-1.3,0.4c-3.2-0.7-6.4-0.3-9.6-0.4c-1.2,0-2.5-0.1-3.7,0.3c-0.7,0.2-1.6-0.1-2.5-0.1c-1.9-0.1-3.7,0.2-5.6,0
		c-0.6,0-1.1,0.1-1.7,0.3c-0.5,0.2-1.1,0.5-1.7,0.5c0.1,0.4,0.5,0.4,0.7,0.7c-0.1,0.2-0.2,0.3-0.4,0.5c1.3,0.3,2.6,0,3.9,0.1
		c1.9,0,3.9,0,5.8-0.1c0.5,0,0.8,0.2,0.8,0.7c2.8,0,5.5,0,8.2,0c1,0,1.9,0.1,2.9-0.1c1.3-0.3,2.2,0.2,2.9,1.2
		c-0.9,0.7-4,1.1-5.1,0.5c0.9-0.7,2.1-0.4,2.9-1c-1.2-0.2-2.3,0.2-3.4,0.5c-1.8,0.6-3.7,0.6-5.5,0.7c-1.1,0.1-2.3,0.1-3.4-0.1
		c0.7,0.4,1.5,0.3,2.3,0.7c-0.3,0.4-0.7,0.3-1,0.2c-1.1-0.3-2.3-0.4-3.4-0.3c-2.1,0.1-4.1-0.5-6.1-0.4c-1.6,0.1-3.1-0.3-4.7,0.2
		c-0.8,0.2-1.7,0.1-2.6,0.4c-0.4,0.5-0.7,1.1-1.2,1.8c1.2,0.3,2.4,0.1,3.6,0.1c1.2,0,2.4,0,3.7,0c1.2,0,2.4,0,3.6,0
		c1.2,0,2.4,0,3.7,0c1.2,0,2.3-0.1,3.7-0.2c-1.6,0.9-3.1,1.3-4.7,1.2c-0.5,0-1,0-1.4-0.3c-0.4-0.3-0.5-0.2-1.4-0.1
		c0.1,0,0.1,0.1,0.2,0.1c0.1,0,0.1,0.1,0.2,0.2c-0.4,0.2-0.8,0.3-1.1,0c-0.4-0.4-0.9-0.3-1.4-0.3c-2.2,0.1-4.3,0-6.5,0.2
		c-1.3,0.1-2.5,0.1-3.8,0.4c-0.8,0.2-1.6,0.1-2.4,0.1c-0.3,0-0.5-0.1-0.8,0.2c0.2,0.3,0.4,0.2,0.7,0.2c2.1-0.1,4.3-0.3,6.4-0.3
		c0.3,0,0.6,0,0.9,0.3c-1.5,0.2-2.9,0.3-4.4,0.4c-2.2,0.1-4.5,0.2-6.7,0.4c-0.1,0-0.2,0-0.3,0c-2.8,0.1-5.6,0.1-8.3,0.2
		c-0.7,0-1.4,0.1-2-0.3c-0.2-0.1-0.4-0.1-0.7,0c-0.4,0.3-0.9,0.2-1.3,0.1c-0.9-0.4-1.7-0.2-2.6-0.1c-2.6,0.3-5.2,0.3-7.8,0.5
		c-0.1,0-0.2,0-0.3,0c-2.2-0.8-4.4-0.3-6.6-0.3c-1.1,0-2.2,0.1-3.3,0.1c-1,0-1.9,0.3-2.9,0.1c-0.3-0.1-0.7,0.1-0.9,0.4l0,0
		c-0.1,0.1-0.1,0.1-0.2,0.2l-0.1,0c-0.5-0.5-1.3-0.5-1.6-1.3c-0.8,0-1.6-0.1-2.4,0.5c-0.7,0.5-1.7,0.9-2.5,0.7
		c-0.4-0.3-0.1-0.6-0.2-0.9c-0.3-0.1-0.7,0-1,0.1c0,0.1,0,0.2,0,0.2c0.2,0.2,0.5,0.4,0.6,0.7c0.1,0.2,0.2,0.4,0.4,0.4
		c1.1-0.1,1,0.6,1,1.3c0,0.1,0,0.2,0.1,0.3c-1.5,0.3-1.7,0.2-2.1-0.7c-0.4,0-0.9-0.2-1.4,0c-0.3,0.5,0,1.1-0.3,1.7
		c1.2,0.5,2.3,0.6,3.5,0.7c0.9,0,1.8,0,2.7,0.2c0.3,0.1,0.7,0.1,1-0.1c0.7-0.5,1.5-0.3,2.2,0c0.7,0.3,1.4,0.4,2.1,0.3
		c0.2,0,0.4-0.1,0.6,0c2.5,0.7,5.2,0.5,7.7,0.6c3.5,0.2,6.9,0.4,10.4,0.8c1.7,0.2,3.4,0.3,5.1,0.5c0.2,0,0.6-0.1,0.7,0.3
		c-0.1,0.2-0.3,0.1-0.4,0.1c-0.6-0.1-1.2,0-1.7,0.4c-1.1,0.7-2.4,0.6-3.4-0.2c0.1-0.4,0.6,0,0.7-0.4c-2.3-0.1-4.5-0.5-6.7-0.5
		c-1.7,0-3.4-0.2-5.1-0.3c-0.4,0-0.8-0.1-1.2,0.1c-0.2-0.1-0.4-0.2-0.8-0.1c0.4,0,0.6,0.1,0.8,0.1c0.3,0.2,0.6,0.3,1,0.3
		c1.9-0.1,3.9,0.3,5.8,0.1c0.4,0,0.9-0.1,1.2,0.4c-0.1,0.2-0.2,0.3-0.3,0.3c-1.2,0-2.4,0.3-3.6-0.2c-0.6-0.3-1.3-0.2-2-0.2
		c-1.3,0.1-2.7,0.2-4,0.1c-0.5,0-1,0-1.5,0.3c4.5,0.2,8.8,0.9,13.2,1.4C178.2,58.2,179.3,58.4,180.3,58.3L180.3,58.3z M191.3,25.3
		L191.3,25.3C191.3,25.3,191.3,25.3,191.3,25.3z M130.6,47.1L130.6,47.1L130.6,47.1z M107.2,57.4c-0.1,0-0.2,0-0.2,0
		c-0.1-0.1-0.3-0.2-0.5,0c0.2,0,0.4,0,0.5,0C107.1,57.4,107.1,57.4,107.2,57.4L107.2,57.4z M126.9,62C126.9,62,126.9,62,126.9,62
		L126.9,62z M56.1,73.4c0,0,0.1,0,0.1,0C56.2,73.4,56.2,73.4,56.1,73.4C56.1,73.4,56,73.4,56.1,73.4C56,73.4,56.1,73.4,56.1,73.4z
		 M87.7,66.5C87.7,66.6,87.7,66.6,87.7,66.5C87.7,66.6,87.7,66.6,87.7,66.5L87.7,66.5z M116.1,47.3
		C116.1,47.3,116.1,47.3,116.1,47.3C116.1,47.3,116.1,47.3,116.1,47.3c0.1,0,0.2,0,0.2,0c0.2,0.2,0,0.4,0,0.6
		c0.3,0.1,0.6,0.1,0.9-0.1c-0.2-0.5-0.5-0.4-0.8-0.5C116.3,47.3,116.2,47.3,116.1,47.3z M162.9,25.5C162.9,25.5,163,25.5,162.9,25.5
		C163,25.5,162.9,25.5,162.9,25.5C162.8,25.6,162.8,25.6,162.9,25.5C162.8,25.6,162.8,25.6,162.9,25.5z M51.8,75.9L51.8,75.9
		C51.9,76,51.9,76,51.8,75.9C52,76,51.9,76,51.8,75.9z M62.1,81.2L62.1,81.2C62,81.2,61.9,81.1,62.1,81.2
		C61.9,81.2,62,81.2,62.1,81.2z M86.1,66.5c-0.1,0-0.2,0-0.2,0c-0.3,0-0.5-0.5-0.7-0.3c-0.5,0.4-0.9-0.1-1.3,0
		c-0.3,0-0.8-0.2-0.9,0.5c1,0.1,2,0.2,2.9-0.1C86,66.5,86.1,66.5,86.1,66.5c0.1,0.1,0.3,0.2,0.5,0.1C86.4,66.6,86.3,66.6,86.1,66.5z
		 M151,42c-0.1,0.1-0.1,0.2,0,0.3c0.1,0.1,0.2,0,0.2,0C151.1,42.2,151,42.1,151,42C151.1,42,151.2,42,151,42
		C151.1,42,151.1,42,151,42z M209.8,37.2c0.2,0,0.3,0.1,0.5-0.1C210.1,37,210,37.1,209.8,37.2L209.8,37.2z M104.5,43.6
		c0.4-0.1,0.9,0,1.4-0.2c0.2-0.1,0.3-0.2,0.5-0.3c0.1-0.1,0.2-0.1,0-0.3c-0.2,0.1-0.5,0-0.8,0.2c0.1,0.1,0.2,0.2,0.3,0.3
		C105.4,43.5,104.9,43.4,104.5,43.6C104.5,43.6,104.5,43.6,104.5,43.6z M200,45c-0.2-0.2-0.4-0.5-0.8-0.2
		C199.4,45.1,199.7,45.2,200,45c0.1-0.1,0.3,0,0.2-0.2C200.1,44.9,200.1,44.9,200,45z M184.9,40.2c0.4,0,0.9,0,1.3,0
		C185.7,40,185.3,40,184.9,40.2c-0.1,0-0.2-0.1-0.3,0C184.7,40.3,184.8,40.2,184.9,40.2z M220.4,31.5c0.1,0,0.2,0.2,0.3,0
		C220.6,31.5,220.5,31.5,220.4,31.5c-0.5-0.2-1-0.2-1.5-0.1C219.3,31.4,219.9,31.5,220.4,31.5z M208.5,35.6L208.5,35.6
		c-0.4-0.4-0.4-0.4-0.8-0.1C207.9,35.6,208.2,35.6,208.5,35.6z M172,20.7c0.3,0.1,0.6,0.2,0.9,0C172.6,20.5,172.3,20.6,172,20.7
		C172,20.7,171.9,20.8,172,20.7C171.9,20.8,172,20.7,172,20.7z M155.1,25.1c-0.1,0-0.2,0-0.2,0c-0.7,0-1.5,0-2.2,0.1
		c0.7,0,1.5,0.2,2.2-0.1C154.9,25.1,155,25.1,155.1,25.1c0.5,0.2,0.9,0.2,1.6,0.1C156,24.9,155.6,25,155.1,25.1z M154.4,55.8
		c0.3,0.2,0.6,0.2,0.9,0C155,55.8,154.7,55.8,154.4,55.8c-0.6-0.3-1.2-0.2-1.8-0.1C153.2,55.6,153.8,56,154.4,55.8z M158.1,25.1
		c0.4,0,0.7,0.1,1.1,0.3c0.3,0.1,0.6,0.2,1-0.2C159.4,24.9,158.7,24.8,158.1,25.1c-0.2,0-0.5-0.3-0.7,0.1
		C157.7,25.3,157.7,25.3,158.1,25.1z M60.9,76.4c-0.9,0-1.8,0-2.7,0c0.6,0.3,1.2,0.2,1.8,0.4C60.3,77,60.8,76.8,60.9,76.4
		c0.1,0,0.2,0,0.2,0c0,0.2,0,0.5,0.3,0.6c1.5-0.1,1.5-0.1,1.8-0.5c-0.4,0-0.8-0.1-1.3,0c-0.3,0.1-0.6,0.1-0.9-0.1
		C61.1,76.4,61,76.4,60.9,76.4z M85.7,42.9c-0.8-0.1-1.6-0.6-2.7-0.3C84,43.1,84.8,43.3,85.7,42.9c0.6,0.1,1.1,0,1.6-0.4
		C86.7,42.7,86.1,42.4,85.7,42.9z M192.4,32.4C192.4,32.4,192.3,32.4,192.4,32.4C192.3,32.4,192.4,32.4,192.4,32.4
		c0.9,0.3,1.9,0.2,2.8,0C194.7,32.3,193,32.3,192.4,32.4z M163.8,46.6L163.8,46.6c-1.2-0.3-2.5-0.3-3.7,0.1c0.6-0.2,1.2,0.1,1.8,0.1
		C162.5,46.8,163.2,46.8,163.8,46.6z M78.3,47.8L78.3,47.8c0,0.1-0.1,0.3,0.1,0.5c0.6-0.1,1.4,0.4,2.3-0.3
		C79.8,47.8,79.1,47.7,78.3,47.8z M77.7,66.5c0.2,0.1,0.4,0.2,0.7,0C78,66.3,77.9,66.5,77.7,66.5c-0.2-0.1-0.4-0.2-0.7-0.2
		c-1.4,0-2.9,0.3-4.3,0.3c0.8,0.1,1.6,0.1,2.4,0.1C75.9,66.7,76.8,66.9,77.7,66.5z M128.1,56.7C128,56.7,128,56.7,128.1,56.7
		C128,56.7,128,56.7,128.1,56.7c1.1,0.2,4,0.3,4.7,0.1c-0.6-0.3-1.2-0.5-1.9-0.4C129.9,56.4,129,56.5,128.1,56.7z M71,77.1
		c0.1,0,0.2,0,0.2,0c0.5-0.4,1-0.2,1.5-0.2c-0.4-0.6-0.9-0.7-1.5-0.7c-0.9,0-1.7,0.3-2.6,0.1c-0.6-0.1-1.1-0.1-1.6-0.1
		C68.3,76.7,69.7,76.8,71,77.1z M211.4,32.6L211.4,32.6c-1.3-0.1-2.6-0.4-3.8-0.3c-0.9,0-1.9,0.2-2.8,0.1c-0.3-0.2-0.6-0.2-1-0.2
		c-1.9,0-3.7,0-5.6,0c-0.4,0-0.7,0.1-1.1,0.4c0.5,0.3,1,0.2,1.5,0.2c0.5-0.1,1-0.1,1.5-0.1c1.6,0.2,3.2,0.3,4.7-0.2
		c0.1,0.1,0.1,0.2,0.2,0.2c1.9,0.2,3.9,0,5.8,0.5c0.2,0.1,0.4,0,0.5-0.1C211.5,32.9,211.5,32.8,211.4,32.6z M39.9,22.8
		c-0.6-0.5-1.2-0.5-1.8,0l0,0c0,0.2-0.1,0.4,0.1,0.6c1.7,0,3.4,0.5,5.3,0.3c-0.6-0.1-1.1-0.2-1.5-0.3c-0.3-0.1-0.7,0-0.8-0.3
		C40.8,22.4,40.3,22.6,39.9,22.8L39.9,22.8z M41.7,13.4L41.7,13.4c1.6,0.4,3.2,0.7,4.8,1.1c0.7,0.2,1.4,0.2,1.9,0.7
		c-0.4,0.3-0.9,0.2-1.3,0.1c-1.4-0.3-2.8-0.6-4.1-0.8c-2.1-0.3-4.1-0.9-6.2-1c-0.4,0-1-0.3-1,0.3c-0.1,0.6,0.5,0.6,0.9,0.7
		c1.6,0.5,3.3,0.5,4.9,0.9c0.5,0.1,1,0.2,1.6,0.8c-1.6-0.2-2.8-0.3-4.1-0.4c0.1,0.2,0.2,0.2,0.4,0.3c3.4,0.8,6.8,1.8,10.2,2.5
		c2.5,0.5,4.9,1,7.5,1.1c0.2,0.1,0.4,0.2,0.6,0c-0.2,0-0.4,0-0.7,0c-0.3-0.2-0.6-0.2-1-0.3c-0.9-0.3-1.8-0.4-2.7-0.9l0,0
		c1-0.1,2,0.1,3.1,0.3c3.2,0.6,6.3,1.3,9.6,1c0.3,0,0.6,0.1,0.9-0.2c-2.9-0.8-5.9-0.8-8.5-1.7c-0.3-0.4,0.2-0.5,0-0.7
		c-0.1,0-0.3-0.1-0.5-0.1c-0.9-0.4-1.9-0.5-2.8-0.5c1,0.1,1.8,0.7,2.9,0.5c-0.2,0.5-0.6,0.5-1,0.4c-0.7-0.2-1.3-0.3-2-0.5
		c-1.8-0.5-3.8-0.5-5.6-1.2c-0.4-0.1-0.9-0.1-1-0.6c0.6-0.2,1,0,1.5,0.3c0.4,0.2,0.8,0.2,1.3,0c-0.2-0.3-0.4-0.3-0.6-0.4
		c-1.4-0.3-2.7-0.7-4.1-1C44.8,13.8,43.3,13.3,41.7,13.4z M153.5,58.1L153.5,58.1c0.5,0.2,1,0.3,1.6,0.1c-1-0.8-1.4-0.9-5-1.2
		c-0.3,0-0.7-0.1-1.1,0.3c0.6,0.3,1,0.7,1.7,0.6C151.6,57.7,152.6,57.9,153.5,58.1z M152.3,40.9c-1.5,0.1-3,0.1-4.6,0.2
		c-1.5,0.1-2.9-0.1-4.4,0c-1.4,0.1-2.8,0.5-4.3,0.3c3.4,0.2,6.8,0.1,10.2-0.1c1-0.1,2-0.2,2.9,0.1c1.2,0.3,1.2,0.3,2.4-0.1
		c-0.5-0.2-1.1-0.3-1.6-0.2C152.7,41.1,152.5,41.1,152.3,40.9L152.3,40.9z M231.6,30.6c0.2-0.1,0.4-0.2,0.7-0.3c-0.5,0-0.9,0-1.4,0
		C231.2,30.4,231.4,30.5,231.6,30.6c-0.3,0.7-0.9,0.6-1.4,0.7c-0.5,0.1-1,0.2-1.6,0.1c-0.6-0.1-0.9,0.5-1.5,0.4
		c3.7,0.5,7.4,0.4,11.1-0.3c-1-0.2-2.1-0.2-3.1-0.1C233.8,31.5,232.7,31.1,231.6,30.6z M41.9,79.1L41.9,79.1c0.7,0.3,1.4,0.2,2,0
		c0.9-0.2,1.8-0.2,2.6,0.4c0.3,0.2,0.6,0.3,0.9,0.3c1.8-0.1,3.5,0.3,5.2,0.2c0.6,0,1.2,0.1,1.6-0.6c0.1-0.2,0.4-0.2,0.6-0.2
		c0.4,0,0.8-0.1,1.2-0.1c-0.4-0.1-0.9-0.2-1.2-0.5c-0.2-0.2-0.5-0.2-0.7-0.2c-1.1-0.1-2.1-0.2-3.2-0.2c-2.1,0-4.2,0-6.4,0
		c-0.7,0-1.4,0.1-1.6,0.9C42.6,79,42.3,79.1,41.9,79.1z M205,35.4c-0.8,0.6-1.6,0.8-2.6,0.7c-0.4,0-1,0.2-1.3-0.2
		c-0.4-0.4-0.8,0.6-1.2-0.1c-0.1-0.2-0.4-0.1-0.5,0c-0.2,0.2-0.4,0.3-0.6,0.1c-0.3-0.2-0.5-0.2-0.8,0c-0.5,0.3-0.9,0.3-1.4-0.1
		c-0.2-0.1-0.6-0.2-0.6-0.1c0,0.5-0.3,0.4-0.5,0.3c-0.9-0.5-1.9-0.4-2.9-0.4c-0.5,0-1.1-0.3-1.5,0.1c-0.5,0.5-1,0.3-1.6,0.2
		c-0.6,0.9-1.4,0.5-2.1,0.5c-0.1-0.3,0.2-0.4,0-0.6c-0.6-0.1-1.1,0.1-1.6,0.4c-0.6,0.5-1.3,0.3-2,0.4c-0.4,0-0.5-0.3-0.5-0.6
		c-0.5,0-0.7,0.6-1.2,0.6c-0.4,0-1-0.1-1.3,0.3c0.3,0.4,0.9,0,1.2,0.6c-2.1,0.5-4.2-0.1-6.2,0.6c1,0.3,2,0.2,2.9,0.2
		c5.5,0,11,0,16.6-0.1c1.7,0,3.3,0,5-0.1c1.6,0,3.3,0.1,4.9-0.1c0.3,0,0.6,0,0.8-0.3c-0.8-0.5-1.8,0.4-2.5-0.7
		c-0.2,0.7-0.8,0.6-1.4,0.6c-3.1,0-6.1,0-9.2,0c-0.2,0-0.5,0.1-0.7-0.2c0.3-0.2,0.6-0.2,0.9-0.2c0.8,0,1.5,0,2.3,0
		c1.3,0,2.7,0.1,4-0.2c0.1,0,0.2,0,0.2,0c0.5,0,1.1,0,1.6,0c0.8,0,1.4-0.4,2.1-0.5c1.5-0.2,3-0.2,4.5-0.2l0,0
		c-0.3-0.3-0.7-0.4-1.1-0.4c-0.4,0-0.6-0.1-0.7-0.5c0,0,0.1,0,0.1-0.1c0,0-0.1,0.1-0.1,0.1c-0.2,0.1-0.4,0.3-0.7,0.4
		c-0.2,0.1-0.4,0.1-0.6-0.1C204.8,35.7,205,35.5,205,35.4C205.1,35.4,205.1,35.3,205,35.4C205.1,35.3,205.1,35.4,205,35.4z
		 M204.8,41.5c-0.2-0.7-0.7-0.6-1.1-0.6c-1.8,0.1-3.6,0.2-5.3,0.2c-2.6,0-5.2-0.3-7.7-0.2c-2.1,0.1-4.2,0-6.3-0.1
		c-0.5,0-0.8-0.1-1-0.6c0-0.1-0.1-0.1-0.2-0.1c-0.2,0.2,0.1,0.6-0.4,0.9c-0.3-0.4-0.7-0.9-1.3-0.7c-0.5,0.2-1.1,0.1-1.6,0
		c-0.6-0.1-1,0.3-1.5,0.2c-1.2-0.3-2.4-0.2-3.5-0.1c-1.2,0.2-2.3-0.1-3.5,0c-1.3,0.1-2.6-0.1-4-0.1c-2.9,0-5.8,0.5-8.7,0.2
		c-0.1,0-0.2,0-0.3,0.2c0.2,0.3,0.7,0.1,0.8,0.5c-0.1,0.4-0.5,0.6-0.7,1c0.4,0.1,0.9,0.1,1.2,0c1-0.3,2-0.2,3.1-0.2
		c1.6,0,3.1,0.2,4.7,0.1c2,0,4.1,0,6.2-0.1c1.8-0.1,3.7-0.1,5.5-0.1c4.4-0.2,8.8-0.1,13.1-0.2c1.6,0,3.1,0.1,4.6-0.4
		c0.7-0.2,1.4-0.1,2.2,0c1.5,0.2,3,0.3,4.6,0.3C204,41.7,204.4,41.8,204.8,41.5z M34.8,75c0.5,0.3,1.1,0.4,1.6,0.4
		c0.3,0,0.7,0,1,0.1c2.6,0.7,5.2,1,7.9,1c0.6,0,1.1,0.1,1.6-0.4c0.8-0.6,2.1-0.6,3-0.1c0.1,0.3-0.5,0.1-0.3,0.5c0.9,0,0.9,0,1-0.9
		c-0.4-0.1-0.9-0.1-1.3-0.1c-0.5,0-1,0-1.4-0.4c-0.2-0.2-0.4-0.1-0.6-0.2c-1.1-0.2-2.3-0.5-3.4-0.7c0.3-0.4,0.7,0,1-0.3
		c-0.6-0.3-1.1-0.6-1.8-0.7c-1.2-0.1-2.5-0.3-3.7-0.5c-0.4-0.1-0.9,0-1.2-0.3c-0.8-0.7-1.6-0.4-2.5-0.5C35.1,72.9,34.4,73.8,34.8,75
		z M52.9,74.5c0.8,0.5,1.8,0.3,2.5,0.7c0,0.3-0.3,0.2-0.4,0.5c1.1,0.1,2.3,0,3.4,0c5.4-0.1,10.8,0.2,16.1-0.2c0.3,0,0.7,0,1,0.1
		c0.5,0.1,1,0.1,1.5,0c2.5-0.2,5-0.3,7.5-0.1c2.9,0.2,5.7,0,8.6,0.1c-1.7-0.1-3.4-0.4-5.1-0.5c-3.2-0.3-6.4-0.2-9.6,0.1
		c-1.4,0.1-2.9,0.2-4.3,0c-0.7-0.1-1.3-0.3-2,0c-0.4,0.2-0.8,0.1-1.2,0.1c-0.4,0-0.4-0.3-0.4-0.7c-1.7,0-3.4,0-5,0
		c-0.7,0-1.3,0-1.8,0.5c-0.4,0.4-1.1,0.4-1.5,0c-0.4-0.4-0.9-0.4-1.3-0.5c-2.1-0.1-4.1,0.1-6.2-0.2C54.1,74.3,53.6,74.3,52.9,74.5z
		 M145.3,48.9c-0.4-0.2-0.6-0.2-0.9-0.1c0.2,0.8-0.7,0.8-0.9,1.3c0.3,0.2,0.7,0.4,0.5,1c-2.6,0.3-5.4-0.3-8,0.2c2.3,0,4.6,0,7,0
		c0.5,0,1-0.1,1.6,0.5c-4.3,0.6-8.5,0.4-12.7,0.6c0.4,0.2,0.9,0.3,1.3,0.3c2.5,0.1,5,0,7.4,0.2c1.9,0.2,3.7,0.3,5.6,0.4
		c0.5,0,1.1,0.1,1.6,0c0.8-0.2,0.9-0.8,0.4-1.4c0.6-0.2,0.6-0.6,0.3-1c-0.1-0.2-0.3-0.2-0.3-0.5c0.1-0.9-0.3-1.1-1.2-0.8
		c-0.2,0.4,0.3,0.5,0.2,0.8C145.8,51,145.6,50.8,145.3,48.9z M134.6,57.1c2.1,0.1,4.2,0.2,6.5,0.3c-0.8,0.7-1.6,0.1-2.3,0.3
		c-0.7,0.2-1.4,0.5-2.1,0.4c1.4,0,2.7,0.2,4.1,0c0.7-0.1,1.4-0.1,2,0c1.4,0.1,2.8,0.4,4.1-0.3c0.5-0.3,0.9-0.4,1.5-0.4
		c-0.1-0.4-0.3-0.4-0.5-0.5c-1.3-0.4-2.7-0.3-4.1-0.4c-2.4-0.1-4.7-0.2-7.1-0.2C136,56.4,135.2,56.3,134.6,57.1z M220.9,37.2
		c0.9,0,1.8,0,2.6,0c0,0,0-0.1,0-0.1c-0.6-0.1-1.1-0.2-1.7-0.4c0.4-0.4,0.9-0.4,1.3-0.4c1.6,0.1,3.1-0.2,4.7,0.1
		c0.2,0,0.5,0.1,0.7,0c1-0.5,2-0.3,3-0.3c0.3,0,0.6-0.1,1-0.1c-1-0.4-2-0.1-2.9-0.5c1-0.7,2.1,0.4,3-0.5c-4,0-7.9,0-12,0
		c0.5,0.2,0.9,0.2,1.1,0.7c-0.9,0.5-2,0.1-2.9,0.5c0.8,0.5,1.7,0.1,2.5,0.5C221.4,37.1,221,37,220.9,37.2z M49.7,70
		c0.5,0.3,1,0.4,1.6,0.4c0.6,0,1.2,0,1.7,0.2c1.3,0.7,2.7,0.6,4.1,0.6c0.4,0,0.8-0.1,1-0.5c0.1-0.2,0.2-0.3,0.5-0.3
		c0.5,0,0,0.6,0.6,0.7c0.5,0,1.3,0,2,0c0.7,0,1.5,0.3,2.2-0.3c-0.5-0.5-0.9-0.6-1.4-0.6c-1.4,0-2.8,0-4.2-0.1
		c-1.7-0.2-3.4-0.5-5.1-0.8c-0.8-0.1-1.7-0.2-2.5,0c-0.1,0-0.1,0.1-0.2,0.1C49.8,69.6,49.7,69.8,49.7,70z M105.8,18.6
		c0,0,0-0.1,0-0.1c-0.1,0-0.2,0-0.3,0c-4.9,0.1-9.8-0.1-14.7,0.1c-2.9,0.1-5.9,0.1-8.8,0.1c-0.2,0-0.5-0.1-0.7,0.2
		C89.4,18.8,97.6,18.7,105.8,18.6z M197.6,45.4c0.1-0.3,0.2-0.5,0.5-0.5c0.4,0,0.4,0,0.3-0.6c-0.7-0.1-1.4-0.3-2.1,0
		c0.4,0.5,0.8,1,0.4,1.7c2-0.4,3.8,0,5.6-0.3c0.1-0.3-0.4-0.3-0.3-0.6c0.2-0.4,0.7-0.5,1.1-0.8c-1.5-0.3-2.2,0-2.7,1.1
		C199.6,45.5,198.6,45.6,197.6,45.4z M125.3,47.5c-0.3-0.5-0.7-0.4-1.1-0.4c-0.9,0-1.8-0.2-2.7,0.3c-1.2-0.7-2.2,0.2-3.3,0.4
		C120.3,48.2,124.5,48,125.3,47.5z M212.2,33c3.2,0.6,6.4,0.8,9.7,0.5C218.6,33.1,215.4,33.2,212.2,33z M44.3,23.8
		c1.5,0.1,3.1,0.7,4.8,0.5c-0.1-0.3-0.2-0.4-0.2-0.5c-1.5-0.3-3-0.6-4.6-0.9C44.3,23.3,44.1,23.5,44.3,23.8z M213.8,36.1
		c0.1,0.5,0.3,0.7,0.6,0.6c0.7-0.2,1.5-0.4,1.8-1.2c0.5,0,0.5,0.4,0.7,0.7c0.3,0.3,0.6,0.3,0.9,0c0.1-0.3-0.3-0.2-0.2-0.5
		c0-0.2,0.5-0.1,0.3-0.5c-0.4-0.1-0.8-0.1-1.2-0.2c-0.4,0-1,0-1.2,0.3C215.1,36,214.5,36,213.8,36.1z M210,40
		c-0.7-0.6-2.1-0.6-3.1,0c0.6,0.2,0.3,0.8,0.7,1.1c0.4-0.1,0.9-0.2,1.2-0.6C209,40.2,209.6,40.4,210,40z M75,76.3
		c2,1,3.2,1.1,4.6,0.2c-0.2-0.2-0.4-0.3-0.6-0.2c-0.9,0.4-1.8,0-2.6-0.1C76,76.2,75.5,76.1,75,76.3z M177.2,46.6
		c-2.2-0.3-4.3-0.2-6.5-0.1C172.9,46.8,175,46.8,177.2,46.6z M219.5,27.5c-1.7-0.5-4.5-0.4-5.3,0C216,27.5,217.8,27.5,219.5,27.5z
		 M173.8,36.6c0.2,0.1,0.7,0.1,0.3,0.5c3.9,0.1,3.9,0.1,4.5-0.4c-0.6-0.3-1.1,0-1.7,0.1c-0.8,0.2-1.6,0.6-2.3-0.2
		C174.4,36.3,174.1,36.5,173.8,36.6z M72.5,19c-2.6-0.2-5.2-0.4-7.8-0.6C67.3,18.8,69.9,19.1,72.5,19z M98.1,48
		c-1.4-0.2-2.7-0.2-4.1,0C95.4,48.2,96.7,48.2,98.1,48z M62,73.5c0-0.1,0-0.2,0-0.2c-1.6,0.2-3.2,0-4.8,0.2
		C58.8,73.5,60.4,73.5,62,73.5z M176.3,48.1c2,0,4.1,0,6.1,0C180.4,48,178.4,48.2,176.3,48.1z M141.5,49c-1.1-0.4-2.3-0.2-3.4-0.1
		C139.3,49.2,140.4,49,141.5,49z M121.3,57.8c-0.3,0.2-0.6,0.1-1,0.1c-0.3,0-0.5,0-0.8,0c2.6,0.1,2.6,0.1,3-0.4
		c-0.8-0.4-0.8-0.3-1.4-0.2C120.9,57.6,121.3,57.5,121.3,57.8z M157.7,55.8c1.3,0.5,4,0.7,5.2,0.4C161.1,56.1,159.5,56,157.7,55.8z
		 M147.4,42.1c-1.3,0.1-2.7-0.3-4,0.3C144.8,42.6,146.1,42.2,147.4,42.1z M218.2,38c-0.3-0.2-0.7-0.3-1.1-0.2
		c-0.4,0.1-0.8,0.1-1.1,0.1c-0.4,0-0.7-0.1-1.1-0.2c-0.3,0-0.7-0.3-1.2,0.2C215.3,38.2,216.7,38,218.2,38z M91.2,81.5
		c1.3,0,2.7,0.2,4-0.1C93.9,81.2,92.6,81.3,91.2,81.5z M83.8,47.8c-0.8,0-1.6-0.2-2.5,0.5C82.3,48.5,83.1,48.4,83.8,47.8z
		 M46.8,69.8c0.9,0.5,1.5,0.3,2.4,0.1C48.3,69.4,47.6,69.5,46.8,69.8z M65.9,45c0.1,0,0.1-0.1,0-0.1c-1.2-0.2-2.4-0.2-3.5,0.2
		C63.5,45.2,64.7,45.1,65.9,45z M228,27.2c-1-0.1-2.1-0.2-3.1,0.1C226,27.7,227,27.3,228,27.2z M131.7,66.6c1.6,0.2,1.7,0.1,1.6-0.7
		C132.6,65.8,132.2,66.3,131.7,66.6z M179.8,33.9c1.5,0,3,0.2,4.5,0C182.8,33.9,181.3,33.9,179.8,33.9z M165.1,19.9
		c-1.4-0.1-2.9,0.1-4.3,0.2C162.2,20.4,163.6,19.9,165.1,19.9z M172.2,48.2C172.2,48.1,172.2,48.1,172.2,48.2
		c-1.5-0.1-2.9-0.1-4.4-0.1c0,0,0,0.1,0,0.1C169.2,48.2,170.7,48.2,172.2,48.2z M128.1,62.9c1.4,0.2,2.8,0.3,4.2,0
		C130.9,62.9,129.5,62.9,128.1,62.9z M122.4,56.4c1,0,2,0.4,3,0C124.4,56.4,123.4,56.4,122.4,56.4z M102.4,41.5c-1,0-1.8,0-2.6,0
		C100.7,41.8,101.5,41.8,102.4,41.5z M66.4,81.3c0.6,0.3,1.2,0.3,1.8,0.1C67.6,81.3,67,81,66.4,81.3z M209.9,36.6
		c0.6,0.1,1.1-0.2,1.6-0.4C211,36.3,210.3,35.9,209.9,36.6z M152.2,42.6c0.6-0.1,1.1-0.1,1.8-0.2C152.4,42.1,152.4,42.1,152.2,42.6z
		 M224.1,27.1c-0.6,0-1.1,0.1-1.7,0.1C223,27.6,223.6,27.5,224.1,27.1z M90.2,81.5c-0.8-0.3-1.3-0.3-1.9,0
		C88.9,81.5,89.4,81.5,90.2,81.5z M162.2,25.3c-0.5-0.2-0.9-0.4-1.5-0.3C161.2,25.6,161.5,25.8,162.2,25.3z M211,27.3
		c-0.5,0-1,0-1.5-0.1C210,27.6,210.5,27.6,211,27.3z M96.6,81.3c0.8,0,1.5,0,2.3,0C98.1,81.1,97.4,81.3,96.6,81.3z M66.1,73.6
		c-0.7,0-1.4-0.4-2.1,0C64.7,73.6,65.4,73.6,66.1,73.6z M141.7,70.6C141.7,70.5,141.7,70.5,141.7,70.6c-0.7-0.1-1.4-0.1-2.1-0.1
		c0,0,0,0.1,0,0.1C140.3,70.6,141,70.6,141.7,70.6z M225.1,37.9c-0.7-0.2-1.4-0.2-2.2,0C223.7,37.9,224.4,37.9,225.1,37.9z
		 M234.3,36.8c1.1,0.3,1.1,0.3,1.7,0.2C235.5,36.7,234.9,36.8,234.3,36.8z M149.8,48.1c-0.8-0.4-1.4,0-2,0
		C148.5,48.1,149.1,48.1,149.8,48.1z M97.9,41.7C97.9,41.7,97.9,41.7,97.9,41.7c-0.6-0.1-1.2-0.1-1.9-0.1c0,0,0,0.1,0,0.1
		C96.7,41.7,97.3,41.7,97.9,41.7z M103.4,57.2C103.4,57.2,103.4,57.3,103.4,57.2c0.6,0.1,1.2,0.1,1.8,0.1c0,0,0-0.1,0-0.1
		C104.6,57.2,104,57.2,103.4,57.2z M162.3,17.6c1.2,0.1,1.2,0.1,1.8-0.3C163.4,17.4,162.8,17.6,162.3,17.6z M76.7,19
		C76.7,19,76.7,19,76.7,19C76,19,75.4,19,74.8,19c0,0,0,0,0,0.1C75.4,19,76,19,76.7,19z M152.5,46.8c0-0.1,0-0.2,0-0.3
		c-0.5,0.1-1.1,0.1-1.6,0.2c0,0,0,0.1,0,0.1C151.5,46.8,152,46.8,152.5,46.8z M231.7,37.8C231.7,37.8,231.7,37.8,231.7,37.8
		c-0.6,0-1.2,0-1.9,0c0,0,0,0,0,0C230.5,37.8,231.1,37.8,231.7,37.8z M166,37c0.6,0.1,0.6,0.1,1.1-0.1C166.7,36.8,166.3,36.7,166,37
		z M78.4,18.9c0.5,0.2,0.9,0.2,1.4-0.1C79.3,18.7,78.9,18.7,78.4,18.9z M63.3,81.3C63.3,81.3,63.3,81.3,63.3,81.3
		c0.5,0.1,1.1,0.1,1.7,0.1c0,0,0-0.1,0-0.1C64.4,81.3,63.9,81.3,63.3,81.3z M64.2,76.9C64.2,76.9,64.2,77,64.2,76.9
		c0.5,0.1,1,0.1,1.6,0.1c0,0,0,0,0-0.1C65.3,76.9,64.8,76.9,64.2,76.9z M38,21.6c0.4,0.2,0.7,0.3,1.1,0C38.8,21.4,38.5,21.4,38,21.6
		z M156.4,42.2c0-0.4-0.2-0.5-0.6-0.3c-0.1,0.1-0.3,0.1-0.3,0.3c0.2,0,0.3,0.1,0.5,0.1C156.1,42.3,156.2,42.3,156.4,42.2z M136,19.7
		C136,19.7,136,19.7,136,19.7c0.5,0.1,1.1,0.1,1.6,0.1c0,0,0,0,0-0.1C137.1,19.7,136.5,19.7,136,19.7z M138.9,48.1
		C138.9,48.1,138.9,48.1,138.9,48.1c0.5,0,0.9,0,1.4,0c0,0,0,0,0,0C139.8,48.1,139.4,48.1,138.9,48.1z M147.1,58.5
		c0.3,0.2,0.7,0.2,1.3,0.1C147.9,58.5,147.5,58.3,147.1,58.5z M158.8,56.9c-0.4-0.2-0.8-0.2-1.2,0C158,56.9,158.4,56.9,158.8,56.9z
		 M218.2,42.1C218.2,42.1,218.2,42.1,218.2,42.1c0.4,0.1,0.9,0.1,1.3,0.1c0,0,0,0,0-0.1C219.1,42.1,218.7,42.1,218.2,42.1z
		 M43.3,21.1c0.5,0.2,0.8,0.3,1.2,0.2C44.1,21.1,43.7,21,43.3,21.1z M168.9,36.8c0.3,0,0.7,0.2,1-0.1
		C169.6,36.8,169.2,36.8,168.9,36.8z M120.3,57.4c-0.3-0.2-0.6-0.2-1,0.1C119.7,57.6,120,57.6,120.3,57.4z M40.1,21.8
		c0.4,0,0.7,0.3,1.2,0C40.9,21.7,40.5,21.6,40.1,21.8z M150.9,58.6c0.3,0.1,0.6,0.1,1,0C151.5,58.6,151.2,58.5,150.9,58.6z
		 M54.8,76.3c0,0.2,0.1,0.2,0.2,0.2c0.1,0,0.3,0.1,0.3-0.2C55.1,76.2,55,76.2,54.8,76.3z M123.4,66.5
		C123.4,66.4,123.4,66.4,123.4,66.5c-0.4-0.1-0.7-0.1-1-0.1c0,0,0,0,0,0.1C122.7,66.5,123.1,66.5,123.4,66.5z M48.9,74
		C48.9,74,48.9,74,48.9,74c0.3,0.1,0.6,0.1,0.9,0.1c0,0,0-0.1,0-0.1C49.5,74,49.2,74,48.9,74z M80,39.8c0.4,0,0.7,0.1,0.8-0.2
		C80.6,39.6,80.3,39.5,80,39.8z M68.5,73.5c-0.4,0-0.7-0.2-1.1,0C67.7,73.5,68.1,73.5,68.5,73.5z M112.4,73.3
		C112.4,73.3,112.4,73.3,112.4,73.3c-0.3-0.1-0.7-0.1-1-0.1c0,0,0,0,0,0.1C111.7,73.3,112.1,73.3,112.4,73.3z M229.7,30.3
		C229.7,30.2,229.7,30.2,229.7,30.3c-0.3-0.1-0.5-0.1-0.8-0.1c0,0,0,0,0,0.1C229.2,30.3,229.4,30.3,229.7,30.3z M208.1,37.1
		c0.3,0.1,0.5,0.1,0.8,0C208.6,37.1,208.3,37.1,208.1,37.1z M109.1,47.6c0,0,0,0.1,0,0.1c0,0,0.1,0,0.1,0c0.2-0.1,0.3-0.2,0.5-0.3
		C109.5,47.4,109.3,47.4,109.1,47.6z M113.7,47.9c-0.5-0.3-0.7-0.3-0.9,0C113,47.9,113.2,47.9,113.7,47.9z M83.9,48.8
		c-0.4-0.1-0.7-0.1-1.1,0C83.2,48.9,83.5,48.9,83.9,48.8z M91.9,79.1c0.5,0.1,0.8,0.1,1.1,0C92.7,78.9,92.4,78.9,91.9,79.1z
		 M134.9,47c-0.2-0.2-0.4-0.2-0.8,0C134.5,47,134.7,47,134.9,47z M74.6,47.8c-0.2-0.2-0.4-0.2-0.6,0C74.2,48,74.4,48,74.6,47.8z
		 M69.5,48c0.5,0,0.7,0.1,0.9-0.1C70.1,47.8,69.9,47.8,69.5,48z M184.8,48c0,0-0.1-0.1-0.1-0.1c-0.1,0-0.2,0-0.2,0.1
		c0,0,0.1,0.1,0.1,0.1C184.6,48.1,184.7,48.1,184.8,48z M213.9,37.1c0.2,0.1,0.4,0.1,0.6-0.1C214.4,37.1,214.1,37,213.9,37.1z
		 M126.2,63c0.3,0.1,0.5,0,0.7,0C126.6,63,126.4,63,126.2,63z M163.1,38.2c0,0-0.1-0.1-0.1-0.1c-0.1,0-0.2,0-0.2,0.1
		c-0.1,0.2,0.1,0.2,0.2,0.2C163,38.3,163,38.2,163.1,38.2z M187.4,40.2c0.2,0.2,0.4,0.1,0.6,0C187.8,40.2,187.6,40.2,187.4,40.2z
		 M159.8,55.2c-0.2,0-0.4-0.2-0.5,0C159.5,55.2,159.7,55.2,159.8,55.2z M196.8,33.9c0.2,0.1,0.4,0.3,0.5,0
		C197.1,33.7,196.9,33.8,196.8,33.9z M141.2,42.6c-0.3,0-0.6-0.2-0.8,0.1C140.7,42.6,140.9,42.8,141.2,42.6z M235.7,33.6
		c-0.2-0.1-0.3-0.1-0.5,0C235.4,33.7,235.6,33.8,235.7,33.6z M148,19.7c0.1,0.1,0.3,0.1,0.4,0C148.3,19.7,148.2,19.7,148,19.7z
		 M212.5,35.4c-0.1-0.1-0.3-0.2-0.4-0.1C212.3,35.3,212.4,35.3,212.5,35.4z M184.7,18.5c0.1,0.1,0.3,0.2,0.4,0
		C184.9,18.5,184.8,18.5,184.7,18.5z M174.5,17c-0.1-0.2-0.3-0.2-0.4,0C174.3,17,174.4,17,174.5,17z M227.9,37.1
		c-0.2-0.1-0.3-0.1-0.5,0C227.6,37.2,227.8,37.2,227.9,37.1z M181.5,44.4C181.5,44.4,181.5,44.5,181.5,44.4c0.2,0.1,0.3,0.1,0.4,0
		c0,0,0,0,0,0C181.7,44.4,181.6,44.4,181.5,44.4z M186.3,46.5c0.1,0.1,0.3,0.2,0.4,0C186.5,46.5,186.4,46.5,186.3,46.5z M93.4,41.7
		c0.2,0.1,0.3,0.1,0.5,0C93.8,41.6,93.6,41.6,93.4,41.7z M212.9,37.7c-0.3-0.1-0.4-0.1-0.5,0.1C212.6,38,212.7,37.9,212.9,37.7z
		 M84.1,41.9c-0.4-0.1-0.5-0.2-0.7,0C83.5,42,83.7,42,84.1,41.9z M189.2,40.3c0.1,0,0.2-0.1,0.2-0.1c0-0.2-0.1-0.1-0.2-0.1
		c0,0-0.1,0.1-0.1,0.1C189,40.2,189.1,40.3,189.2,40.3z M93.2,48c-0.1,0-0.1-0.1-0.2-0.1c-0.1,0-0.2,0-0.2,0.1
		c0,0.1,0.1,0.2,0.2,0.1C93.1,48.1,93.1,48,93.2,48z M135.8,66.3c-0.2-0.1-0.4-0.2-0.5,0C135.5,66.3,135.6,66.4,135.8,66.3z
		 M162.7,48.1c-0.2-0.1-0.3-0.1-0.5,0C162.3,48.2,162.5,48.2,162.7,48.1z M106.7,81.1c0.1,0,0.1-0.1,0.1-0.2c0,0-0.1-0.1-0.1,0
		c-0.1,0-0.1,0.1-0.1,0.1C106.6,81,106.6,81,106.7,81.1z M144,68.5C144,68.5,144,68.5,144,68.5c-0.2-0.1-0.3-0.1-0.4,0c0,0,0,0,0,0
		C143.8,68.5,143.9,68.5,144,68.5z M173.4,48.1c0.1,0,0.2,0,0.3,0c0,0,0-0.1-0.1-0.1C173.5,48,173.4,48,173.4,48.1z M187.9,25.2
		c0,0-0.1,0.1-0.1,0.1c0,0,0.1,0.1,0.1,0.1c0,0,0.1,0,0.1-0.1C188,25.3,188,25.2,187.9,25.2z M81.9,76.2c0.1,0.1,0.2,0.1,0.3,0
		C82.2,76.2,82.1,76.2,81.9,76.2z M56.6,76.7c0.1,0,0.1,0.1,0.2,0.1c0.1,0,0.1-0.1,0.1-0.1C56.8,76.6,56.7,76.6,56.6,76.7
		C56.7,76.6,56.6,76.7,56.6,76.7z M92.7,76.5C92.7,76.5,92.8,76.5,92.7,76.5c0.1,0,0.3,0.1,0.3,0C92.9,76.5,92.8,76.5,92.7,76.5z
		 M189.3,33.9C189.2,33.9,189.2,33.9,189.3,33.9c-0.1,0-0.2-0.1-0.3,0C189.1,33.9,189.2,33.9,189.3,33.9z M200.2,33.9
		c-0.1-0.1-0.2-0.1-0.3,0C200.1,33.9,200.1,34,200.2,33.9z M204.9,33.9C204.8,33.9,204.8,33.8,204.9,33.9c-0.2-0.1-0.3-0.2-0.3,0
		C204.7,33.9,204.8,33.9,204.9,33.9z M139,19.7c0.1,0,0.2,0,0.3,0c0,0,0-0.1-0.1-0.1C139.2,19.7,139.1,19.6,139,19.7z M60.3,17.6
		c0.1,0.2,0.2,0.2,0.3,0.1C60.6,17.5,60.5,17.6,60.3,17.6z M168.8,17.1c-0.1,0-0.1,0-0.2,0c0,0,0,0,0,0.1
		C168.7,17.2,168.7,17.2,168.8,17.1C168.8,17.2,168.8,17.2,168.8,17.1z M218.7,32.2c0.3,0.1,0.4,0.1,0.5,0.1c0,0,0.1,0,0.1,0
		C219.2,32.3,219.1,32.3,218.7,32.2z M204.5,37.2c0.1,0,0.2,0,0.3,0C204.8,37,204.6,37.1,204.5,37.2z M205.5,37.2
		c0,0,0.1,0.1,0.1,0.1c0,0,0.1,0,0.1,0c0.1-0.1,0-0.1,0-0.1C205.6,37.1,205.5,37.2,205.5,37.2z M221.9,32.5c0,0-0.1,0-0.1,0.1
		C221.8,32.5,221.8,32.6,221.9,32.5c0,0,0.1,0,0.1,0C221.9,32.5,221.9,32.5,221.9,32.5z M208.7,38c-0.1,0-0.1,0-0.2,0
		c0,0-0.1,0.1-0.1,0.1C208.5,38.1,208.7,38.2,208.7,38z M38.3,12.8c-0.1-0.1-0.2-0.1-0.3,0C38.1,12.8,38.2,12.8,38.3,12.8z
		 M107.6,66.4C107.6,66.4,107.6,66.4,107.6,66.4c0.1,0,0.2,0,0.3,0C107.8,66.4,107.7,66.4,107.6,66.4z M205.7,27.4
		c0.1,0.1,0.2,0.3,0.3,0.1C205.9,27.4,205.8,27.4,205.7,27.4z M134.9,70.5C134.9,70.5,134.9,70.6,134.9,70.5c0.1,0,0.2,0,0.3,0
		c0,0,0,0-0.1,0C135.1,70.5,135,70.5,134.9,70.5z M196.4,46.5c-0.1,0-0.2-0.1-0.3,0C196.2,46.6,196.3,46.6,196.4,46.5z M251.5,28.8
		c-0.1-0.1-0.2-0.1-0.3,0.1C251.3,28.9,251.4,28.9,251.5,28.8z M84.9,73.5c-0.1,0,0,0.2,0.2,0C84.9,73.5,84.8,73.5,84.9,73.5z
		 M106,73.5c0.1,0,0.1,0.1,0.1,0.1c0.1,0,0.2,0.1,0.2-0.1C106.2,73.5,106.1,73.5,106,73.5z M132.8,46.9c0.1,0.1,0.2,0.1,0.4,0
		C133,46.8,132.9,46.8,132.8,46.9z M72.7,47.8c-0.1,0-0.1-0.1-0.2-0.1c0,0-0.1,0.1-0.1,0.1c0,0.1,0.1,0.1,0.1,0.1
		C72.6,47.8,72.6,47.8,72.7,47.8z M164.3,48.1c0.1,0.1,0.2,0.1,0.3,0.1c0,0,0-0.1,0-0.1C164.4,48,164.3,47.9,164.3,48.1z M193.1,48
		c-0.1,0-0.1,0.1-0.1,0.1c0,0,0.1,0,0.1,0c0.1,0,0.1,0,0.2-0.1C193.2,48,193.1,48,193.1,48z M156.2,48.1
		C156.2,48.1,156.3,48.1,156.2,48.1c0.2,0,0.3,0.1,0.3-0.1C156.4,48,156.3,48,156.2,48.1z M127.2,51.3
		C127.2,51.3,127.2,51.3,127.2,51.3C127,51.3,127.1,51.3,127.2,51.3C127.2,51.3,127.2,51.3,127.2,51.3z M198.3,33.8c0,0-0.1,0-0.1,0
		c-0.1,0-0.1,0.1,0,0.1C198.2,33.9,198.2,33.9,198.3,33.8C198.3,33.9,198.2,33.9,198.3,33.8z M232.8,26
		C232.8,26,232.8,25.9,232.8,26c-0.1-0.1-0.1-0.1-0.1-0.1C232.7,26,232.7,26,232.8,26C232.7,26,232.8,26,232.8,26z M247.7,28.8
		C247.7,28.8,247.7,28.8,247.7,28.8c-0.1-0.1-0.2-0.1-0.2,0C247.5,28.9,247.6,28.9,247.7,28.8C247.7,28.9,247.7,28.9,247.7,28.8z
		 M172.1,36.6c0,0-0.1,0-0.1,0c0,0.1,0,0.1,0.1,0.1C172.1,36.7,172.1,36.7,172.1,36.6C172.1,36.6,172.1,36.6,172.1,36.6z
		 M211.9,26.2C211.9,26.2,211.9,26.2,211.9,26.2c0-0.1,0-0.1-0.1-0.1c-0.1,0-0.1,0.1,0,0.1C211.8,26.2,211.9,26.2,211.9,26.2z
		 M172.1,37.3C172,37.3,172,37.3,172.1,37.3C172,37.3,172.1,37.3,172.1,37.3C172.1,37.3,172.1,37.3,172.1,37.3z M159.9,38.2
		C159.8,38.2,159.8,38.2,159.9,38.2C159.8,38.3,159.9,38.3,159.9,38.2C159.9,38.3,160,38.3,159.9,38.2
		C160,38.2,159.9,38.2,159.9,38.2z M149.3,56.1C149.3,56.1,149.3,56.1,149.3,56.1c0,0.1,0.1,0.1,0.1,0.1c0,0,0-0.1,0-0.1
		C149.4,56.1,149.3,56.1,149.3,56.1z M31.8,11.7c-0.1,0-0.1,0-0.1,0.1c0,0,0.1,0,0.1,0C31.8,11.8,31.8,11.8,31.8,11.7z M120.6,56.3
		c0-0.1-0.1-0.1-0.2,0c0,0,0,0,0.1,0C120.5,56.4,120.6,56.4,120.6,56.3z M115.3,73C115.2,73,115.2,73,115.3,73
		c-0.1,0.1-0.1,0.1,0,0.1C115.3,73.1,115.3,73.1,115.3,73C115.3,73,115.3,73,115.3,73z M144.9,46.8c0,0-0.1,0.1-0.1,0.1
		c0,0,0.1,0,0.1,0.1C145,47,145,46.9,144.9,46.8C145,46.8,144.9,46.8,144.9,46.8z M127.4,47.2C127.4,47.1,127.4,47.1,127.4,47.2
		c-0.1-0.1-0.2-0.1-0.2,0c0,0,0,0.1,0.1,0.1C127.4,47.3,127.4,47.2,127.4,47.2z M248.7,28.8C248.7,28.8,248.7,28.8,248.7,28.8
		C248.7,28.9,248.7,28.9,248.7,28.8C248.8,28.9,248.9,28.9,248.7,28.8C248.8,28.8,248.8,28.8,248.7,28.8z M111.1,47.6
		C111.1,47.6,111.1,47.5,111.1,47.6c-0.1-0.1-0.1-0.1-0.1-0.1C110.9,47.6,110.9,47.6,111.1,47.6C111.1,47.7,111.1,47.6,111.1,47.6z
		 M144.7,47.9C144.8,48,144.8,48,144.7,47.9c0.2,0,0.2,0,0.2-0.1C144.9,47.8,144.8,47.8,144.7,47.9
		C144.8,47.9,144.7,47.9,144.7,47.9z M80.6,48.9C80.6,48.8,80.7,48.9,80.6,48.9C80.7,48.8,80.7,48.7,80.6,48.9
		C80.6,48.8,80.6,48.8,80.6,48.9C80.6,48.8,80.6,48.8,80.6,48.9z M245.2,28.9c-0.1,0-0.1,0-0.2,0C245.1,28.9,245.1,28.9,245.2,28.9z
		 M125.1,63C125.2,63,125.1,62.9,125.1,63c-0.1-0.1-0.1,0-0.1,0C125.1,63,125.1,63,125.1,63z M80.8,66.6
		C80.8,66.7,80.8,66.7,80.8,66.6c0,0.1,0.1,0.1,0.1,0.1c0,0,0-0.1,0-0.1C80.9,66.6,80.8,66.6,80.8,66.6z M87.1,81.5
		C87.1,81.4,87.1,81.4,87.1,81.5c-0.1-0.1-0.1-0.1-0.1-0.1C87,81.4,87,81.5,87.1,81.5C87,81.5,87.1,81.5,87.1,81.5z M229.9,27.2
		C229.9,27.1,229.9,27.1,229.9,27.2c0.1-0.1,0-0.2,0-0.1C229.8,27,229.8,27.1,229.9,27.2C229.8,27.1,229.8,27.1,229.9,27.2z
		 M125.9,61.8c0,0-0.1-0.1-0.1-0.1c0,0,0,0-0.1,0.1C125.8,61.8,125.8,61.8,125.9,61.8C125.9,61.9,125.9,61.8,125.9,61.8z M75.2,70.4
		C75.2,70.4,75.1,70.4,75.2,70.4c-0.1,0-0.1,0-0.1,0C75.1,70.5,75.1,70.5,75.2,70.4C75.2,70.5,75.2,70.4,75.2,70.4z M105.6,66.4
		C105.5,66.5,105.5,66.5,105.6,66.4c0.1,0.1,0.1,0,0.1,0C105.6,66.4,105.6,66.4,105.6,66.4z M149.1,59.7c0,0.1,0,0.1-0.1,0.2
		c0,0,0.1,0,0.1,0C149.2,59.9,149.2,59.8,149.1,59.7C149.1,59.7,149.1,59.7,149.1,59.7z M151.5,59.4
		C151.5,59.3,151.5,59.3,151.5,59.4C151.4,59.3,151.4,59.3,151.5,59.4c-0.1-0.1-0.1,0-0.1,0C151.4,59.4,151.4,59.4,151.5,59.4z
		 M227.8,30.3C227.8,30.2,227.8,30.2,227.8,30.3c0-0.1,0-0.1-0.1-0.1c-0.1,0-0.1,0.1,0,0.1C227.7,30.3,227.8,30.2,227.8,30.3z
		 M135.1,58.2c0.1,0,0.1,0,0.2,0C135.2,58.2,135.1,58.2,135.1,58.2z M42,20.8c0,0-0.1,0-0.1,0C41.8,20.8,41.8,20.9,42,20.8
		C42,20.9,42,20.8,42,20.8z M119.1,72.9c0,0,0.1,0,0.1,0c0.1-0.1,0-0.1-0.1-0.1C119.1,72.8,119,72.8,119.1,72.9
		C119,72.8,119.1,72.9,119.1,72.9z M229,27.3L229,27.3L229,27.3L229,27.3z M100.4,81.3L100.4,81.3L100.4,81.3L100.4,81.3z
		 M252.6,28.9L252.6,28.9L252.6,28.9L252.6,28.9z M79.6,66.7L79.6,66.7L79.6,66.7L79.6,66.7z M170.3,24.7L170.3,24.7L170.3,24.7
		L170.3,24.7z M166.2,19.9L166.2,19.9L166.2,19.9L166.2,19.9z M193.4,33.9L193.4,33.9L193.4,33.9L193.4,33.9z M140.3,19.7
		L140.3,19.7L140.3,19.7L140.3,19.7z M73.6,19L73.6,19L73.6,19L73.6,19z M188.4,36L188.4,36L188.4,36L188.4,36z M183.6,18.5
		L183.6,18.5L183.6,18.5L183.6,18.5z M206.6,37.1L206.6,37.1L206.6,37.1L206.6,37.1z M54.2,16.3L54.2,16.3L54.2,16.3L54.2,16.3z
		 M161.4,38.3L161.4,38.3L161.4,38.3L161.4,38.3z M193.2,44.2L193.2,44.2L193.2,44.2L193.2,44.2z M184.3,44.4L184.3,44.4L184.3,44.4
		L184.3,44.4z M60,45L60,45L60,45L60,45z M67,44.9L67,44.9L67,44.9L67,44.9z M103.8,66.4L103.8,66.4L103.8,66.4L103.8,66.4z
		 M185,46.5L185,46.5L185,46.5L185,46.5z M189.2,46.6L189.2,46.6L189.2,46.6L189.2,46.6z M192.8,46.5L192.8,46.5L192.8,46.5
		L192.8,46.5z M140,47L140,47L140,47L140,47z M217.8,26.2L217.8,26.2L217.8,26.2L217.8,26.2z M134.8,47.8L134.8,47.8L134.8,47.8
		L134.8,47.8z M189.1,48.1L189.1,48.1L189.1,48.1L189.1,48.1z M195,48.3L195,48.3L195,48.3L195,48.3z M195.7,48.3L195.7,48.3
		L195.7,48.3L195.7,48.3z M158.6,49L158.6,49L158.6,49L158.6,49z M149.2,49.3L149.2,49.3L149.2,49.3L149.2,49.3z M171,20.8L171,20.8
		L171,20.8L171,20.8z M239,31.4L239,31.4L239,31.4L239,31.4z M250.2,28.8L250.2,28.8L250.2,28.8L250.2,28.8z M54.8,73.3L54.8,73.3
		L54.8,73.3L54.8,73.3z M63.1,73.5L63.1,73.5L63.1,73.5L63.1,73.5z M70.7,73.5L70.7,73.5L70.7,73.5L70.7,73.5z M73,73.5L73,73.5
		L73,73.5L73,73.5z M86.9,73.6L86.9,73.6L86.9,73.6L86.9,73.6z M112.8,57.5L112.8,57.5L112.8,57.5L112.8,57.5z M94.7,75.6L94.7,75.6
		L94.7,75.6L94.7,75.6z M102,66.3L102,66.3L102,66.3L102,66.3z M34.5,77.2L34.5,77.2L34.5,77.2L34.5,77.2z"/>
	<path class="st0" d="M243.7,45c-1.2,0-2.4,0-3.5-0.8c-0.1-0.3,0-0.5,0.3-0.6c1-0.2,1.8-0.8,2.9-0.7c0.3,0,0.6-0.2,1.1-0.3
		c-0.7-0.3-1.4,0.2-1.9-0.3c0.2-0.2,2.5-1.8,2.8-2c-0.2-0.1-0.5-0.1-0.6-0.4c0.1-0.4,0.5-0.5,0.9-0.5c0.5,0,1.1-0.1,1.6,0.2
		c0.4,0.2,0.3,0.6,0,0.8c-0.3,0.1-0.6,0.2-0.7,0.5c0,0,0,0.1,0,0.1c0.1,0.3,0.4,0.3,0.7,0.2c0.5-0.2,1.1-0.4,1.6-0.6
		c1-0.4,1.4-0.5,2.5-0.4c-0.2,0.6-0.7,0.7-1.1,1.1l0,0c-1.1,0.3-2.3,0.2-3.4,0.5c-0.5,0.1-1.1,0.3-1.1,1c0,0.3-0.3,0.5-0.5,0.5
		c-0.6,0.2-1,0.7-1.5,0.9c0,0.3,0.3,0.2,0.4,0.4C244.1,44.9,243.9,44.9,243.7,45L243.7,45z"/>
	<path class="st0" d="M262.9,34c-1.2,0.6-2.2,0.7-3.3,0.7c-1.1,0-2.2,0-3.3,0c-0.7,0-1.4-0.1-2,0.3c-1.6-0.2-3.2,0.5-4.8,0.3
		c-0.1,0-0.1-0.1-0.2-0.1c0.4-0.3,0.4-0.3,1.5-0.4c-1.5-0.3-2.8-0.5-4.2-0.8c0.2,0.2,0.3,0.2,0.5,0.4c-0.5,0.3-1,0.6-1.5,0.8
		c-0.3,0.1-1.3-0.5-1.4-0.9c-0.2-0.5-0.3-0.6-0.7-0.8c0.1-0.3,0.3-0.2,0.5-0.2c1.1,0.1,2.3,0.1,3.4,0.4c0.8,0.2,1.6,0.3,2.5,0.3
		c1.7,0,3.4,0,5.1,0.2c2.1,0.3,4.3-0.1,6.4-0.3C261.9,33.8,262.3,33.7,262.9,34z"/>
	<path class="st0" d="M211,48.7c1.2-0.2,2.4-0.3,3.7-0.6c2.1-0.4,4.2-0.3,6.3-0.7c1-0.2,2-0.7,3.1-0.8c0.5-0.1,1-0.2,1.5-0.2
		c0.5-0.1,0.7,0.2,0.7,0.6c-0.2,0.3-0.5,0.2-0.8,0.3c-0.3,0-0.7,0-0.8,0.3c-0.5,0.8-1.3,0.8-2.1,0.9c-1.9,0.2-3.9,0.5-5.8,0.6
		c-1.7,0.1-3.5,0-5.3,0C211.3,49.1,211.1,49.1,211,48.7z"/>
	<path class="st0" d="M227,46.2c1.3-0.7,2.9-0.7,4.3-0.9c1-0.1,1.9-0.4,3-0.2c-0.5,0.6-1,0.8-1.7,0.9c-0.5,0-1.1-0.1-1.6,0.2
		c-0.3,0.1-0.6-0.1-0.9,0.2c0.3,0,0.6,0,0.9-0.2c0.6,0.1,1.3,0.1,1.9,0.4c-1.2,0.5-3.7,1-4.4,0.9c0,0-0.1-0.1-0.1-0.1
		c0-0.2,0.1-0.3,0.2-0.3C228.4,46.4,227.8,46,227,46.2L227,46.2z M229.2,46.5c0,0-0.1,0-0.1,0c-0.1,0-0.1,0.1,0,0.1
		C229.1,46.6,229.1,46.6,229.2,46.5C229.2,46.5,229.2,46.5,229.2,46.5z"/>
	<path class="st0" d="M239.9,40.1c0.3-0.9,0.8-0.8,1.2-0.8c0.4,0,0.9,0.1,1.4-0.1c-0.4-0.4-1.1-0.1-1.4-0.7c1.2-0.3,2.2-1.2,3.5-1.1
		c0.6,0.4,0.7,1.2,1.5,1.8C243.9,39.4,242,39.8,239.9,40.1z"/>
	<path class="st0" d="M159.8,64.3c-1.7,0.3-3.4,0.4-5.1,0.2c-0.4-0.1-0.7-0.2-0.5-0.9C156.1,63.4,157.9,63.9,159.8,64.3z"/>
	<path class="st0" d="M128.5,72.5c0.2,0,0.4,0,0.6,0.3c-1.2,0.6-2.5,0.9-3.7,1.2c-0.2-0.5,0-0.7,0.3-0.7c0.6-0.2,1.2-0.3,1.7-0.5
		c0,0,0,0,0,0C127.8,72.7,128.2,72.7,128.5,72.5L128.5,72.5z"/>
	<path class="st0" d="M136.7,62.7c1.1-1.2,1.1-1.2,2-1c0.2,0.2-0.1,0.3-0.1,0.5c0,0.2,0.2,0.2,0.3,0.3c0.1,0,0.2,0,0.3,0.3
		C138.4,62.7,137.6,62.7,136.7,62.7z"/>
	<path class="st0" d="M153.8,53.1c0.3-0.5,0.7-0.7,1.1-0.9c0.3-0.1,0.6-0.1,0.8,0.3c0.1,0.4,0,0.7-0.4,0.8
		C154.8,53.4,154.3,53.5,153.8,53.1z"/>
	<path class="st0" d="M274.3,28.8c1.1,0,2.2-0.2,3.4,0.1C276.9,29.4,275.7,29.3,274.3,28.8z"/>
	<path class="st0" d="M282.4,29.6c-1.5-0.2-2.7,0-4-0.4C279.3,28.8,281.3,29,282.4,29.6z"/>
	<path class="st0" d="M238.5,33.6c0.5-0.4,1.1-0.3,1.6-0.2c0,0,0,0,0,0c0.5,0.3,1.1,0,1.6,0.5c-0.6,0.3-1.2,0.4-2.1,0.1
		C239.2,33.7,238.9,33.5,238.5,33.6L238.5,33.6z"/>
	<path class="st0" d="M149.4,63.1c-0.1-0.7-0.3-1.3-0.1-1.8c0.5-0.1,0.7,0.2,1,0.4c-0.3,0.3-0.6,0.5-0.3,1
		C150.2,63,149.8,63.1,149.4,63.1z"/>
	<path class="st0" d="M163.4,60.3c-0.4,0.4-0.9,0.5-1.3,0.5c-0.3-0.2-0.5-0.4-0.4-0.7C161.9,59.7,162.7,59.8,163.4,60.3z"/>
	<path class="st0" d="M172.6,59.4c1-0.5,1.8-0.6,2.7-0.2C174.8,59.6,174.6,59.7,172.6,59.4z"/>
	<path class="st0" d="M265.3,36c0.8-0.2,1.6-0.5,2.5-0.3C267.3,36.1,266.2,36.3,265.3,36z"/>
	<path class="st0" d="M159,50.1c0.4,0.3,0.6,0.8,0.8,1.3c-0.4,0.2-0.8,0-1.1-0.1c-0.2-0.4,0-0.8,0.1-1.2c0,0,0.1,0,0.1,0
		C158.8,50,158.9,50,159,50.1L159,50.1z"/>
	<path class="st0" d="M154.4,61.7c0.1,0.2,0.2,0.3,0.1,0.5c-0.7,0.1-1.1,0.1-2-0.4C153.2,61.6,153.8,61.7,154.4,61.7L154.4,61.7z"/>
	<path class="st0" d="M272.7,34.1c-0.8,0.5-1.5,0.5-2.5,0.4C271.2,34,271.8,33.9,272.7,34.1z"/>
	<path class="st0" d="M252.8,26.8c-0.7,0.1-1.3,0.2-1.9-0.1C251.7,26.3,252.1,26.3,252.8,26.8z"/>
	<path class="st0" d="M250.2,41.3c0.2,0.1,0.4,0.2,0.5,0.5c-0.5,0.3-1,0.5-1.7,0.3C249.2,41.6,249.8,41.6,250.2,41.3
		C250.2,41.3,250.2,41.3,250.2,41.3z"/>
	<path class="st0" d="M248,33.1c0.7-0.2,1.3-0.3,2.1,0.2C249.2,33.6,248.6,33.4,248,33.1z"/>
	<path class="st0" d="M225.5,41.7c-1,0.1-2,0.3-3,0C223.4,41.5,224.4,41.4,225.5,41.7z"/>
	<path class="st0" d="M166.5,54c-0.6,0.3-1,0.2-1.5-0.2C165.8,53.3,165.8,53.3,166.5,54z"/>
	<path class="st0" d="M171,58.5c0.6-0.4,1.2-0.2,1.8-0.1C172.2,58.9,171.6,58.8,171,58.5z"/>
	<path class="st0" d="M169.3,58.1c-0.8,0.4-1.5,0.1-2.4,0C167.8,57.5,168.5,58.2,169.3,58.1z"/>
	<path class="st0" d="M201.4,19.7c-0.7,0.2-1.3,0.2-2.1-0.2C200.2,19,200.8,19.7,201.4,19.7z"/>
	<path class="st0" d="M203.9,19c0.6-0.2,1.1-0.1,1.7,0.2C204.9,19.4,204.4,19.4,203.9,19z"/>
	<path class="st0" d="M260.5,29.2c0.6-0.3,1.1-0.1,1.8-0.1C261.8,29.6,261.8,29.6,260.5,29.2L260.5,29.2z"/>
	<path class="st0" d="M186.2,56.9c-0.1,0.6-0.1,0.6-0.8,0.4c0-0.1,0-0.2,0-0.2c0.2-0.2,0.2-0.5,0.5-0.5
		C186.2,56.6,186.2,56.8,186.2,56.9L186.2,56.9z"/>
	<path class="st0" d="M176.2,56.5c0.7-0.1,0.7-0.1,1.7,0.2C177.2,56.7,176.7,57.1,176.2,56.5z"/>
	<path class="st0" d="M206.7,24.9c0.6-0.4,0.6-0.4,1.1-0.2C207.6,25.1,207.2,25.1,206.7,24.9z"/>
	<path class="st0" d="M175.8,54.6c0.5-0.2,0.5-0.2,1.1-0.1C176.4,55,176.4,55,175.8,54.6z"/>
	<path class="st0" d="M264.8,30.9c0.4-0.3,0.8-0.3,1.3-0.1C265.6,31.2,265.2,31.1,264.8,30.9z"/>
	<path class="st0" d="M180.3,58.3c0.5-0.4,0.5-0.4,1.1-0.3C181.1,58.4,180.7,58.3,180.3,58.3L180.3,58.3z"/>
	<path class="st0" d="M125.8,75.1c0.3-0.5,0.7-0.3,1.1-0.3C126.6,75.1,126.3,75.4,125.8,75.1z"/>
	<path class="st0" d="M243,35.8c-0.6,0.3-0.8,0.1-1.3,0C242.2,35.3,242.5,35.6,243,35.8z"/>
	<path class="st0" d="M195.3,24.3c-0.5,0.3-0.7,0.3-1.1,0C194.6,24,194.9,24.2,195.3,24.3z"/>
	<path class="st0" d="M248,43.9c0.5-0.5,0.9-0.3,1.4-0.2C248.8,43.9,248.8,43.9,248,43.9z"/>
	<path class="st0" d="M216.9,40.9c0.2-0.3,0.5-0.3,0.7-0.2c0.1,0.3-0.1,0.3-0.3,0.3C217.2,41.1,217,41.1,216.9,40.9z"/>
	<path class="st0" d="M268.4,35.8c0.3-0.4,0.5-0.4,0.8-0.2C269,35.9,268.8,35.9,268.4,35.8z"/>
	<path class="st0" d="M155.2,17.5c0.4-0.3,0.8-0.2,1.2,0C156,17.5,155.6,17.5,155.2,17.5z"/>
	<path class="st0" d="M243.7,45c0.5-0.1,1,0,1.4,0.1C244.7,45.2,244.2,45.7,243.7,45C243.7,45,243.7,45,243.7,45z"/>
	<path class="st0" d="M282.9,29.4c0.3-0.2,0.5-0.3,0.7,0.1C283.3,29.7,283.1,29.7,282.9,29.4z"/>
	<path class="st0" d="M248.8,40c0.1-0.4,0.4-0.2,0.6-0.3c0.2,0.3-0.1,0.4-0.2,0.4C249.1,40.2,248.9,40.2,248.8,40z"/>
	<path class="st0" d="M159,17.7c-0.4,0-0.7,0-1.1-0.3C158.4,17.2,158.7,17.5,159,17.7L159,17.7z"/>
	<path class="st0" d="M183.5,20.2c0.2-0.2,0.3-0.4,0.7-0.3c0.2,0.4-0.2,0.4-0.4,0.6c0,0-0.1-0.1-0.1-0.1
		C183.6,20.4,183.6,20.3,183.5,20.2L183.5,20.2z"/>
	<path class="st0" d="M289.7,32c0.1-0.2,0.3-0.3,0.6-0.1C290.1,32.1,290,32.3,289.7,32z"/>
	<path class="st0" d="M178.6,59.8c-0.4,0.2-0.7,0.2-1.1,0C177.9,59.5,178.2,59.5,178.6,59.8z"/>
	<path class="st0" d="M159,59.9c-0.1,0.2-0.3,0.2-0.4,0.1c-0.1-0.1-0.1-0.2,0-0.3C158.7,59.7,158.9,59.7,159,59.9z"/>
	<path class="st0" d="M201,18.6c0-0.1,0.1-0.2,0.2-0.1c0.1,0,0.2,0.1,0.2,0.2c0,0.1-0.1,0.1-0.2,0.1C201.1,18.8,201,18.8,201,18.6z"
		/>
	<path class="st0" d="M196.4,24.4c-0.3,0.1-0.4,0.2-0.6,0C195.9,24.1,196.1,24.2,196.4,24.4z"/>
	<path class="st0" d="M160.5,58.7c0.2-0.2,0.4-0.2,0.6-0.1C160.9,58.9,160.7,58.9,160.5,58.7z"/>
	<path class="st0" d="M260.5,29.2c-0.2,0.2-0.4,0.3-0.7,0.1C260,29,260.2,29.2,260.5,29.2C260.5,29.2,260.5,29.2,260.5,29.2z"/>
	<path class="st0" d="M190.1,19.9c-0.1,0-0.1-0.1-0.2-0.1c0,0,0.1-0.1,0.1-0.1c0,0,0.1,0,0.1,0C190.2,19.8,190.1,19.9,190.1,19.9z"
		/>
	<path class="st0" d="M235.6,25.9c0,0-0.1-0.1-0.1-0.1c0.1,0,0.1-0.1,0.2-0.1c0,0,0.1,0.1,0.1,0.1C235.7,25.8,235.6,25.8,235.6,25.9
		z"/>
	<path class="st0" d="M238.9,37.8c-0.1,0-0.2,0-0.2-0.1c-0.1-0.1,0-0.2,0.1-0.2c0.1,0,0.2,0,0.2,0.1C239.1,37.7,239,37.7,238.9,37.8
		z"/>
	<path class="st0" d="M224.6,45.8c0.1,0,0.1,0,0.2,0.1c0.1,0.1,0,0.2-0.1,0.2c0,0-0.1-0.1-0.1-0.1C224.5,45.9,224.5,45.8,224.6,45.8
		z"/>
	<path class="st0" d="M251.4,37.8c0,0,0.1,0.1,0.1,0.1c0,0-0.1,0.1-0.1,0.1c0,0-0.1-0.1-0.1-0.1C251.3,37.9,251.4,37.8,251.4,37.8z"
		/>
	<path class="st0" d="M246.7,32.2c-0.1,0-0.2,0-0.2-0.2c0-0.1,0.1-0.2,0.2-0.2c0.1,0,0.1,0.1,0.2,0.1
		C247,32.1,246.9,32.1,246.7,32.2z"/>
	<path class="st0" d="M226.9,41.7c0.3-0.1,0.5-0.2,0.7,0C227.4,41.9,227.2,41.8,226.9,41.7z"/>
	<path class="st0" d="M211,20.9c0.1-0.3,0.3-0.2,0.6-0.1C211.4,21,211.2,21.2,211,20.9z"/>
	<path class="st0" d="M156.4,49.3c0,0,0.1,0.1,0.1,0.1c-0.1,0-0.1,0.1-0.2,0.1c0,0-0.1-0.1-0.1-0.1
		C156.3,49.4,156.3,49.3,156.4,49.3z"/>
	<path class="st0" d="M214.9,20.9c0.2-0.3,0.4-0.2,0.6-0.1C215.3,21.1,215.1,20.9,214.9,20.9z"/>
	<path class="st0" d="M206.5,19.2c0,0,0.1,0.1,0.1,0.1c0,0-0.1,0.1-0.1,0.1c0,0-0.1-0.1-0.1-0.1C206.4,19.3,206.4,19.3,206.5,19.2z"
		/>
	<path class="st0" d="M160.4,17.3c-0.2,0.3-0.4,0.2-0.6,0.2C159.9,17.2,160.1,17.3,160.4,17.3z"/>
	<path class="st0" d="M138.6,17.2c0,0-0.1,0.1-0.1,0.1c-0.1,0-0.2,0-0.2-0.1c0,0,0.1-0.1,0.1-0.1C138.5,17,138.6,17.1,138.6,17.2z"
		/>
	<path class="st0" d="M179.6,16.2c-0.2,0.1-0.3,0.2-0.5,0.1C179.2,16,179.2,16,179.6,16.2L179.6,16.2z"/>
	<path class="st0" d="M250.1,26.7c-0.1,0-0.1,0.1-0.2,0.1c-0.1,0-0.1-0.1,0-0.2c0,0,0.1-0.1,0.1,0C250,26.6,250.1,26.6,250.1,26.7z"
		/>
	<path class="st0" d="M179.7,20.1C179.6,20.1,179.6,20.1,179.7,20.1c-0.2,0.1-0.2,0-0.1-0.1C179.5,20,179.6,20,179.7,20.1
		C179.6,20,179.7,20.1,179.7,20.1z"/>
	<path class="st0" d="M264.1,33.7C264.2,33.8,264.2,33.8,264.1,33.7c0,0.1,0,0.1-0.1,0.1C264,33.8,264,33.7,264.1,33.7z"/>
	<path class="st0" d="M107.3,75.5c0,0-0.1,0.1-0.1,0.1c-0.1,0-0.1-0.1-0.2-0.1c0.1,0,0.1-0.1,0.2-0.1
		C107.2,75.4,107.3,75.5,107.3,75.5z"/>
	<path class="st0" d="M238.6,25.7c-0.1,0-0.1,0-0.2,0c0,0,0-0.1,0-0.1C238.4,25.6,238.5,25.6,238.6,25.7
		C238.6,25.6,238.6,25.6,238.6,25.7z"/>
	<path class="st0" d="M197.3,19.4C197.2,19.4,197.2,19.4,197.3,19.4c-0.1-0.1-0.1-0.1,0-0.1C197.3,19.3,197.3,19.3,197.3,19.4
		C197.3,19.3,197.3,19.4,197.3,19.4z"/>
	<path class="st0" d="M196.5,19.2C196.5,19.2,196.5,19.1,196.5,19.2c0-0.1,0-0.1,0.1-0.1C196.6,19.1,196.6,19.1,196.5,19.2
		C196.6,19.2,196.5,19.2,196.5,19.2z"/>
	<path class="st0" d="M194.4,19C194.4,19.1,194.4,19.1,194.4,19c-0.1,0.1-0.2,0.1-0.2,0C194.2,19,194.3,19,194.4,19
		C194.4,19,194.4,19,194.4,19z"/>
	<path class="st0" d="M103.7,75.7c0.1,0,0.1,0,0.1,0.1c0,0-0.1,0-0.1,0C103.7,75.9,103.6,75.9,103.7,75.7
		C103.6,75.8,103.7,75.8,103.7,75.7z"/>
	<path class="st0" d="M246,27.8c-0.1,0-0.1-0.1-0.1-0.1c0,0,0.1,0,0.2,0c0,0,0,0,0.1,0.1C246.2,27.7,246.1,27.8,246,27.8z"/>
	<path class="st0" d="M227.6,45.2c-0.1,0-0.1,0.1-0.2,0.1c0,0-0.1-0.1-0.1-0.1c0.1,0,0.1-0.1,0.2-0.1
		C227.5,45,227.6,45.1,227.6,45.2z"/>
	<polygon class="st0" points="227.5,46.8 227.5,46.9 227.4,46.8 	"/>
	<path class="st0" d="M208.6,48.1c0-0.1,0-0.1,0-0.2c0,0,0.1,0,0.1,0C208.7,48,208.7,48,208.6,48.1
		C208.7,48.1,208.6,48.1,208.6,48.1z"/>
	<path class="st0" d="M199.8,24.5c0,0-0.1-0.1-0.1-0.1c0,0,0.1-0.1,0.1,0C199.8,24.4,199.8,24.4,199.8,24.5
		C199.8,24.5,199.8,24.5,199.8,24.5z"/>
	<path class="st0" d="M258,26.9C258,26.9,258,27,258,26.9c-0.1,0-0.1,0-0.1-0.1C258,26.8,258,26.8,258,26.9z"/>
	<path class="st0" d="M156.9,59.8C156.9,59.9,157,59.9,156.9,59.8c0.1,0.1,0.1,0.1,0.1,0.1C156.9,60,156.9,60,156.9,59.8
		C156.8,59.9,156.9,59.9,156.9,59.8z"/>
	<path class="st0" d="M269.5,29.5C269.5,29.5,269.5,29.5,269.5,29.5c0.1,0.1,0.1,0.2,0,0.2c0,0-0.1,0-0.1,0
		C269.3,29.6,269.4,29.5,269.5,29.5z"/>
	<path class="st0" d="M208.3,20.8C208.3,20.8,208.2,20.8,208.3,20.8c-0.2,0.1-0.2,0-0.2-0.1c0,0,0.1-0.1,0.1-0.1
		C208.3,20.6,208.3,20.7,208.3,20.8z"/>
	<path class="st0" d="M176,23.5C176,23.5,176.1,23.5,176,23.5c0.1,0.1,0.1,0.1,0,0.1C176,23.7,176,23.6,176,23.5
		C176,23.6,176,23.6,176,23.5z"/>
	<polygon class="st0" points="145.2,62.5 145.1,62.6 145.1,62.5 	"/>
	<path class="st0" d="M189.2,23.3C189.2,23.3,189.1,23.3,189.2,23.3c-0.1-0.1-0.1-0.1,0-0.1C189.2,23.2,189.3,23.3,189.2,23.3z"/>
	<path class="st0" d="M158.9,61.8C158.9,61.8,158.9,61.9,158.9,61.8c0,0.1-0.1,0.1-0.1,0.1C158.8,61.9,158.8,61.8,158.9,61.8
		C158.8,61.8,158.9,61.8,158.9,61.8z"/>
	<path class="st0" d="M250.7,33.1C250.7,33.1,250.7,33.2,250.7,33.1C250.7,33.3,250.6,33.2,250.7,33.1
		C250.6,33.1,250.7,33.1,250.7,33.1z"/>
	<polygon class="st0" points="267.7,29.3 267.7,29.3 267.6,29.3 	"/>
	<path class="st0" d="M135.3,15.4C135.3,15.4,135.4,15.4,135.3,15.4c0.1-0.1,0.1-0.1,0.1,0C135.5,15.4,135.4,15.4,135.3,15.4
		C135.4,15.4,135.4,15.4,135.3,15.4z"/>
	<path class="st0" d="M223.8,46C223.8,46,223.8,46.1,223.8,46c0,0.1-0.1,0.1-0.1,0.1C223.6,46.1,223.6,46,223.8,46
		C223.7,46,223.7,46,223.8,46z"/>
	<path class="st0" d="M247.8,27.7C247.8,27.7,247.8,27.8,247.8,27.7c-0.2,0.1-0.2,0-0.2-0.1C247.7,27.6,247.8,27.6,247.8,27.7
		C247.8,27.7,247.8,27.7,247.8,27.7z"/>
	<path class="st0" d="M108,75.5C108,75.5,108,75.5,108,75.5c0.1-0.1,0.1-0.1,0.1,0C108.1,75.5,108.1,75.6,108,75.5
		C108.1,75.6,108,75.6,108,75.5z"/>
	<polygon class="st0" points="180.3,16 180.4,16 180.3,16.1 	"/>
	<polygon class="st0" points="188,19.8 187.9,19.8 188,19.8 	"/>
	<polygon class="st0" points="238.9,40.3 238.9,40.3 238.9,40.3 	"/>
	<polygon class="st0" points="228.6,41.7 228.7,41.7 228.6,41.7 	"/>
	<path class="st0" d="M181.9,59.7C181.9,59.7,181.8,59.7,181.9,59.7C181.8,59.7,181.9,59.7,181.9,59.7
		C181.9,59.7,181.9,59.7,181.9,59.7z"/>
	<polygon class="st0" points="161.6,61.6 161.6,61.5 161.7,61.5 	"/>
	<polygon class="st0" points="120.1,76.5 120,76.5 120.1,76.5 	"/>
	<path class="st0" d="M97.8,75.9L97.8,75.9C97.8,75.9,97.8,75.9,97.8,75.9z"/>
	<path class="st0" d="M130.3,72.3c-0.1,0-0.2,0-0.2,0l0,0C130.2,72.3,130.3,72.3,130.3,72.3L130.3,72.3z"/>
	<polygon class="st0" points="148.2,65.1 148.3,65.1 148.2,65.2 	"/>
	<path class="st0" d="M184,60.3C184,60.3,183.9,60.4,184,60.3C183.9,60.4,184,60.3,184,60.3z"/>
	<path class="st0" d="M149.6,60.3L149.6,60.3C149.6,60.4,149.6,60.4,149.6,60.3C149.6,60.4,149.6,60.3,149.6,60.3z"/>
	<path class="st0" d="M155.5,59.7L155.5,59.7L155.5,59.7z"/>
	<path class="st0" d="M159,49.8c0,0.1,0,0.2,0,0.2c0,0,0,0,0,0C159,50,159,49.9,159,49.8L159,49.8z"/>
	<path class="st0" d="M227,46.1L227,46.1C227,46.2,227,46.1,227,46.1z"/>
	<path class="st0" d="M238.5,33.5C238.5,33.5,238.5,33.6,238.5,33.5L238.5,33.5z"/>
	<path class="st0" d="M196.1,25.1L196.1,25.1C196.1,25.1,196.1,25.1,196.1,25.1z"/>
	<polygon class="st0" points="179.6,16.1 179.6,16.2 179.6,16.2 	"/>
	<path class="st0" d="M78,80.2c0-0.4,0-0.6,0-0.9c0.7-0.4,1.4-0.3,2-0.1c1.2,0.5,2.4,0.5,3.7,0.7c0.1,0,0.2,0,0.4,0.3
		C82,80.3,80.1,80.6,78,80.2z"/>
	<path class="st0" d="M85.5,80.1c-0.2,0.3-0.4,0.2-0.6,0.1c-0.1-0.3,0.1-0.3,0.3-0.3C85.3,79.9,85.5,79.9,85.5,80.1z"/>
	<path class="st0" d="M77.4,80c0,0.1-0.1,0.2-0.2,0.2c-0.1,0-0.1,0-0.2-0.1c-0.1-0.1,0-0.2,0.1-0.2C77.2,79.9,77.3,79.9,77.4,80z"/>
	<path class="st0" d="M86.4,80.3c-0.1,0-0.2,0-0.3-0.1c0-0.1,0.1-0.2,0.2-0.2c0.1,0,0.2,0,0.3,0.1C86.6,80.2,86.5,80.2,86.4,80.3z"
		/>
	<path class="st0" d="M66.4,79c0,0,0.1,0.1,0.1,0.1c0,0.1-0.1,0.1-0.2,0.1c0,0-0.1,0-0.1-0.1C66.2,79.1,66.3,79,66.4,79z"/>
	<path class="st0" d="M87.3,80.2C87.3,80.2,87.3,80.2,87.3,80.2c-0.1-0.2,0-0.2,0.1-0.1C87.4,80.1,87.4,80.1,87.3,80.2
		C87.4,80.2,87.4,80.2,87.3,80.2z"/>
	<path class="st0" d="M72.3,80.1C72.2,80.1,72.2,80.1,72.3,80.1c-0.1,0-0.1,0-0.1,0C72.2,80,72.3,80,72.3,80.1z"/>
	<polygon class="st0" points="73.7,79.3 73.6,79.2 73.7,79.2 	"/>
	<path class="st0" d="M162.7,41.6c0.5-0.3,0.7-0.3,1-0.2C163.5,41.8,163.2,41.7,162.7,41.6z"/>
	<path class="st0" d="M180.5,41.2c-0.5,0.2-0.8,0.1-1.4,0C179.7,41.1,180,41.1,180.5,41.2z"/>
	<path class="st0" d="M177.6,41.3c0.2-0.2,0.4-0.2,0.4-0.1C178,41.4,177.8,41.3,177.6,41.3z"/>
	<path class="st0" d="M167.9,41.3C167.9,41.3,168,41.3,167.9,41.3c0.1,0.1,0.1,0.1,0,0.1C167.9,41.4,167.9,41.4,167.9,41.3
		C167.8,41.3,167.9,41.3,167.9,41.3z"/>
	<path class="st0" d="M169.3,41.3C169.3,41.4,169.3,41.4,169.3,41.3c-0.1,0.1-0.2,0-0.1-0.1C169.2,41.3,169.3,41.3,169.3,41.3
		C169.3,41.3,169.3,41.3,169.3,41.3z"/>
	<path class="st0" d="M173,41.3C173,41.3,173,41.4,173,41.3c-0.1,0.1-0.1,0.1-0.1,0C172.9,41.3,172.9,41.3,173,41.3
		C173,41.3,173,41.3,173,41.3z"/>
	<path class="st0" d="M164.9,41.5C164.9,41.5,164.9,41.5,164.9,41.5c-0.1,0.1-0.1,0-0.2,0C164.8,41.4,164.8,41.4,164.9,41.5
		C164.9,41.4,164.9,41.4,164.9,41.5z"/>
	<path class="st0" d="M45.2,16.3c-0.7,0.2-1.1,0-1.7-0.2C44.1,15.8,44.6,16,45.2,16.3z"/>
	<path class="st0" d="M46.7,16.6c0.1,0,0.2,0,0.3,0.1C46.9,16.8,46.8,16.6,46.7,16.6L46.7,16.6z"/>
	<path class="st0" d="M45.8,16.4C45.8,16.4,45.9,16.4,45.8,16.4c0.1,0,0.1,0,0.1,0C46,16.5,45.9,16.6,45.8,16.4
		C45.8,16.5,45.8,16.4,45.8,16.4z"/>
	<path class="st0" d="M53.4,18.4c0,0-0.1,0-0.1,0C53.3,18.4,53.3,18.4,53.4,18.4C53.4,18.4,53.4,18.4,53.4,18.4z"/>
	<path class="st0" d="M46.7,16.6C46.7,16.6,46.7,16.6,46.7,16.6C46.7,16.6,46.7,16.6,46.7,16.6z"/>
	<path class="st0" d="M182.4,37.6c0.5-0.5,1.1-0.5,1.5-0.5c0.4-0.1,0.8,0.3,1.3,0c0.5-0.3,0.9,0.3,1.4,0.4
		C185.3,37.7,184,37.8,182.4,37.6z"/>
	<path class="st0" d="M188.7,37.7c-0.2,0.2-0.4,0.1-0.6,0c0-0.3,0.2-0.3,0.4-0.3C188.6,37.4,188.8,37.5,188.7,37.7z"/>
	<path class="st0" d="M191.4,37.6c-0.3,0.2-0.6,0.1-0.8,0.1c0-0.3,0.2-0.2,0.4-0.3C191.1,37.4,191.3,37.4,191.4,37.6z"/>
	<path class="st0" d="M193.9,36.2C193.9,36.2,194,36.2,193.9,36.2c0,0.1,0,0.2,0,0.2c0,0-0.1,0-0.1-0.1
		C193.8,36.3,193.9,36.2,193.9,36.2z"/>
	<path class="st0" d="M190.1,37.1c-0.2,0.2-0.4,0.2-0.5,0C189.7,36.9,189.8,37,190.1,37.1z"/>
	<path class="st0" d="M199.8,37.2c-0.1,0-0.2,0-0.2,0c0.1-0.2,0-0.5,0.4-0.4C200,37,199.8,37.1,199.8,37.2z"/>
	<path class="st0" d="M186.5,36.3C186.4,36.3,186.4,36.3,186.5,36.3c-0.1,0-0.1,0-0.1,0C186.4,36.2,186.4,36.1,186.5,36.3
		C186.5,36.2,186.5,36.2,186.5,36.3z"/>
	<path class="st0" d="M191,37.1C191,37.1,191,37.1,191,37.1C190.9,37.2,190.9,37.1,191,37.1C190.9,37,191,37.1,191,37.1z"/>
	<path class="st0" d="M42.3,73.9c-1.4,0.1-2.8-0.2-4.2-0.4c0,0-0.1-0.1-0.2-0.3C39.5,72.8,40.8,73.9,42.3,73.9z"/>
	<path class="st0" d="M36.6,73.8c-0.1,0-0.2-0.1-0.2-0.2c0-0.1,0.1-0.2,0.2-0.2c0.1,0,0.1,0.1,0.1,0.1
		C36.8,73.7,36.7,73.8,36.6,73.8z"/>
	<path class="st0" d="M44.8,75.9C44.9,75.9,44.9,75.9,44.8,75.9c0.1,0.1,0.1,0.1,0,0.1C44.8,76,44.8,76,44.8,75.9z"/>
	<path class="st0" d="M56.6,75.2C56.6,75.2,56.6,75.2,56.6,75.2c0,0.1,0,0.1-0.1,0.1C56.5,75.2,56.5,75.2,56.6,75.2z"/>
	<path class="st0" d="M146.2,52.1c0,0.1,0.1,0.1,0.1,0.2c-0.1,0-0.1,0.1-0.2,0.1c0,0-0.1-0.1-0.1-0.2
		C146,52.2,146.1,52.1,146.2,52.1z"/>
	<path class="st0" d="M145.1,51.8C145.1,51.8,145.1,51.9,145.1,51.8c0,0.1,0,0.1,0,0.1C144.9,51.9,144.9,51.9,145.1,51.8
		C145,51.8,145,51.8,145.1,51.8z"/>
	<polygon class="st0" points="146.3,51.3 146.3,51.3 146.4,51.3 	"/>
	<path class="st0" d="M45.6,78.7c0.1-0.1,0.2-0.2,0.4-0.1c0,0,0.1,0.2,0,0.2C45.8,78.9,45.7,78.7,45.6,78.7L45.6,78.7z"/>
	<path class="st0" d="M50,78.7C50,78.7,50.1,78.7,50,78.7c0.1,0.1,0.1,0.1,0,0.1C50,78.8,50,78.8,50,78.7C49.9,78.7,50,78.7,50,78.7
		z"/>
	<path class="st0" d="M45.6,78.7C45.5,78.7,45.5,78.7,45.6,78.7C45.5,78.7,45.5,78.7,45.6,78.7C45.6,78.7,45.6,78.7,45.6,78.7z"/>
	<path class="st0" d="M226.8,35.6c0.5-0.3,1-0.3,1.7-0.1C227.9,36,227.3,35.7,226.8,35.6z"/>
	<path class="st0" d="M223.6,35.6c-0.3,0.3-0.5,0.2-0.7,0C223.1,35.3,223.3,35.3,223.6,35.6z"/>
	<path class="st0" d="M224.7,35.6c0.2-0.2,0.4-0.2,0.5,0c0.1,0.2-0.1,0.2-0.3,0.2C224.8,35.8,224.8,35.7,224.7,35.6z"/>
	<path class="st0" d="M201.3,45.1C201.3,45,201.4,45,201.3,45.1c0.1,0,0.1,0,0.2,0c0,0,0,0-0.1,0.1
		C201.4,45.1,201.4,45.1,201.3,45.1z"/>
	<path class="st0" d="M153.5,58.1L153.5,58.1C153.5,58.1,153.5,58.1,153.5,58.1z"/>
	<path class="st0" d="M39.9,22.8C39.9,22.8,40,22.8,39.9,22.8C40,22.8,39.9,22.8,39.9,22.8C39.9,22.8,39.9,22.8,39.9,22.8z"/>
	<path class="st0" d="M211.4,32.6C211.4,32.6,211.4,32.6,211.4,32.6L211.4,32.6z"/>
	<path class="st0" d="M71.3,77.1c-0.1,0-0.2,0-0.2,0C71.1,77.1,71.2,77.1,71.3,77.1z"/>
	<path class="st0" d="M207.8,40.7c0,0-0.1-0.1-0.1-0.1c0-0.1,0.1-0.2,0.2-0.1c0,0,0.1,0.1,0.1,0.2C208,40.7,207.9,40.7,207.8,40.7z"
		/>
</g>
</svg>
